<svg id="Layer_1" data-name="Layer 1" xmlns="http://www.w3.org/2000/svg" viewBox="0 0 380.56 380.56"><defs><style>.cls-1{fill:#fff;}.cls-2{opacity:0.09;}</style></defs><path class="cls-1" d="M476.69,462H96.13V81.44H476.69ZM285.11,441.07c93.29,0,169.73-75.31,170.57-168.14.87-94.71-75.39-172.31-169.86-172.16S116.66,175.32,115.46,267.13C114.19,364.17,190.17,441,285.11,441.07Z" transform="translate(-96.13 -81.44)"/><path class="cls-2" d="M285.11,441.07c-94.94,0-170.92-76.9-169.65-173.94,1.2-91.81,76-166.21,170.36-166.36s170.73,77.45,169.86,172.16C454.84,365.76,378.4,441.11,285.11,441.07Zm.58-147.58c-5.89,0-11.78-.18-17.66,0C229.56,294.86,201.75,313,184,347c-2.47,4.74-2.39,8.32,1.27,12.79,50.53,61.64,150.86,61.46,200.87-.38,3.15-3.9,3.42-6.91,1.34-11.26a96.25,96.25,0,0,0-32.07-38.17C334.32,295.26,310.65,291.69,285.69,293.49Zm59.7-85c-.18-33.64-23-60.32-52.74-64.7-31.2-4.59-60.31,14.3-69,44.81-9,31.51,11.28,75.22,41.17,88.63,15.4,6.92,30.35,5.37,43.94-3.94C332.34,257.09,343.08,233.5,345.39,208.48Z" transform="translate(-96.13 -81.44)"/></svg>