<svg id="Layer_1" data-name="Layer 1" xmlns="http://www.w3.org/2000/svg" viewBox="0 0 76.35 57.95"><defs><style>.cls-1{fill:#f9e2d6;}.cls-11,.cls-12,.cls-13,.cls-15,.cls-2,.cls-3,.cls-4,.cls-8{isolation:isolate;}.cls-3{font-size:1.41px;fill:#070707;}.cls-13,.cls-15,.cls-18,.cls-19,.cls-3,.cls-4,.cls-8{font-family:ArialMT, Arial;}.cls-4,.cls-8{font-size:1.9px;}.cls-4,.cls-5{fill:#f17947;}.cls-6{opacity:0.57;}.cls-11,.cls-12,.cls-7,.cls-9{fill:none;}.cls-7{stroke:orange;}.cls-10,.cls-11,.cls-12,.cls-7,.cls-9{stroke-miterlimit:10;}.cls-10,.cls-11,.cls-7,.cls-9{stroke-width:0.25px;}.cls-8{fill:orange;}.cls-10,.cls-9{stroke:#8c8b8b;}.cls-10{fill:#fcfcfc;}.cls-11,.cls-12{stroke:#d6d4d4;opacity:0.39;}.cls-13,.cls-15{font-size:0.93px;fill:#d6d4d4;}.cls-14{fill:#edf3ff;}.cls-15{opacity:0.31;}.cls-16{fill:#fdf1c1;}.cls-17{fill:#f57c4a;}.cls-18,.cls-19{font-size:1.57px;}.cls-18{fill:#fff;}</style></defs><rect class="cls-1" x="32.13" y="48.02" width="10.9" height="9.7"/><g class="cls-2"><text class="cls-3" transform="translate(32.75 55.2) scale(0.98 1)">Organize <tspan x="0" y="1.69">the house </tspan></text><text class="cls-2" x="0.02" y="0.02"/></g><text class="cls-4" transform="translate(0.68 2.72)">Jun 2021</text><path class="cls-5" d="M9.4,2.6l-.7-.8H9l.5.7.5-.7h.3l-.6.8Z" transform="translate(0.02 0.02)"/><g class="cls-6"><path class="cls-7" d="M60.6.1H70a.68.68,0,0,1,.7.7h0V3.2a.9.9,0,0,1-.9.9H60.7a.9.9,0,0,1-.9-.9V1.1C59.6.5,60,.1,60.6.1Z" transform="translate(0.02 0.02)"/><text class="cls-8" transform="translate(62.55 2.82) scale(0.97 1)">Today</text></g><g class="cls-6"><path class="cls-9" d="M72.3.1h3.2a.68.68,0,0,1,.7.7V3.4a.68.68,0,0,1-.7.7H72.3a.68.68,0,0,1-.7-.7V.8A.68.68,0,0,1,72.3.1Z" transform="translate(0.02 0.02)"/><line class="cls-9" x1="72.43" y1="1.52" x2="75.43" y2="1.52"/><line class="cls-9" x1="72.43" y1="2.82" x2="75.43" y2="2.82"/><circle class="cls-10" cx="73.22" cy="1.52" r="0.5"/><circle class="cls-10" cx="74.52" cy="2.82" r="0.5"/></g><rect class="cls-11" x="0.13" y="9.92" width="76" height="47.9"/><path class="cls-12" d="M72.6,17.4" transform="translate(0.02 0.02)"/><path class="cls-12" d="M4.6,18.1" transform="translate(0.02 0.02)"/><line class="cls-11" x1="0.43" y1="19.13" x2="75.93" y2="19.13"/><line class="cls-11" x1="0.43" y1="28.23" x2="75.93" y2="28.23"/><line class="cls-11" x1="0.43" y1="37.82" x2="75.93" y2="37.73"/><line class="cls-11" x1="0.13" y1="48.02" x2="76.12" y2="48.02"/><line class="cls-11" x1="65.62" y1="9.72" x2="65.62" y2="57.52"/><line class="cls-11" x1="54.12" y1="9.92" x2="54.12" y2="57.73"/><line class="cls-11" x1="43.12" y1="9.92" x2="43.12" y2="57.73"/><line class="cls-11" x1="21.13" y1="9.92" x2="21.13" y2="57.73"/><line class="cls-11" x1="10.63" y1="9.92" x2="10.63" y2="57.73"/><line class="cls-11" x1="32.12" y1="9.92" x2="32.12" y2="57.73"/><text class="cls-13" transform="translate(7.53 9.42) scale(0.96 1)">Sun</text><text class="cls-13" transform="translate(18.36 9.42) scale(0.96 1)">Mon</text><text class="cls-13" transform="translate(29.38 9.42) scale(0.96 1)">Tue</text><text class="cls-13" transform="translate(40.63 9.42) scale(0.96 1)">Wed</text><text class="cls-13" transform="translate(51.93 9.42) scale(0.96 1)">Thu</text><text class="cls-13" transform="translate(63.65 9.42) scale(0.96 1)">Fri</text><text class="cls-13" transform="translate(74.11 9.42) scale(0.96 1)">Sat</text><rect class="cls-14" x="65.62" y="28.32" width="10.5" height="9.3"/><text class="cls-2" x="0.02" y="0.02"/><text class="cls-2" x="0.02" y="0.02"/><text class="cls-13" transform="translate(30.07 11.36) scale(0.96 1)">1</text><text class="cls-13" transform="translate(41.07 11.36) scale(0.96 1)">2</text><text class="cls-13" transform="translate(52.07 11.36) scale(0.96 1)">3</text><text class="cls-13" transform="translate(64.07 11.36) scale(0.96 1)">4</text><text class="cls-13" transform="translate(74.14 11.36) scale(0.96 1)">5</text><text class="cls-13" transform="translate(8.4 21.03) scale(0.96 1)">6</text><text class="cls-13" transform="translate(18.8 20.81) scale(0.96 1)">7</text><text class="cls-13" transform="translate(29.8 20.81) scale(0.96 1)">8</text><text class="cls-13" transform="translate(40.8 20.81) scale(0.96 1)">9</text><text class="cls-13" transform="translate(51.81 20.81) scale(0.96 1)">10</text><text class="cls-13" transform="translate(63.81 20.81) scale(0.96 1)">12</text><text class="cls-13" transform="translate(73.86 20.81) scale(0.96 1)">12</text><text class="cls-13" transform="translate(8.4 29.73) scale(0.96 1)">13</text><text class="cls-13" transform="translate(18.8 29.5) scale(0.96 1)">14</text><text class="cls-13" transform="translate(29.8 29.5) scale(0.96 1)">15</text><text class="cls-13" transform="translate(40.8 29.5) scale(0.96 1)">16</text><text class="cls-13" transform="translate(51.81 29.5) scale(0.96 1)">17</text><text class="cls-13" transform="translate(63.81 29.5) scale(0.96 1)">18</text><text class="cls-13" transform="translate(73.86 29.5) scale(0.96 1)">19</text><text class="cls-13" transform="translate(8.82 39.77) scale(0.96 1)">20</text><text class="cls-13" transform="translate(19.22 39.53) scale(0.96 1)">21</text><text class="cls-13" transform="translate(30.22 39.53) scale(0.96 1)">22</text><text class="cls-13" transform="translate(41.22 39.53) scale(0.96 1)">23</text><text class="cls-13" transform="translate(52.23 39.53) scale(0.96 1)">24</text><text class="cls-13" transform="translate(64.23 39.53) scale(0.96 1)">25</text><text class="cls-13" transform="translate(74.3 39.53) scale(0.96 1)">26</text><text class="cls-13" transform="translate(8.82 49.9) scale(0.96 1)">27</text><text class="cls-13" transform="translate(19.22 49.67) scale(0.96 1)">28</text><text class="cls-13" transform="translate(30.22 49.67) scale(0.96 1)">29</text><text class="cls-13" transform="translate(41.69 49.74) scale(0.96 1)">30</text><text class="cls-15" transform="translate(52.69 49.74) scale(0.96 1)">1</text><text class="cls-15" transform="translate(64.27 49.74) scale(0.96 1)">2</text><text class="cls-15" transform="translate(74.68 49.74) scale(0.96 1)">3</text><rect class="cls-16" x="10.63" y="19.13" width="10.4" height="9"/><rect class="cls-17" x="54.43" y="28.47" width="10.9" height="9"/><text class="cls-13" transform="translate(19.26 21.03) scale(0.96 1)">7</text><text class="cls-13" transform="translate(63.57 30.23) scale(0.96 1)">18</text><text class="cls-18" transform="translate(55.17 34.64) scale(0.96 1)">Pack<tspan x="0" y="1.88">the suf</tspan></text><text class="cls-19" transform="translate(66.82 34.82) scale(0.96 1)">Moving<tspan x="0" y="1.88">day</tspan></text><text class="cls-19" transform="translate(11.82 25.46) scale(0.96 1)">Book<tspan x="0" y="1.88">TingsApp</tspan></text></svg>