<svg id="Layer_1" data-name="Layer 1" xmlns="http://www.w3.org/2000/svg" viewBox="0 0 970.31 960.03"><defs><style>.cls-1{fill:none;stroke:#32a534;stroke-width:100px;}.cls-1,.cls-2{stroke-miterlimit:10;}.cls-2{fill:#32a534;stroke:#fff;stroke-width:10px;}</style></defs><ellipse class="cls-1" cx="485.15" cy="480.02" rx="435.15" ry="430.02"/><path class="cls-2" d="M771.93,300.23c6.69,13.3,9.66,27.24,7.3,42.15a60.47,60.47,0,0,1-11.58,28Q703,454.1,638.24,537.65q-31,40-62,80c-27.59,35.6-55.34,71.11-82.7,106.87-7.68,10-15.47,19.78-27,25.56-21.17,10.57-42.15,10.11-63-1l-3.06-1.65c-17.61-13.37-29.93-31.73-44.3-48.08-23.93-27.21-47.26-54.94-70.81-82.46C260,587.23,273.82,602,248.22,572.53c-7.8-9-14.74-18.27-17.64-29.88-6-24.12-.88-45.68,16.59-63.36s39.09-22.89,63.24-16.88c13.78,3.42,24.72,11.3,33.77,22.07,3.11,3.69,6.42,7.2,9.64,10.79,1.11,1.46,2.11,3,3.28,4.39,31.83,37.2,24.68,29.81,56.55,67,6.47,7.57,13.07,15,20.05,23.07,4.21-5.87,8-11.15,11.71-16.37C454.18,562.2,463,551.2,471.69,540l90.42-116.79L647.6,312.82c7-9.09,13.56-18.75,21.69-26.74,29.87-29.6,77.78-23.92,100.71,11.4C770.57,298.35,771.27,299.27,771.93,300.23Z" transform="translate(-13.37 -18.37)"/></svg>