<svg id="Layer_1" data-name="Layer 1" xmlns="http://www.w3.org/2000/svg" xmlns:xlink="http://www.w3.org/1999/xlink" viewBox="0 0 1920 797.5"><defs><style>.cls-1{fill:#fff;}.cls-2{fill:url(#linear-gradient);}.cls-3{fill:#c8412e;}.cls-4{fill:#e25b4d;}.cls-5{fill:#a83226;}.cls-6{fill:#771b1b;}.cls-7{fill:#ead5ba;}</style><linearGradient id="linear-gradient" x1="1197.91" y1="146.19" x2="1758.39" y2="887.58" gradientTransform="matrix(1, 0, 0, -1, 0, 802)" gradientUnits="userSpaceOnUse"><stop offset="0" stop-color="#fce6e8"/><stop offset="1" stop-color="#ebf0fd"/></linearGradient></defs><polygon class="cls-1" points="0 0.2 1920 0.2 1920 797.4 0 797.4 0 796.4 0 0.2"/><path class="cls-2" d="M1920,798.75V4.25l-1057.4-3s403,239.8,137.8,599.5c-52.4,71-76.4,137.5-77.1,196.9" transform="translate(0 -1.25)"/><rect class="cls-3" x="1288.58" y="488.46" width="11.1" height="65.47"/><rect class="cls-3" x="1310.65" y="514.58" width="11.1" height="39.35"/><rect class="cls-3" x="1310.65" y="497.26" width="11.1" height="39.35"/><rect class="cls-3" x="1429.41" y="516.94" width="7.55" height="37"/><rect class="cls-3" x="1399.04" y="514.67" width="7.55" height="39.26"/><rect class="cls-3" x="1379.28" y="494.47" width="12.03" height="49.44"/><rect class="cls-3" x="1414.96" y="486.57" width="12.5" height="57.34"/><polygon class="cls-3" points="1275.44 554.75 1275.44 496.82 1260.89 489.28 1260.89 554.75 1275.44 554.75"/><rect class="cls-3" x="1222.43" y="516.94" width="12.2" height="40.45"/><rect class="cls-3" x="1251.31" y="516.94" width="7.57" height="40.45"/><rect class="cls-3" x="1202.09" y="506.08" width="7.57" height="51.31"/><rect class="cls-3" x="1212.75" y="498.7" width="3.79" height="45.58"/><rect class="cls-3" x="1228.56" y="490.74" width="3.79" height="45.58"/><rect class="cls-3" x="1172.68" y="544.15" width="9.87" height="23.35"/><rect class="cls-3" x="1186.16" y="535.25" width="5.73" height="16.18"/><rect class="cls-3" x="1196.03" y="544.15" width="6.13" height="23.35"/><rect class="cls-3" x="1156.23" y="537.88" width="6.13" height="29.62"/><rect class="cls-3" x="1164.84" y="533.62" width="3.06" height="26.31"/><rect class="cls-3" x="1181.58" y="524.9" width="3.06" height="35.59"/><rect class="cls-3" x="1793.96" y="548.74" width="8.54" height="18.75"/><rect class="cls-3" x="1785.87" y="541.6" width="4.96" height="12.99"/><rect class="cls-3" x="1777" y="548.74" width="5.3" height="18.75"/><rect class="cls-3" x="1811.43" y="543.71" width="5.3" height="23.78"/><rect class="cls-3" x="1806.62" y="540.29" width="2.65" height="21.13"/><rect class="cls-3" x="1792.15" y="533.29" width="2.65" height="28.58"/><rect class="cls-3" x="1277.47" y="498.7" width="22.2" height="55.23"/><rect class="cls-4" x="1554.91" y="445.07" width="10.89" height="105.53"/><rect class="cls-4" x="1593.74" y="438.79" width="10.89" height="111.81"/><rect class="cls-4" x="1528.93" y="412.79" width="14.27" height="137.81"/><rect class="cls-4" x="1617.37" y="351.03" width="16.51" height="195.52"/><rect class="cls-4" x="1624.82" y="292.79" width="2.07" height="193.19"/><rect class="cls-4" x="1504.18" y="437.06" width="19.97" height="108.98"/><rect class="cls-4" x="1537.67" y="460.1" width="21.78" height="88.03"/><rect class="cls-4" x="1569.41" y="477.38" width="21.78" height="73.22"/><rect class="cls-4" x="1537.67" y="471.96" width="87.93" height="71.39"/><rect class="cls-3" x="1251.31" y="522.61" width="181.88" height="43.34"/><rect class="cls-4" x="1583.31" y="456.35" width="6.73" height="64.22"/><rect class="cls-4" x="1659.84" y="458.4" width="10.99" height="99.64"/><rect class="cls-4" x="1523.97" y="499.75" width="7.47" height="58.28"/><rect class="cls-4" x="1554.03" y="496.45" width="7.47" height="61.58"/><rect class="cls-4" x="1533.38" y="455.66" width="12.37" height="83.26"/><rect class="cls-4" x="1682.65" y="430.94" width="14.39" height="127.09"/><rect class="cls-4" x="1709.34" y="451.58" width="20.15" height="92.68"/><polygon class="cls-4" points="1395.08 556.32 1395.08 467.33 1384.1 464.18 1384.1 556.32 1395.08 556.32"/><rect class="cls-4" x="1370.31" y="458.4" width="10.99" height="99.64"/><rect class="cls-4" x="1396.93" y="434.22" width="14.39" height="126.13"/><polygon class="cls-4" points="1357.45 550.03 1343.06 550.03 1343.06 434.31 1357.45 421.7 1357.45 550.03"/><rect class="cls-4" x="1433.19" y="461.04" width="20.15" height="92.67"/><rect class="cls-3" x="1423.33" y="503.26" width="291.41" height="47.82"/><path class="cls-5" d="M1487.39,360.65a3.82,3.82,0,0,0-2-2.95,7.87,7.87,0,0,0,2-5.12,8.7,8.7,0,0,0-3.81-6.79v-2.91c0-2-3.51-3.76-8.35-4.34V300.73a3.73,3.73,0,0,0,2.27-3.13c0-1.56-1.34-2.91-3.28-3.56V271.91h-1v-8.19h-.55v-27.9h-2.07v27.9h-.56v8.19h-1V294c-1.94.65-3.27,2-3.27,3.56a3.72,3.72,0,0,0,2.26,3.13v37.81c-4.84.58-8.35,2.3-8.35,4.34v2.91a8.7,8.7,0,0,0-3.81,6.79,7.87,7.87,0,0,0,2,5.12,3.82,3.82,0,0,0-2,2.95c0,2.66,4.51,4.9,10.77,5.7-.74,92.66-9.68,204.38-9.68,204.38h29.33s-9-111.72-9.69-204.38C1482.88,365.55,1487.39,363.31,1487.39,360.65Z" transform="translate(0 -1.25)"/><rect class="cls-5" x="1300.79" y="529.55" width="152.59" height="39.93"/><path class="cls-5" d="M1452.7,550.48c-1-27-34.45-48.65-75.61-48.65s-74.65,21.67-75.61,48.65Z" transform="translate(0 -1.25)"/><path class="cls-6" d="M1428.1,537.93c-7.23-14-27.33-24.07-51-24.07s-43.79,10.07-51,24.07Z" transform="translate(0 -1.25)"/><rect class="cls-5" x="1447.37" y="510.25" width="24.22" height="59.23"/><rect class="cls-5" x="1522.98" y="481.9" width="21.82" height="87.58"/><polygon class="cls-5" points="1511.68 569.48 1489.86 569.48 1489.86 481.9 1511.68 468.8 1511.68 569.48"/><rect class="cls-5" x="1546.9" y="477.47" width="32.9" height="92.01"/><rect class="cls-5" x="1587.36" y="495.77" width="25.09" height="73.71"/><rect class="cls-5" x="1670.34" y="477.47" width="32.9" height="92.01"/><rect class="cls-5" x="1710.8" y="469.49" width="32.17" height="99.99"/><rect class="cls-5" x="1619.25" y="516.45" width="25.09" height="53.03"/><rect class="cls-5" x="1648.49" y="503.16" width="17.41" height="66.32"/><rect class="cls-5" x="1745.48" y="492.14" width="10.48" height="77.34"/><rect class="cls-5" x="1468.92" y="520.88" width="27.36" height="48.6"/><rect class="cls-5" x="1529.36" y="527.37" width="27.37" height="42.11"/><rect class="cls-5" x="1566.11" y="519.73" width="27.37" height="49.75"/><rect class="cls-5" x="1596.68" y="541.43" width="27.36" height="28.05"/><rect class="cls-5" x="1638.53" y="547.34" width="20.55" height="22.14"/><rect class="cls-5" x="1660.06" y="529.55" width="20.55" height="39.93"/><rect class="cls-5" x="1695.5" y="524.9" width="20.56" height="44.58"/><rect class="cls-5" x="1760.01" y="500.94" width="4.77" height="68.54"/><rect class="cls-5" x="1766.03" y="516.81" width="4.77" height="50.36"/><rect class="cls-5" x="1769.85" y="532.08" width="4.76" height="35.09"/><rect class="cls-5" x="1772.23" y="538.53" width="4.77" height="28.63"/><rect class="cls-5" x="1775.75" y="524.9" width="5.99" height="42.27"/><polygon class="cls-5" points="1268.92 466.02 1268.92 462.14 1266.74 462.14 1266.74 458.68 1265.25 458.68 1265.25 456.06 1250.28 456.06 1250.28 458.68 1248.79 458.68 1248.79 462.14 1246.61 462.14 1246.61 466.02 1244.88 466.02 1244.88 569.48 1270.64 569.48 1270.64 466.02 1268.92 466.02"/><polygon class="cls-5" points="1654.26 425.32 1654.26 419.91 1651.67 419.91 1651.67 415.1 1649.89 415.1 1649.89 411.44 1632.08 411.44 1632.08 415.1 1630.3 415.1 1630.3 419.91 1627.7 419.91 1627.7 425.32 1625.65 425.32 1625.65 569.48 1656.31 569.48 1656.31 425.32 1654.26 425.32"/><rect class="cls-5" x="1267.34" y="519.91" width="17.85" height="49.57"/><rect class="cls-5" x="1216.53" y="534.31" width="13.92" height="35.17"/><rect class="cls-5" x="1232.76" y="511.21" width="9.66" height="58.27"/><rect class="cls-5" x="1283.14" y="503.16" width="17.41" height="66.32"/><rect class="cls-5" x="1208.94" y="547.32" width="15.19" height="22.16"/><rect class="cls-5" x="1183.11" y="547.34" width="601.85" height="22.14"/><rect class="cls-5" x="1204.65" y="529.55" width="20.55" height="39.93"/><rect class="cls-5" x="1164" y="548.26" width="7.58" height="21.22"/><rect class="cls-5" x="1172.83" y="534.31" width="5.26" height="35.17"/><rect class="cls-5" x="1157.53" y="545.39" width="11.18" height="24.09"/><rect class="cls-5" x="1146.77" y="557.39" width="43.48" height="12.09"/><rect class="cls-5" x="1791.85" y="548.26" width="7.58" height="21.22"/><rect class="cls-5" x="1800.68" y="534.31" width="5.26" height="35.17"/><rect class="cls-5" x="1785.38" y="545.39" width="11.19" height="24.09"/><rect class="cls-5" x="1774.61" y="557.39" width="43.48" height="12.09"/><rect class="cls-5" x="1240.08" y="524.9" width="20.56" height="44.58"/><rect class="cls-5" x="1288.81" y="524.9" width="20.55" height="44.58"/><rect class="cls-5" x="1506.53" y="532.69" width="27.36" height="36.79"/><path class="cls-7" d="M1818.09,570.73H1146.77v5.21h9.46v8.4h6.12v-3.23h2.49v5.07h3.07v-5.07h.81v-1.24h2.86v-3.93h1.1v5.71h.15v4.23h5.26v-4.23h3.49v8.28h3.06v-9.66h1.52v5.21h5.74v-5.21H1196v1.38h6.06V598h7.58V587.93h3.08v13.29h3.78V587.93h5.9v5.43h6.13v11.29h3.79V593.36h.41v2.47h9.66v-5.9h2.46V615.3h1.73V617h2.18v1.49h1.49v1.13h15v-1.13h1.49V617h2.18V615.3h1.72V603.1l4.8-1.07v-9.94h2v9.13h11.11v4.41h11.1V599.3h.87v-8.38h10.1v10.92h11.1v-8.27a144.72,144.72,0,0,0,21.31,4.54V629l14.4,5.43V599.67c4.15.32,8.45.54,12.85.65v18.26h11V603h2.8v13.05l11-1.36V599.8l1.85-.14V629h14.39V598.08c1.23-.17,2.45-.36,3.64-.55v8.91h12.5v-7.19h5.73v18.19h20.14V599.25h8.14c2.35,17.1,4.81,39.36,5.19,59.52-6.26.34-10.77,1.31-10.77,2.46,0,.46.75.89,2,1.26-1.29.66-2,1.41-2,2.21,0,1.12,1.44,2.14,3.81,2.93v1.25c0,.88,3.51,1.62,8.35,1.87V687c-1.37.31-2.26.8-2.26,1.34s1.33,1.26,3.27,1.54v9.53h1V703h.56v12h2.07V703h.55v-3.53h1v-9.53c1.94-.28,3.28-.86,3.28-1.54s-.9-1-2.27-1.34V670.75c4.84-.25,8.35-1,8.35-1.87v-1.25c2.37-.79,3.81-1.81,3.81-2.93,0-.8-.75-1.55-2-2.21,1.29-.37,2-.8,2-1.26,0-1.15-4.51-2.12-10.77-2.46.38-20.16,2.84-42.42,5.2-59.52h8v9.21l14.32,3.7v15.61h20V608.46h4.78v29.77h14.26V619.76h2.56v-1.91h9.16v6.47h10.89V612.74h17.51v6.72H1590v-6.72h3.7V627h10.89V612.74h12.74v52.09h7.45v25.09h2.06V664.83h7v-26h16v-1.58h1.78v-2.07h2.59v-2.33h2V599.3h3.53v19.28h11v-8.21h11.83v20H1697v-20h6.2V599.25h6.1v22.27h20.14V613.8H1743V580.27h2.51v23.78H1756V580.27h4v20h4.77v-20H1766v13.15h4.77v-6.58h3.81v-2.78h1.14v5.87h6v-9.66H1785v-4.33h.41v5.17h.49v1.63h5v-1.63h1.32v5.21h2.64v-5.21h1.77v-1.24h2.86v-.21h1.26v6.22h5.25v-9.94h.69v7.36h2.65v-7.36h2.16v5.89h5.3v-5.89h1.36Z" transform="translate(0 -1.25)"/></svg>