<svg id="Layer_1" data-name="Layer 1" xmlns="http://www.w3.org/2000/svg" viewBox="0 0 1957.26 1134.2"><defs><style>.cls-1{fill:#fff;}.cls-2{fill:orange;opacity:0.3;}.cls-3{fill:#e1e1e1;}.cls-4{fill:#f5f5f5;}.cls-5{fill:#ececec;}.cls-6{fill:#1a2e35;}.cls-7{fill:#ff4f5b;}.cls-8{opacity:0.5;}.cls-9{opacity:0.3;}.cls-10{fill:#fafafa;}.cls-11{fill:#375a64;}.cls-12{fill:#ffbf9d;}.cls-13{opacity:0.6;}.cls-14{opacity:0.4;}.cls-15{fill:#ff9a6c;}</style></defs><rect class="cls-1" width="1956.83" height="1134.2"/><path class="cls-2" d="M1908.45,995.28c-76.75-7.65-147.57,31-220.18,59.15-46.12,17.89-96.4,30.65-144.87,20.78-72-14.66-127.22-76.16-198.86-92.31-46.81-10.56-98,.29-136.5,28.92s-63.62,74.52-67,122.38l815.94-.11.28-127.49A196.58,196.58,0,0,0,1908.45,995.28Z"/><path class="cls-2" d="M1292.89,37.61c2.09,37.65,14.14,74.89,37.73,104.64A174.51,174.51,0,0,0,1376,182.2c18.12,11.13,38.08,18.38,58.67,23.45,41.58,10.24,84.71,12.25,126.24,22.7,20,5,39.59,12.14,57.09,23.1,18.89,11.82,34.14,28,46.46,46.48,25.92,38.83,35.7,85,45.49,129.91,5,22.88,9.81,46.12,17.6,68.25a285.64,285.64,0,0,0,29.85,60.57,235.15,235.15,0,0,0,109.09,89.56,238.46,238.46,0,0,0,90.3,17.18V0H1293.77A242.19,242.19,0,0,0,1292.89,37.61Z"/><path class="cls-3" d="M1602.89,499.19a23.34,23.34,0,0,0,3.9-1.8,15.38,15.38,0,0,0,6.9-9.67,16.09,16.09,0,0,0,.33-4.15,21.72,21.72,0,0,0-.9-4.51c-.84-3.15-1.76-6.58-2.71-10.26-2-7.37-4.19-15.75-6.65-25l-8-30.33c-.72-2.72-1.46-5.49-2.2-8.31a15.42,15.42,0,0,0-4-7.5,14.71,14.71,0,0,0-7.65-4.12c-3-.69-5.93-.1-9,.81l-79.77,21a14.83,14.83,0,0,0-8.4,5.91,14.57,14.57,0,0,0-2.5,9.82,35.93,35.93,0,0,0,1.15,5.11c.44,1.71.9,3.41,1.33,5.11l2.65,10.09c3.49,13.35,6.86,26.24,10.07,38.5q2.38,9.21,4.68,17.93a16.81,16.81,0,0,0,3.61,7.76,14.65,14.65,0,0,0,6.85,4.51c5.33,1.89,10.63-.67,15.69-1.8l14.57-3.78,44-11.36,12-3,3.12-.76c.71-.16,1.08-.21,1.08-.21s-.36.13-1,.33l-3.09.9-11.91,3.24L1543,515.34l-14.6,3.87-7.75,2a15.79,15.79,0,0,1-15.78-5,17.8,17.8,0,0,1-3.81-8.16q-2.3-8.71-4.73-17.92l-10.13-38.48-2.61-10.05q-.66-2.53-1.35-5.1a38,38,0,0,1-1.17-5.28,15.68,15.68,0,0,1,2.71-10.61,16,16,0,0,1,9-6.38l79.79-20.9c3-.91,6.37-1.56,9.49-.81a15.83,15.83,0,0,1,8.17,4.44,16.42,16.42,0,0,1,4.24,8c.73,2.82,1.46,5.59,2.17,8.32,2.83,10.91,5.48,21.07,7.89,30.36s4.57,17.68,6.49,25.05c1,3.7,1.84,7.12,2.65,10.29a22.93,22.93,0,0,1,.9,4.64,16.2,16.2,0,0,1-.41,4.28,15.37,15.37,0,0,1-7.21,9.77,14.38,14.38,0,0,1-3,1.3Z"/><path class="cls-3" d="M1570.81,468a5,5,0,0,1-.74.25l-2.15.61-8,2.2-26.86,7.22-.21.05-.09-.2-1.81-4.29-13-31.1.2.1-7.17,1.8-1.92.46a5.32,5.32,0,0,1-.67.14,5,5,0,0,1,.65-.23l1.88-.54,7.15-2h.13l.06.13,13.15,31c.61,1.47,1.23,2.93,1.8,4.3l-.31-.16,26.9-7,8-2,2.17-.53A5.06,5.06,0,0,1,1570.81,468Z"/><path class="cls-3" d="M1529.85,470.5a.42.42,0,0,0,.18-.07l.55-.17,2.16-.61,8.06-2.22,27.87-7.49-.19.28c-.42-4.92-.9-10.23-1.34-15.73-.23-2.83-.47-5.61-.69-8.26l.32.23-32.88,8.63-9.71,2.51-2.63.65-.69.15a1,1,0,0,1-.24,0l.22-.09.68-.2,2.61-.73,9.71-2.71,32.84-8.8.3-.08v.31c.23,2.65.46,5.41.7,8.26.46,5.5.91,10.83,1.32,15.72v.22h-.21l-27.9,7.31-8.12,2.07-2.17.53-.57.13Z"/><path class="cls-3" d="M1545.19,485.83s-.15-.32-.45-.84a3.94,3.94,0,0,0-1.92-1.59,3.74,3.74,0,0,0-3.5.43,3.68,3.68,0,0,0,4.33,5.95,3.6,3.6,0,0,0,.69-.66,3.81,3.81,0,0,0,.9-2.33c0-.61-.07-1,0-1a2.15,2.15,0,0,1,.23,1,3.93,3.93,0,0,1-.78,2.56,4.07,4.07,0,0,1-3.61,1.62,4.13,4.13,0,1,1,1.93-7.92,3.89,3.89,0,0,1,1.94,1.81A2,2,0,0,1,1545.19,485.83Z"/><path class="cls-3" d="M1569.51,479.35a7.83,7.83,0,0,0-.45-.85,3.91,3.91,0,0,0-1.92-1.6,3.74,3.74,0,0,0-3.51.44,3.68,3.68,0,1,0,4.34,5.94,3.27,3.27,0,0,0,.69-.65,3.87,3.87,0,0,0,.9-2.34c0-.6-.06-.9,0-.94a2,2,0,0,1,.23.94,4,4,0,0,1-.78,2.57,4.13,4.13,0,1,1-1.68-6.3,4,4,0,0,1,1.94,1.8A2.13,2.13,0,0,1,1569.51,479.35Z"/><path class="cls-4" d="M1790.75,936.2c-27.33-13.45-37.89-44.6-41.31-73.53-.57-4.82-1.88-9.8-.25-14.37s6.53-8.27,11.14-6.91c3.82,1.14,6,5.05,8.54,8.18a28.46,28.46,0,0,0,12.92,9c3.3,1.11,7.22,1.5,10-.63,3.79-2.92,3.39-8.72,2.64-13.53l-4.28-26.65c-.77-4.77-1.53-9.65-.74-14.43s3.42-9.48,7.77-11.45,10.37-.22,12,4.31c.7,1.89.61,4,1,5.93s1.7,4,3.67,4.27,3.7-1.38,4.9-3c4.2-5.59,6.59-12.31,8.76-18.94s4.24-13.46,7.9-19.41,9.21-11.07,16-12.51,14.72,1.66,17.48,8.12-.11,13.91-3.55,20a107.69,107.69,0,0,1-18.94,24.58c-1.34,1.3-2.8,2.7-3.1,4.56-.54,3.34,3,6,6.26,6.6,3.74.64,7.55-.32,11.35-.46s8.11.91,10,4.2c2.7,4.58-.59,10.33-4.1,14.29a92.33,92.33,0,0,1-24.63,19.77c-3.31,1.8-6.84,3.52-9.29,6.42s-3.5,7.47-1.28,10.56,6.8,3.51,10.37,2.27,6.56-3.76,9.87-5.62c6.17-3.49,14.73-4.34,19.84.68,3.34,3.31,4.38,8.46,3.66,13.13s-3,8.92-5.41,12.91c-8.62,14-20.57,26-35,33.61s-28.3,11.22-44.29,8"/><path class="cls-3" d="M1795.4,917c2-15.17,5.58-31.62,9.92-48.71q1.65-6.4,3.25-12.63c1.08-4.15,2.15-8.25,3.44-12.21a217.35,217.35,0,0,1,8.73-22.3c3.12-6.95,6.31-13.44,9.38-19.49s6-11.62,9-16.59a172,172,0,0,1,15.49-22.4c2-2.49,3.66-4.36,4.79-5.63l1.29-1.42a3,3,0,0,1,.47-.47,3.51,3.51,0,0,1-.4.53l-1.23,1.48c-1.08,1.3-2.7,3.21-4.65,5.74a180.87,180.87,0,0,0-15.22,22.5c-2.88,5-5.8,10.56-8.83,16.6s-6.21,12.55-9.29,19.49a218.69,218.69,0,0,0-8.66,22.27c-1.28,3.93-2.34,8-3.41,12.16s-2.15,8.36-3.25,12.62c-4.32,17.07-7.91,33.47-9.92,48.59"/><path class="cls-3" d="M1812.24,843.4a9.21,9.21,0,0,1-.78-2c-.45-1.28-1-3.16-1.75-5.49-1.41-4.64-3.13-11.14-5-18.3s-3.68-13.62-5.16-18.24c-.73-2.31-1.33-4.17-1.8-5.41a9.46,9.46,0,0,1-.59-2,9.17,9.17,0,0,1,.9,1.9c.54,1.26,1.25,3.1,2,5.42,1.63,4.58,3.55,11,5.41,18.2s3.49,13.48,4.76,18.36l1.48,5.56A10.71,10.71,0,0,1,1812.24,843.4Z"/><path class="cls-3" d="M1871.89,822.48a13.24,13.24,0,0,1-2.41.67c-1.55.38-3.8.91-6.56,1.68-5.53,1.47-13.1,3.78-21.34,6.69s-15.58,5.88-20.83,8.17c-2.64,1.13-4.75,2.1-6.21,2.76a12.51,12.51,0,0,1-2.3.95,15,15,0,0,1,2.15-1.27c1.41-.75,3.49-1.8,6.1-3,5.19-2.44,12.53-5.51,20.74-8.44a220.18,220.18,0,0,1,21.49-6.44c2.79-.69,5.07-1.13,6.65-1.41A14.26,14.26,0,0,1,1871.89,822.48Z"/><path class="cls-3" d="M1796,915.77a4.29,4.29,0,0,1-.53-.68c-.38-.56-.84-1.24-1.39-2.07-1.2-1.8-2.88-4.43-4.9-7.72-4-6.58-9.35-15.85-15.06-26.16s-10.92-19.61-14.82-26.26l-4.65-7.87-1.25-2.16a.41.41,0,0,1-.55-.25.44.44,0,0,1,.25-.56.44.44,0,0,1,.56.26.42.42,0,0,1-.11.46l1.4,2.06c1.2,1.81,2.87,4.44,4.89,7.73,4,6.58,9.34,15.84,15.06,26.16s10.91,19.6,14.82,26.26l4.65,7.87c.49.9.9,1.57,1.25,2.15A3,3,0,0,1,1796,915.77Z"/><path class="cls-3" d="M1873.55,876.92a4.44,4.44,0,0,1-.75.46l-2.25,1.15-8.31,4.18c-7,3.52-16.64,8.51-27.27,14s-20.32,10.43-27.4,13.81c-3.55,1.7-6.42,3-8.43,3.92l-2.32,1a3.63,3.63,0,0,1-.84.29,3.14,3.14,0,0,1,.77-.46l2.24-1.16,8.3-4.18c7-3.52,16.64-8.5,27.28-14s20.31-10.42,27.39-13.8c3.55-1.7,6.42-3,8.44-3.93l2.31-1A3.63,3.63,0,0,1,1873.55,876.92Z"/><path class="cls-5" d="M1322.85,495.38s-13.6,3.3-2.82,32.7,19,44.29,19,44.29,1.72,6.73-3.81,7.07-17.22-3-20.43,3.34c-3.33,6.57.9,13.65,10.3,20.55s29.52,22.8,31.34,24.25,3.33,4.64-.39,5.48-30.87.39-30.32,13.28,30,27.82,33.17,29.51,3.81,3.21,3.32,5-9.6.79-17.33,1-16.64,1.81-15.7,9.17,17.35,24.72,61.09,34.42l20.57,3.16,13.35-16.07c26.45-36.16,27.35-60,23.17-66.18s-11.92-1.49-17.85,3.47-12.1,11.73-13.66,10.7-2.09-2.58-.81-6,13.53-34,5.41-44.07-28.19,8.2-31.57,10-4.3-1.62-3.9-3.86,5-27.48,7.54-38.89,1-19.5-5.83-22.24c-6.59-2.64-13.17,7.59-17.55,11s-7.53-2.81-7.53-2.81-3.72-16.55-15-45.75-24-22.48-24-22.48"/><path class="cls-3" d="M1411.23,733.58c-8.22-21.47-22.19-59.89-34.35-92.82s-23.18-62.69-31.3-84.21l-9.64-25.46-2.61-6.93c-.28-.78-.51-1.38-.67-1.8a4.75,4.75,0,0,1-.2-.63s.1.2.26.6.42,1,.74,1.8c.63,1.61,1.55,3.92,2.7,6.89,2.36,6,5.72,14.66,9.82,25.4,8.22,21.47,19.34,51.24,31.49,84.16s26.07,71.35,34.18,92.9"/><path class="cls-3" d="M1330.87,588.11a8,8,0,0,1,1.39.58c.9.41,2.12,1,3.67,1.8,3.07,1.57,7.28,3.86,11.86,6.45l11.72,6.7,3.61,2a7.54,7.54,0,0,1,1.28.78,6.42,6.42,0,0,1-1.39-.56c-.91-.41-2.13-1-3.67-1.81-3.06-1.6-7.21-3.94-11.81-6.54l-11.73-6.61-3.61-2A6.2,6.2,0,0,1,1330.87,588.11Z"/><path class="cls-3" d="M1365.92,605.3c-.16-.08,4.16-8.95,9.64-19.79s10.07-19.59,10.23-19.51-4.16,8.94-9.65,19.8S1366.08,605.38,1365.92,605.3Z"/><path class="cls-3" d="M1382.32,656.69a7,7,0,0,1,1-1.18l2.85-3c2.41-2.58,5.71-6.16,9.21-10.23s6.56-7.87,8.74-10.63c1-1.3,1.9-2.4,2.6-3.27a6.23,6.23,0,0,1,1-1.16,8.31,8.31,0,0,1-.81,1.3c-.56.82-1.38,2-2.44,3.41-2.09,2.83-5.09,6.68-8.61,10.77s-6.88,7.63-9.37,10.13c-1.25,1.24-2.28,2.24-3,2.9A6.64,6.64,0,0,1,1382.32,656.69Z"/><path class="cls-3" d="M1347.19,648.13a6.05,6.05,0,0,1,1.41.18l3.78.77c3.19.68,7.59,1.65,12.43,2.77s9.23,2.16,12.38,2.95l3.75,1a5.9,5.9,0,0,1,1.35.43,6.14,6.14,0,0,1-1.41-.19l-3.78-.77c-3.19-.67-7.59-1.65-12.43-2.76s-9.23-2.16-12.39-3l-3.74-1A5.77,5.77,0,0,1,1347.19,648.13Z"/><path class="cls-3" d="M1355.9,695.33a9.1,9.1,0,0,1,1.8.27l4.85,1c4.09.84,9.74,2,16,3.41s11.85,2.66,15.92,3.61l4.81,1.17a10.48,10.48,0,0,1,1.74.5,9.89,9.89,0,0,1-1.8-.26l-4.86-1c-4.09-.84-9.73-2-16-3.41s-11.86-2.65-15.92-3.61l-4.81-1.17A9.38,9.38,0,0,1,1355.9,695.33Z"/><path class="cls-3" d="M1400,704.71a12.69,12.69,0,0,1,1.22-1.52l3.48-4c2.93-3.38,7-8.07,11.26-13.35s8.12-10.19,10.82-13.74l3.21-4.21a12,12,0,0,1,1.24-1.51,11.68,11.68,0,0,1-1,1.65c-.7,1-1.74,2.53-3.05,4.34-2.62,3.61-6.31,8.57-10.66,13.87s-8.41,9.93-11.42,13.25c-1.52,1.65-2.76,3-3.61,3.87A10.32,10.32,0,0,1,1400,704.71Z"/><path class="cls-6" d="M1849.81,938.42c0,.18-117.32.32-262,.32s-262.09-.09-262.09-.32,117.27-.31,262-.31S1849.81,938.25,1849.81,938.42Z"/><path class="cls-1" d="M1793.08,436.79h-35.33a8.79,8.79,0,0,0-8.58,9v6.4a8.77,8.77,0,0,1-8.56,9h-68.89a8.79,8.79,0,0,1-8.57-9v-6.41a8.79,8.79,0,0,0-8.58-9h-43.35a27.81,27.81,0,0,0-27.82,27.79l-.08,446a27.79,27.79,0,0,0,27.77,27.81h0l181.87.1a27.8,27.8,0,0,0,27.82-27.79h0l.08-445.94a27.8,27.8,0,0,0-27.71-27.89Z"/><path class="cls-6" d="M1793.08,436.8h1a18.88,18.88,0,0,1,2.81.21,26.18,26.18,0,0,1,10.43,3.61,26.78,26.78,0,0,1,6.32,5.14,27.74,27.74,0,0,1,5.29,8.3,28.89,28.89,0,0,1,2.08,11.29v13.1c0,37.06.06,90.65.09,156.88s0,145.08,0,232.64v41.67a29.63,29.63,0,0,1-1.06,8.48,28.12,28.12,0,0,1-3.55,7.83,29.81,29.81,0,0,1-5.8,6.43,28,28,0,0,1-16.05,6.23c-5.83.18-11.62,0-17.47.09h-164a29.37,29.37,0,0,1-18.1-5,28.46,28.46,0,0,1-11-15.23,30.74,30.74,0,0,1-1.16-9.4V652.36c0-43.79,0-85.41.06-124.35V464.92c0-1.11.1-2.25.16-3.37s.29-2.24.57-3.31a28.1,28.1,0,0,1,28.52-21.83h41.61a8.89,8.89,0,0,1,5.46,1.53,9.15,9.15,0,0,1,3.41,4.51,14.61,14.61,0,0,1,.56,5.5v2.7a21.49,21.49,0,0,0,.08,2.66,9,9,0,0,0,2.08,4.65,8.28,8.28,0,0,0,4.25,2.63,9.19,9.19,0,0,0,2.51.25h12.62l36.66.05h16.17c1.27,0,2.57.06,3.78,0a8.16,8.16,0,0,0,3.41-1.2,8.81,8.81,0,0,0,3.89-5.6,15.21,15.21,0,0,0,.22-3.37v-3.33a18.46,18.46,0,0,1,.14-3.24,9.38,9.38,0,0,1,1-3,8.77,8.77,0,0,1,4.44-3.92c1.8-.79,3.77-.56,5.52-.6l18,.06h11.08c2.5,0,3.78,0,3.78,0H1760c-1.81.05-3.67-.18-5.41.6a8.49,8.49,0,0,0-4.31,3.81,9.71,9.71,0,0,0-1,2.9,18.92,18.92,0,0,0-.12,3.19v3.33a15.88,15.88,0,0,1-.22,3.44,9.11,9.11,0,0,1-4,5.82,8.64,8.64,0,0,1-3.54,1.25c-1.29.11-2.53,0-3.82.05h-65.25a9.52,9.52,0,0,1-2.61-.25,8.58,8.58,0,0,1-4.51-2.78,9.31,9.31,0,0,1-2.2-4.89,20.46,20.46,0,0,1-.09-2.71V447.8a14.06,14.06,0,0,0-.55-5.32,8.6,8.6,0,0,0-3.22-4.22,8.29,8.29,0,0,0-5.18-1.43h-41.61a27.5,27.5,0,0,0-27.94,21.39c-.28,1.07-.36,2.17-.56,3.25,0,1.1-.13,2.19-.14,3.31V909a30,30,0,0,0,1.13,9.18,27.69,27.69,0,0,0,10.71,14.8,28.54,28.54,0,0,0,17.66,4.86h56l72.65,0h35.42c5.83,0,11.72.1,17.43-.07a27.29,27.29,0,0,0,15.62-6.06,29.73,29.73,0,0,0,5.65-6.25,27.73,27.73,0,0,0,3.45-7.62,29.36,29.36,0,0,0,1.05-8.28V867.92c0-87.56.1-166.41.13-232.64s.12-119.82.15-156.87V465.3a28.38,28.38,0,0,0-2-11.19,27.89,27.89,0,0,0-21.86-17.05,20.39,20.39,0,0,0-2.81-.26Z"/><path class="cls-6" d="M1628.42,481.82c0,.12-4.59.26-10.26.31s-10.26,0-10.27-.14,4.6-.25,10.26-.3S1628.42,481.7,1628.42,481.82Z"/><path class="cls-6" d="M1628.46,487.08c0,.11-4.59.25-10.26.3s-10.27,0-10.27-.13,4.59-.26,10.27-.31S1628.46,487,1628.46,487.08Z"/><path class="cls-6" d="M1628.51,492.33c0,.11-4.6.25-10.27.29s-10.26,0-10.26-.12,4.59-.25,10.26-.31S1628.51,492.21,1628.51,492.33Z"/><rect class="cls-4" x="1604.43" y="825.68" width="91.39" height="91.39"/><path class="cls-7" d="M1685,878c-7.43-10.38-23.24-17.49-36.08-15.59-10.4,1.56-19.6,6.39-24.65,16.72a4.71,4.71,0,0,0,2.1,6.31,4.78,4.78,0,0,0,1.51.45,213.77,213.77,0,0,0,52.17-.18c2.7-.33,5.84-1.07,6-4.37A5.35,5.35,0,0,0,1685,878Z"/><g class="cls-8"><path class="cls-1" d="M1685,878c-7.43-10.38-23.24-17.49-36.08-15.59-10.4,1.56-19.6,6.39-24.65,16.72"/></g><path class="cls-4" d="M1644,877.45c-.06,0-.59-.48-1.31-1.45a11.94,11.94,0,0,1-2-4.32,21.12,21.12,0,0,1-.38-4.7,6,6,0,0,1,.15-1.94,6,6,0,0,1,.29,1.93,37.42,37.42,0,0,0,.56,4.58,14.84,14.84,0,0,0,1.73,4.2A8,8,0,0,1,1644,877.45Z"/><path class="cls-4" d="M1655,876.94c-.19,0,.09-3-.29-6.54s-1.25-6.38-1.07-6.45,1.32,2.71,1.7,6.39S1655.14,877,1655,876.94Z"/><path class="cls-4" d="M1666.37,875.26c-.18-.08.68-2,.9-4.62s-.27-4.68-.08-4.72,1,2.05.71,4.77S1666.5,875.35,1666.37,875.26Z"/><g class="cls-9"><path d="M1653,862.88s.07.13.1.18h0Z"/></g><g class="cls-9"><path d="M1639.34,865.49"/></g><rect class="cls-4" x="1604.43" y="530.2" width="92.46" height="138.61"/><rect class="cls-4" x="1604.43" y="679.27" width="92.46" height="138.61"/><rect class="cls-4" x="1705.69" y="653.1" width="92.46" height="129.4"/><rect class="cls-4" x="1704.95" y="791.6" width="92.46" height="125.47"/><rect class="cls-4" x="1705.69" y="530.2" width="92.46" height="114.49"/><path class="cls-10" d="M1665.18,571.66v38.42c0,1.68-1.35,3.42-3.84,4.73a23.31,23.31,0,0,1-10.65,2.22h-.06c-9.08,0-14.5-3.61-14.5-6.95V571.59c0-3.75,2.78-7.67,5.55-11.54,1.87-2.58,2.31-6.31,2.4-8.49v-.7h-.26a2,2,0,0,1-2.16-1.86v-1.62a2,2,0,0,1,2.16-1.87h13.63a2.21,2.21,0,0,1,2,1.14,1.69,1.69,0,0,1,.16.73V549a2,2,0,0,1-2.17,1.86h-.25v.71c.09,2.18.53,5.9,2.4,8.48,2.78,3.87,5.53,7.79,5.55,11.54A.12.12,0,0,1,1665.18,571.66Z"/><path class="cls-6" d="M1665.18,571.66v-.39a7.42,7.42,0,0,0-.15-1.14,14.88,14.88,0,0,0-1.6-4.14,56.17,56.17,0,0,0-4-5.94c-1.64-2.35-2.34-5.64-2.42-9.19v-.23h.2a1.94,1.94,0,0,0,2.19-1.45v-1.63a1.54,1.54,0,0,0-.56-1.34,2.12,2.12,0,0,0-1.47-.48h-13.33a2.17,2.17,0,0,0-1.68.59,1.51,1.51,0,0,0-.4.77,8.34,8.34,0,0,0,0,1v1a1.54,1.54,0,0,0,.38.79,2.15,2.15,0,0,0,1.75.62h.29v.3a23.81,23.81,0,0,1-.52,4.69,13,13,0,0,1-1.8,4.51c-1.85,2.7-3.9,5.34-5,8.51a10.14,10.14,0,0,0-.54,2.44v37.58a12.43,12.43,0,0,0,.1,2.2,4.37,4.37,0,0,0,1,1.8,10.42,10.42,0,0,0,3.53,2.41,23.93,23.93,0,0,0,8.27,1.69,28.6,28.6,0,0,0,8-.72,12.71,12.71,0,0,0,6.55-3.51,4.38,4.38,0,0,0,.85-1.5,6,6,0,0,0,.14-1.74V599c0-8.44.08-15.28.11-20,0-2.34,0-4.17,0-5.41s.06-1.91.06-1.91a13.5,13.5,0,0,1,.07,1.91c0,1.28,0,3.11.06,5.41,0,4.77.06,11.61.1,20v10.17a5.94,5.94,0,0,1-.15,1.88,5,5,0,0,1-.9,1.7,13.2,13.2,0,0,1-6.82,3.71,29.42,29.42,0,0,1-8.2.77,24.17,24.17,0,0,1-8.48-1.73,10.72,10.72,0,0,1-3.76-2.55,4.8,4.8,0,0,1-1.15-2.08,12.16,12.16,0,0,1-.13-2.34V571a10.36,10.36,0,0,1,.57-2.58c1.18-3.31,3.28-6,5.13-8.65s2.18-5.9,2.26-8.87l.29.29a2.71,2.71,0,0,1-2.17-.81,2,2,0,0,1-.51-1.1v-1.1a9.91,9.91,0,0,1,0-1.09,2,2,0,0,1,.54-1,2.71,2.71,0,0,1,2.08-.76h13.33a2.57,2.57,0,0,1,1.8.6,2,2,0,0,1,.71,1.69v1.69a2.37,2.37,0,0,1-2.61,1.8l.21-.21a16.23,16.23,0,0,0,2.28,9,55,55,0,0,1,3.87,6,14.19,14.19,0,0,1,1.52,4.23,8.93,8.93,0,0,1,.1,1.16A2.54,2.54,0,0,1,1665.18,571.66Z"/><path class="cls-6" d="M1656.46,550.78c0,.17-2.7.31-6.07.31s-6.07-.14-6.07-.31,2.71-.33,6.07-.33S1656.46,550.59,1656.46,550.78Z"/><path class="cls-7" d="M1664,576.78c-1.22-.79-2.84-.44-4.15.18a15.49,15.49,0,0,1-4,1.73,7.7,7.7,0,0,1-4.87-1.25,29.85,29.85,0,0,0-4.51-2.46,8.78,8.78,0,0,0-9,2.14v32.93s1.8,5.62,14.54,4.74,11.73-6.51,11.73-6.51Z"/><path class="cls-10" d="M1762.41,838.27v38.14c0,1.67-1.34,3.4-3.82,4.71a23.14,23.14,0,0,1-10.58,2.21H1748c-9,0-14.43-3.61-14.43-6.92V838.2c0-3.73,2.75-7.61,5.51-11.46,1.81-2.57,2.29-6.26,2.38-8.43v-.7h-.25a2,2,0,0,1-2.14-1.81v-1.63a2,2,0,0,1,2.14-1.85h13.53a2.2,2.2,0,0,1,2,1.12,1.84,1.84,0,0,1,.16.73v1.61a2,2,0,0,1-2.16,1.81h-.24v.7c.09,2.18.53,5.87,2.38,8.44,2.76,3.84,5.49,7.73,5.51,11.45C1762.42,838.23,1762.41,838.25,1762.41,838.27Z"/><path class="cls-6" d="M1762.41,838.27v-.39a7.14,7.14,0,0,0-.15-1.13,14.57,14.57,0,0,0-1.6-4.12,58.94,58.94,0,0,0-3.91-5.89c-1.63-2.33-2.33-5.6-2.41-9.13v-.23h.22a1.93,1.93,0,0,0,2.16-1.44v-1.62a1.51,1.51,0,0,0-.55-1.33,2.14,2.14,0,0,0-1.46-.47H1741.5a2.15,2.15,0,0,0-1.66.59,1.44,1.44,0,0,0-.4.76,8.17,8.17,0,0,0,0,1v1a1.4,1.4,0,0,0,.38.79,2.14,2.14,0,0,0,1.73.61h.29v.3a23.49,23.49,0,0,1-.52,4.65,12.6,12.6,0,0,1-1.8,4.51c-1.8,2.64-3.88,5.31-5,8.45a10.57,10.57,0,0,0-.53,2.42V875a12.36,12.36,0,0,0,.1,2.19,4.24,4.24,0,0,0,1,1.8,9.9,9.9,0,0,0,3.51,2.38,23.57,23.57,0,0,0,8.21,1.7,28.93,28.93,0,0,0,8-.72,12.62,12.62,0,0,0,6.51-3.48,4.5,4.5,0,0,0,.84-1.51,5.48,5.48,0,0,0,.15-1.71V865.51c0-8.38.08-15.18.1-19.91,0-2.33,0-4.14.06-5.42s0-1.89,0-1.89a14.94,14.94,0,0,1,.08,1.89c0,1.28,0,3.09.06,5.42,0,4.73,0,11.53.1,19.91v10.12a5.57,5.57,0,0,1-.16,1.86,4.76,4.76,0,0,1-.9,1.69,13.15,13.15,0,0,1-6.78,3.69,29.19,29.19,0,0,1-8.12.76,24.34,24.34,0,0,1-8.43-1.72,10.69,10.69,0,0,1-3.73-2.53,4.87,4.87,0,0,1-1.15-2.07,11.35,11.35,0,0,1-.12-2.33v-37.4a10.73,10.73,0,0,1,.56-2.57c1.18-3.29,3.26-6,5.09-8.6s2.18-5.85,2.25-8.8l.29.29a2.7,2.7,0,0,1-2.15-.81,1.94,1.94,0,0,1-.51-1.1v-1.08a9.73,9.73,0,0,1,0-1.08,2,2,0,0,1,.54-1.05,2.68,2.68,0,0,1,2.06-.75h13.21a2.7,2.7,0,0,1,1.81.61,2,2,0,0,1,.7,1.67V816a2.37,2.37,0,0,1-2.6,1.81l.21-.21c0,3.47.71,6.68,2.26,8.95a53.41,53.41,0,0,1,3.85,6,13.91,13.91,0,0,1,1.38,4.2,7.46,7.46,0,0,1,.1,1.16C1762.45,838.15,1762.43,838.27,1762.41,838.27Z"/><path class="cls-6" d="M1753.75,817.52c0,.17-2.71.31-6,.31s-6-.14-6-.31,2.7-.32,6-.32S1753.75,817.35,1753.75,817.52Z"/><path class="cls-7" d="M1761.21,843.37c-1.22-.79-2.83-.44-4.14.17a15.22,15.22,0,0,1-4,1.71,7.61,7.61,0,0,1-4.84-1.23,30.7,30.7,0,0,0-4.51-2.45,8.72,8.72,0,0,0-9,2.12v32.72s1.8,5.58,14.43,4.7,11.66-6.46,11.66-6.46Z"/><g class="cls-8"><path class="cls-1" d="M1761.21,843.37c-1.22-.79-2.83-.44-4.14.17a15.22,15.22,0,0,1-4,1.71,7.61,7.61,0,0,1-4.84-1.23,30.7,30.7,0,0,0-4.51-2.45,8.72,8.72,0,0,0-9,2.12v32.72s1.8,5.58,14.43,4.7,11.66-6.46,11.66-6.46Z"/></g><path class="cls-7" d="M1782.24,699.79a2.72,2.72,0,0,0-2.56.3,6.81,6.81,0,0,0-.56.42,35,35,0,0,1-21.39,6.85c-15,0-27.36-8.39-29.57-19.35v-2.07a1.5,1.5,0,0,0-3,0v5.8a1.42,1.42,0,0,0,.08.4,18.11,18.11,0,0,0-1.59,7.21c0,12.63,13.41,22.93,30,22.93,13.89,0,25.6-7.22,29-17.06a.26.26,0,0,0,.07-.15,6.1,6.1,0,0,0,.64-2.52A2.86,2.86,0,0,0,1782.24,699.79Z"/><g class="cls-9"><path d="M1727,693.67s14.1,32.47,52.31,9.7c0,0-9.85,10.23-22.7,12.72C1745.06,718.34,1727.83,711.79,1727,693.67Z"/></g><path class="cls-6" d="M1783.29,701.42c-.24.56-1.16.71-2,.33s-1.42-1.14-1.18-1.7,1.15-.72,2-.34S1783.52,700.87,1783.29,701.42Z"/><path class="cls-6" d="M1797.54,492.15h-1.2l-3.2,0-10.76.1h-.09v-.09c-.09-.57-.17-1.17-.26-1.8-.75-5.22-1.4-9.87-1.85-12.91l.08.05h-3.9a1.13,1.13,0,0,1,.26,0h.77l2.86,0h.06v.05l1.91,12.9c.09.61.18,1.21.26,1.8l-.1-.09h14.86A1,1,0,0,1,1797.54,492.15Z"/><path class="cls-6" d="M1782,489.06h4.44l11.16-.1-.09.08c.31-1.88.66-3.91,1-6,.19-1.08.37-2.15.54-3.16l.1.12h-17.05l3.9-.06,13.15-.1h.11v.11c-.17,1-.35,2.08-.54,3.16-.36,2.1-.7,4.14-1,6v.08h-15.74Z"/><path class="cls-6" d="M1786.22,496.27a1.17,1.17,0,0,0-.08-.36,1.57,1.57,0,0,0-.56-.78,1.43,1.43,0,1,0-1.7,2.29,1.41,1.41,0,0,0,1.7,0,1.48,1.48,0,0,0,.55-.79,3.24,3.24,0,0,1,.08-.36.81.81,0,0,1,0,.38,1.56,1.56,0,0,1-.54.9,1.58,1.58,0,0,1-1.51.26,1.61,1.61,0,0,1-1-2.05,1.63,1.63,0,0,1,1-1,1.61,1.61,0,0,1,1.51.24,1.52,1.52,0,0,1,.55.91A.92.92,0,0,1,1786.22,496.27Z"/><path class="cls-6" d="M1796,496.21a1.23,1.23,0,0,0-.08-.36,1.62,1.62,0,0,0-.56-.78,1.47,1.47,0,0,0-1.36-.18,1.43,1.43,0,0,0,.55,2.75,1.41,1.41,0,0,0,.84-.28,1.5,1.5,0,0,0,.55-.78c.06-.23.06-.37.08-.37a.81.81,0,0,1,0,.38,1.56,1.56,0,0,1-.54.91,1.58,1.58,0,0,1-1.51.25,1.59,1.59,0,0,1,0-3,1.55,1.55,0,0,1,1.51.24,1.47,1.47,0,0,1,.55.9A.91.91,0,0,1,1796,496.21Z"/><circle class="cls-7" cx="1798.25" cy="478.23" r="4.31" transform="translate(-60.42 390.17) rotate(-12.18)"/><path class="cls-1" d="M1798.78,476.6v3.28H1798v-2.71h-.65v-.61Z"/><rect class="cls-7" x="1622.19" y="875.23" width="159.69" height="41.92" rx="12.52"/><g class="cls-9"><rect x="1622.19" y="875.23" width="159.69" height="41.92" rx="12.52"/></g><rect class="cls-7" x="1615.99" y="875.23" width="159.69" height="41.92" rx="12.52"/><path class="cls-1" d="M1691.05,893.88c0,2.15-1.56,3.46-4.14,3.46h-2.44v3h-1.42v-9.92h3.86C1689.48,890.43,1691.05,891.74,1691.05,893.88Zm-1.41,0c0-1.41-1-2.23-2.76-2.23h-2.41v4.45h2.41c1.79,0,2.74-.8,2.74-2.22Z"/><path class="cls-1" d="M1698.93,897.86h-5.26l-1.09,2.48h-1.46l4.51-9.92h1.4l4.51,9.92h-1.49Zm-.49-1.14-2.14-4.85-2.13,4.85Z"/><path class="cls-1" d="M1706.18,896.91v3.43h-1.4v-3.45l-3.94-6.46h1.52l3.17,5.22,3.19-5.22h1.39Z"/><path class="cls-11" d="M1653.75,726.44a17.92,17.92,0,0,0-15-20.44l-.13,0a1.68,1.68,0,0,0-1.28.15,1.77,1.77,0,0,0-.48,1.72,21.63,21.63,0,0,0,16.83,19.1"/><path class="cls-7" d="M1628.64,759.5c4.51,9.31,11,15.59,19.06,15.88,1.61.07,2.83-1,4.36-1.09a9.61,9.61,0,0,1,2.58,1,3.58,3.58,0,0,0,1.33.3c8.32-.45,15.4-6.31,20.17-16.07,6.65-13.7,4.6-28.42-4.57-32.88a21,21,0,0,0-3.76-1.47,15.27,15.27,0,0,0-4.51-.53c-2.82,0-6.06.82-10.43,2.35l-.44.16c-7.46-3.29-13.41-3.31-19.19-.51C1624,731.08,1622,745.8,1628.64,759.5Z"/><path class="cls-10" d="M1628.81,745.62a7,7,0,0,1-.76-2.76,14.82,14.82,0,0,1,4.65-12.63,7.13,7.13,0,0,1,2.38-1.6c.06.09-.91.69-2.06,1.91a16.1,16.1,0,0,0-4.51,12.23C1628.6,744.54,1628.91,745.62,1628.81,745.62Z"/><path class="cls-10" d="M1630.48,752.13c-.17,0-.46-.61-.65-1.44s-.21-1.55,0-1.59.46.61.65,1.44S1630.62,752.09,1630.48,752.13Z"/><path class="cls-6" d="M1672.7,704c0,.11-1.72.77-4.3,2.32a34.12,34.12,0,0,0-14.57,17.8c-1,2.83-1.3,4.7-1.42,4.67a5.39,5.39,0,0,1,.14-1.32,13,13,0,0,1,.3-1.51c.16-.59.3-1.27.55-2a30.63,30.63,0,0,1,2.07-5,34.35,34.35,0,0,1,3.61-5.48,35.15,35.15,0,0,1,4.65-4.64,31.75,31.75,0,0,1,4.45-3,17.86,17.86,0,0,1,1.8-.91,12.72,12.72,0,0,1,1.43-.6A5.22,5.22,0,0,1,1672.7,704Z"/><path class="cls-7" d="M1785.49,576.57c-7.43-10.38-23.24-17.49-36.08-15.59-10.4,1.55-19.6,6.39-24.65,16.71a4.7,4.7,0,0,0,2.1,6.31,4.8,4.8,0,0,0,1.51.46,214.77,214.77,0,0,0,52.17-.18c2.7-.33,5.84-1.07,6-4.38A5.33,5.33,0,0,0,1785.49,576.57Z"/><path class="cls-6" d="M1744.4,576a5.39,5.39,0,0,1-1.31-1.46,11.82,11.82,0,0,1-2-4.31,21.16,21.16,0,0,1-.38-4.7,6.34,6.34,0,0,1,.15-1.94,6,6,0,0,1,.29,1.92,37,37,0,0,0,.56,4.58,15,15,0,0,0,1.73,4.21A8,8,0,0,1,1744.4,576Z"/><path class="cls-6" d="M1755.42,575.55c-.19,0,.09-3-.29-6.54s-1.25-6.39-1.07-6.45,1.32,2.71,1.7,6.39S1755.59,575.58,1755.42,575.55Z"/><path class="cls-6" d="M1766.83,573.86c-.18-.07.68-2,.9-4.62s-.26-4.67-.08-4.71.95,2,.71,4.77A8.43,8.43,0,0,1,1766.83,573.86Z"/><g class="cls-9"><path d="M1753.4,561.48s.07.12.1.18h0Z"/></g><g class="cls-9"><path d="M1753.5,561.66a11,11,0,0,0,1.81,13.05A17.94,17.94,0,0,0,1753.5,561.66Z"/></g><g class="cls-9"><path d="M1739.76,564.09"/></g><g class="cls-9"><path d="M1742.9,574.23a16.82,16.82,0,0,1-2.06-6.94,10.77,10.77,0,0,0-.48-3.19,8.07,8.07,0,0,0,1.05,11.19,1.82,1.82,0,0,0,.84.48.81.81,0,0,0,.91-.31C1743.37,575.07,1743.11,574.6,1742.9,574.23Z"/></g><g class="cls-9"><path d="M1767.82,565.49h0a3.5,3.5,0,0,0-.36-1.19,1.08,1.08,0,0,0-1-.56c-.58.1-.9.74-1,1.3-.77,2.45-1.45,5.08-.84,7.58.14.57.51,1.25,1.1,1.21s.76-.47,1-.9A12.35,12.35,0,0,0,1767.82,565.49Z"/></g><path class="cls-6" d="M1626.11,643.47v1.12h-.83v-1.14a4.46,4.46,0,0,1-2.51-.85l.46-1a4,4,0,0,0,2,.77v-2c-1.14-.28-2.36-.65-2.36-2.06,0-1,.76-2,2.36-2.1V635h.83v1.14a4.34,4.34,0,0,1,2.07.62l-.41,1a4.29,4.29,0,0,0-1.66-.55v2.06c1.14.27,2.37.64,2.37,2.05C1628.46,642.41,1627.7,643.31,1626.11,643.47Zm-.83-4.37v-1.8c-.73.11-1,.48-1,.9s.43.73,1,.9Zm1.89,2.36c0-.5-.45-.73-1.06-.9v1.8c.73-.12,1.05-.48,1.05-.9Z"/><path class="cls-6" d="M1634.56,636.25v7.14h-1.33v-6h-1.51v-1.12Z"/><path class="cls-6" d="M1637.61,642.61a2.6,2.6,0,0,1-.23.91l-.53,1.44H1636l.41-1.56a.78.78,0,0,1-.48-.76.83.83,0,1,1,1.65-.17.49.49,0,0,1,0,.17Z"/><path class="cls-6" d="M1643.66,641.2c0,1.25-.9,2.29-2.82,2.29a4.58,4.58,0,0,1-2.71-.82l.56-1a3.32,3.32,0,0,0,2.1.7c1,0,1.52-.41,1.52-1.09s-.44-1.11-1.92-1.11h-1.72l.36-3.88h4.22v1.12h-3.08L1640,639h.68C1642.81,639,1643.66,639.93,1643.66,641.2Z"/><path class="cls-6" d="M1644.43,639.82c0-2.35,1.29-3.67,3-3.67s3,1.32,3,3.67-1.29,3.67-3,3.67S1644.43,642.16,1644.43,639.82Zm4.64,0c0-1.73-.68-2.52-1.66-2.52s-1.65.79-1.65,2.52.68,2.51,1.65,2.51,1.66-.79,1.66-2.51Z"/><path class="cls-6" d="M1679.91,652.49c0,.17-13.09.32-29.24.32s-29.25-.15-29.25-.32,13.09-.31,29.25-.31S1679.91,652.31,1679.91,652.49Z"/><path class="cls-6" d="M1648.66,657.22c0,.17-6.08.31-13.53.31s-13.59-.14-13.59-.31,6.08-.32,13.59-.32S1648.66,657.07,1648.66,657.22Z"/><path class="cls-6" d="M1728.6,614.27v1.15h-.84v-1.14a4.5,4.5,0,0,1-2.5-.85l.46-1a3.88,3.88,0,0,0,2,.78v-2c-1.13-.28-2.35-.64-2.35-2.06,0-1,.76-2,2.35-2.11V605.8h.84v1.13a4.58,4.58,0,0,1,2.07.62l-.42,1a4.41,4.41,0,0,0-1.65-.55v2.07c1.13.27,2.37.63,2.37,2C1731,613.21,1730.2,614.11,1728.6,614.27Zm-.84-4.36V608.1c-.72.11-1,.48-1,.9S1727.14,609.73,1727.76,609.91Zm1.9,2.35c0-.5-.45-.73-1.06-.9v1.8c.75-.14,1.06-.46,1.06-.9Z"/><path class="cls-6" d="M1739.76,613.07v1.12h-5.25v-.9l2.83-2.71c.69-.66.81-1.08.81-1.48,0-.65-.44-1-1.33-1a2,2,0,0,0-1.67.73l-.9-.71a3.34,3.34,0,0,1,2.71-1.18c1.55,0,2.55.79,2.55,2.05a2.85,2.85,0,0,1-1.19,2.25l-1.9,1.81Z"/><path class="cls-6" d="M1742.27,613.42a2.35,2.35,0,0,1-.23.9l-.53,1.44h-.84l.41-1.56a.81.81,0,0,1-.49-.76.83.83,0,0,1,.83-.83.81.81,0,0,1,.83.82h0Z"/><path class="cls-6" d="M1748.41,613.07v1.12h-5.27v-.9l2.83-2.71c.69-.66.82-1.08.82-1.48,0-.65-.45-1-1.32-1a2,2,0,0,0-1.68.73l-.9-.71a3.31,3.31,0,0,1,2.7-1.18c1.55,0,2.55.79,2.55,2.05a2.8,2.8,0,0,1-1.16,2.24l-1.91,1.81Z"/><path class="cls-6" d="M1754.37,612c0,1.25-.9,2.29-2.83,2.29a4.51,4.51,0,0,1-2.71-.82l.56-1a3.33,3.33,0,0,0,2.1.71c.9,0,1.51-.42,1.51-1.09s-.44-1.12-1.92-1.12h-1.72l.36-3.88h4.2v1.12h-3.07l-.15,1.65h.68C1753.52,609.82,1754.37,610.74,1754.37,612Z"/><path class="cls-6" d="M1782.42,623.29c0,.17-13.1.32-29.25.32s-29.25-.15-29.25-.32,13.09-.31,29.25-.31S1782.42,623.12,1782.42,623.29Z"/><path class="cls-6" d="M1751.17,628.06c0,.17-6.07.31-13.57.31s-13.59-.14-13.59-.31,6.08-.32,13.59-.32S1751.17,627.88,1751.17,628.06Z"/><path class="cls-6" d="M1623.75,791.68v1.15h-.83v-1.14a4.41,4.41,0,0,1-2.49-.84l.46-1a3.84,3.84,0,0,0,2,.77v-2c-1.13-.27-2.34-.64-2.34-2,0-1,.75-2,2.34-2.11v-1.15h.83v1.16a4.47,4.47,0,0,1,2.08.63l-.42,1a4.18,4.18,0,0,0-1.66-.55v2.06c1.14.28,2.38.63,2.38,2C1626.11,790.63,1625.36,791.52,1623.75,791.68Zm-.83-4.36v-1.81c-.72.11-1,.48-1,.9S1622.33,787.11,1622.92,787.32Zm1.9,2.36c0-.5-.45-.74-1.07-.9v1.8C1624.5,790.46,1624.82,790.11,1624.82,789.68Z"/><path class="cls-6" d="M1629.72,788c0-2.34,1.29-3.67,3-3.67s3,1.33,3,3.67-1.29,3.68-3,3.68S1629.72,790.38,1629.72,788Zm4.63,0c0-1.72-.67-2.52-1.66-2.52s-1.64.8-1.64,2.52.68,2.53,1.64,2.53,1.7-.79,1.7-2.53Z"/><path class="cls-6" d="M1638.13,790.83a2.54,2.54,0,0,1-.23.9l-.52,1.43h-.83l.38-1.54a.78.78,0,0,1-.47-.76.83.83,0,1,1,1.65-.17v.17Z"/><path class="cls-6" d="M1644.15,789.41c0,1.25-.9,2.3-2.82,2.3a4.52,4.52,0,0,1-2.71-.83l.56-1a3.45,3.45,0,0,0,2.1.71c1,0,1.52-.43,1.52-1.1s-.45-1.11-1.92-1.11h-1.73l.37-3.89h4.2v1.12h-3.08l-.15,1.65h.68C1643.34,787.23,1644.15,788.15,1644.15,789.41Z"/><path class="cls-6" d="M1645,788c0-2.34,1.29-3.67,3-3.67s3,1.33,3,3.67-1.29,3.68-3,3.68S1645,790.38,1645,788Zm4.64,0c0-1.72-.68-2.52-1.66-2.52s-1.64.8-1.64,2.52.67,2.53,1.64,2.53,1.63-.79,1.63-2.53Z"/><path class="cls-6" d="M1677.59,800.7c0,.18-13.1.32-29.26.32s-29.25-.14-29.25-.32,13.09-.31,29.25-.31S1677.59,800.53,1677.59,800.7Z"/><path class="cls-6" d="M1646.34,805.47c0,.18-6.09.31-13.58.31s-13.59-.13-13.59-.31,6.08-.32,13.59-.32S1646.34,805.29,1646.34,805.47Z"/><path class="cls-6" d="M1723.85,753v1.15H1723v-1.14a4.41,4.41,0,0,1-2.5-.84l.45-1a4,4,0,0,0,2,.78v-2c-1.13-.27-2.34-.64-2.34-2.06,0-1,.75-2,2.34-2.1V744.6h.83v1.12a4.51,4.51,0,0,1,2.08.63l-.42,1a4.23,4.23,0,0,0-1.66-.55v2.06c1.14.28,2.37.63,2.37,2.05C1726.23,752,1725.46,752.88,1723.85,753Zm-.83-4.37v-1.8c-.73.11-1,.48-1,.9s.44.73,1,.9Zm1.9,2.37c0-.51-.45-.74-1.07-.9v1.8c.75-.12,1.07-.47,1.07-.91Z"/><path class="cls-6" d="M1732.32,745.81V753H1731v-6h-1.52v-1.12Z"/><path class="cls-6" d="M1735.37,752.18a2.49,2.49,0,0,1-.23.9l-.53,1.44h-.82l.41-1.56a.8.8,0,0,1-.48-.76.83.83,0,0,1,1.65-.17.49.49,0,0,1,0,.17Z"/><path class="cls-6" d="M1736.16,749.39c0-2.35,1.28-3.67,3-3.67s3,1.32,3,3.67-1.28,3.68-3,3.68S1736.16,751.74,1736.16,749.39Zm4.62,0c0-1.73-.66-2.52-1.65-2.52s-1.64.79-1.64,2.52.67,2.52,1.64,2.52,1.61-.8,1.61-2.52Z"/><path class="cls-6" d="M1743,749.39c0-2.35,1.29-3.67,3-3.67s3,1.32,3,3.67-1.29,3.68-3,3.68S1743,751.74,1743,749.39Zm4.63,0c0-1.73-.67-2.52-1.65-2.52s-1.65.79-1.65,2.52.68,2.52,1.65,2.52,1.65-.8,1.65-2.52Z"/><path class="cls-6" d="M1777.65,762.06c0,.18-13.11.32-29.25.32s-29.26-.14-29.26-.32,13.09-.32,29.26-.32S1777.65,761.85,1777.65,762.06Z"/><path class="cls-6" d="M1746.43,766.82c0,.17-6.08.32-13.58.32s-13.58-.15-13.58-.32,6.08-.31,13.58-.31S1746.43,766.65,1746.43,766.82Z"/><path class="cls-7" d="M1733.61,489.09c0,.18-14.11.32-31.57.32s-31.57-.14-31.57-.32,14.12-.32,31.57-.32S1733.61,488.92,1733.61,489.09Z"/><path class="cls-12" d="M1323,867.26a8.43,8.43,0,0,0-7.91,6.75,82.86,82.86,0,0,0-1.86,9.07s-7.15,6.43,0,8.12,9.77-7.91,9.77-7.91l1.1-16Z"/><path class="cls-7" d="M1394.58,744.19s22.34-75,24.61-78.24c3.76-5.34,39.92-21.41,39.92-21.41l9.69-19.8,60.11-9.6,14.88,19.17L1585.64,665l-2.91,106.1-1.55,74.08,8,92.48L1399,937.35l8.61-19.47,9-168.2Z"/><path class="cls-6" d="M1420.34,734.08a2.48,2.48,0,0,1-.07-.61c0-.46-.06-1-.09-1.74-.08-1.5-.14-3.69-.19-6.39-.1-5.41-.1-12.87.13-21.12s.67-15.7,1.08-21.09c.2-2.7.39-4.87.55-6.37.08-.7.14-1.27.19-1.74s.09-.6.11-.59a2,2,0,0,1,0,.6,16.4,16.4,0,0,1-.07,1.74c-.09,1.61-.21,3.77-.35,6.39-.3,5.41-.65,12.84-.9,21.08s-.3,15.7-.32,21.1v8.14A1.76,1.76,0,0,1,1420.34,734.08Z"/><g class="cls-9"><path d="M1463.4,712.51a3.62,3.62,0,0,1,.7-2.34,6,6,0,0,1,7.09-1.81c3.19,1.53,4.78,5.17,5.42,8.65.69,3.8.59,7.72,1.3,11.52s2.47,7.68,5.8,9.64c4.13,2.44,9.54,1.33,13.88,3.38,6.46,3,8,11.43,8.28,18.56.61,13.53,0,27.06-.56,40.53l-3.73,86.24-3.4,43.3-17.49,7.43-23.13-152Z"/></g><path class="cls-6" d="M1468.38,700.22a1.5,1.5,0,0,1-.45.24,3.11,3.11,0,0,1-1.48.15,5.09,5.09,0,0,1-4-3.48,9.32,9.32,0,0,1-.35-3.75,39.56,39.56,0,0,1,.7-4.2c.59-2.94,1.23-6.16,1.9-9.54,1.37-6.75,2.64-12.87,3.61-17.29.46-2.12.9-3.88,1.16-5.22a11.31,11.31,0,0,1,.5-1.9,10.65,10.65,0,0,1-.27,1.95c-.24,1.35-.56,3.12-1,5.26-.84,4.45-2,10.57-3.41,17.33l-1.95,9.51c-.61,2.94-1.19,5.6-.5,7.72a4.9,4.9,0,0,0,3.61,3.36A4.29,4.29,0,0,0,1468.38,700.22Z"/><path class="cls-6" d="M1474.57,672c0,.06-.5.06-1.33.32a6.15,6.15,0,0,0-2.93,2.06,5.23,5.23,0,0,0-.9,5,5.4,5.4,0,0,0,10.08.81,5.22,5.22,0,0,0-.1-5.08,6.13,6.13,0,0,0-2.57-2.5c-.77-.39-1.27-.46-1.26-.53a1.09,1.09,0,0,1,.36,0,3.83,3.83,0,0,1,1,.29,6,6,0,0,1,2.86,2.5,6.12,6.12,0,0,1,.85,2.54,5.53,5.53,0,0,1-.62,3,6,6,0,0,1-11.15-.91,5.47,5.47,0,0,1-.13-3.08,6.19,6.19,0,0,1,4.46-4.39,3.93,3.93,0,0,1,1-.13C1474.44,672,1474.57,672,1474.57,672Z"/><polygon class="cls-7" points="1495.02 749.53 1385.21 729.67 1333.96 740.91 1448.66 761.55 1495.02 749.53"/><g class="cls-13"><polygon points="1495.02 749.53 1385.21 729.67 1333.96 740.91 1448.66 761.55 1495.02 749.53"/></g><path class="cls-11" d="M1424.81,797.42c1.49-20.24,7-71.64,11.21-91.5,1.24-5.95,2.7-12,6.13-17s9.43-8.72,15.42-7.79c5.36.82,9.66,5.17,11.84,10.14a36,36,0,0,1,2.77,15.92c-1,24.55-3.16,52.06-3.14,74.81"/><path class="cls-6" d="M1462,749.22c0,.09-1.56.51-4.06,1.29a83.45,83.45,0,0,0-9.61,3.61,86.47,86.47,0,0,0-9.07,4.82c-2.24,1.37-3.6,2.3-3.6,2.22s.28-.31.9-.77,1.44-1.09,2.54-1.8a65.17,65.17,0,0,1,9-5,63.91,63.91,0,0,1,9.74-3.5c1.28-.34,2.33-.58,3.05-.71A4.08,4.08,0,0,1,1462,749.22Z"/><path class="cls-6" d="M1463.83,725.86c0,.1-1.66.46-4.29,1.28a57.85,57.85,0,0,0-18.94,9.92c-2.17,1.71-3.41,2.87-3.48,2.8a4.47,4.47,0,0,1,.78-.9,31.94,31.94,0,0,1,2.41-2.24,49.62,49.62,0,0,1,19.1-10.05c1.35-.36,2.45-.59,3.22-.72A4,4,0,0,1,1463.83,725.86Z"/><path class="cls-6" d="M1461.35,707.05c0,.11-1.3.18-3.36.55a29.09,29.09,0,0,0-14.43,7.18c-1.55,1.41-2.38,2.41-2.47,2.35s.15-.31.5-.78a19.88,19.88,0,0,1,1.65-1.9,25.56,25.56,0,0,1,14.65-7.29,21,21,0,0,1,2.51-.18A2.76,2.76,0,0,1,1461.35,707.05Z"/><path class="cls-10" d="M1447.72,765.61a.2.2,0,0,0,0,.11V836c0,3.09-2.49,6.32-7.06,8.68s-11.2,4.06-19.51,4.08H1421c-16.62,0-26.55-6.58-26.55-12.76v-70.5c0-6.87,5.08-14.05,10.15-21.13,3.42-4.73,4.24-11.54,4.4-15.55v-1.29h-.46a3.71,3.71,0,0,1-4-3.4v-3a3.73,3.73,0,0,1,4-3.42h25a4,4,0,0,1,3.67,2.07,3.13,3.13,0,0,1,.3,1.35v3a3.73,3.73,0,0,1-4,3.4h-.46v1.29c.16,4,1,10.83,4.4,15.55,5.08,7.08,10.13,14.26,10.16,21.13A.11.11,0,0,1,1447.72,765.61Z"/><path class="cls-6" d="M1447.72,765.61q0-.36,0-.72a16.76,16.76,0,0,0-.27-2.1,26.61,26.61,0,0,0-2.9-7.61,101.44,101.44,0,0,0-7.22-10.91,22.2,22.2,0,0,1-3.25-7.56,41.29,41.29,0,0,1-1.13-9.2v-.21h.21a4.56,4.56,0,0,0,2.62-.63,3.16,3.16,0,0,0,1.53-2.2c0-.9,0-2,0-3a3,3,0,0,0-1.09-2.6,4.22,4.22,0,0,0-2.82-.9H1409a4.19,4.19,0,0,0-3.24,1.15,3,3,0,0,0-.78,1.53c0,.62,0,1.24,0,1.87v1.9a2.88,2.88,0,0,0,.75,1.58,4.17,4.17,0,0,0,3.37,1.21h.29v.3a43.55,43.55,0,0,1-.9,8.52,23.49,23.49,0,0,1-3.33,8.2c-1.72,2.44-3.49,4.87-5.11,7.45a38.72,38.72,0,0,0-4.14,8.2,18.86,18.86,0,0,0-1,4.51c-.08,1.52,0,3.16-.05,4.74V833.2a20.6,20.6,0,0,0,.19,4.08,7.93,7.93,0,0,0,1.92,3.44,18.92,18.92,0,0,0,6.56,4.51,36.84,36.84,0,0,0,7.55,2.25,49.52,49.52,0,0,0,7.68.9,52.55,52.55,0,0,0,14.79-1.34,32.46,32.46,0,0,0,6.67-2.42,17.06,17.06,0,0,0,5.41-4.08,8.33,8.33,0,0,0,1.6-2.84,10.65,10.65,0,0,0,.26-3.23V815.82c0-15.5.07-28,.1-36.73s.1-13.47.1-13.47a3.46,3.46,0,0,1,.06.91v2.59c0,2.3,0,5.67,0,10,0,8.69.06,21.23.1,36.73v20.3a6.71,6.71,0,0,1-.27,1.72,8.87,8.87,0,0,1-1.69,3,17.57,17.57,0,0,1-5.59,4.23,33.09,33.09,0,0,1-6.79,2.48,53.33,53.33,0,0,1-15,1.39,50.81,50.81,0,0,1-7.77-.9,36.28,36.28,0,0,1-7.68-2.29,19.22,19.22,0,0,1-6.79-4.61,8.74,8.74,0,0,1-2-3.69,21.29,21.29,0,0,1-.21-4.22V769.15c0-1.61,0-3.17.05-4.8a19.7,19.7,0,0,1,1-4.67,40,40,0,0,1,4.22-8.33c1.63-2.59,3.42-5,5.13-7.47a22.91,22.91,0,0,0,3.25-8,42.26,42.26,0,0,0,.91-8.39l.28.28a4.71,4.71,0,0,1-3.79-1.4,3.38,3.38,0,0,1-.9-1.89v-2a14.11,14.11,0,0,1,0-1.95,3.53,3.53,0,0,1,.9-1.81,4.68,4.68,0,0,1,3.61-1.31h24.43a4.71,4.71,0,0,1,3.12,1,3.51,3.51,0,0,1,1.23,3v3.08a3.62,3.62,0,0,1-1.73,2.5,5.07,5.07,0,0,1-2.88.66l.21-.2c.1,6.42,1.35,12.36,4.24,16.57a100,100,0,0,1,7.12,11,26.75,26.75,0,0,1,3,7.71,19,19,0,0,1,.21,2.12A2.3,2.3,0,0,1,1447.72,765.61Z"/><path class="cls-6" d="M1431.73,727.34c0,.17-5,.32-11.11.32s-11.11-.15-11.11-.32,5-.31,11.11-.31S1431.73,727.16,1431.73,727.34Z"/><path class="cls-7" d="M1445.5,775c-2.25-1.46-5.21-.82-7.62.33s-4.69,2.71-7.3,3.16c-3.09.49-6.19-.73-8.93-2.29s-5.33-3.45-8.28-4.51a16.14,16.14,0,0,0-16.62,3.92V836s3.32,10.29,26.66,8.67,21.49-11.91,21.49-11.91Z"/><path class="cls-11" d="M1383.68,733.93a17.13,17.13,0,0,0-14.37-19.51h-.06a1.32,1.32,0,0,0-1.68,1.79,20.65,20.65,0,0,0,16.07,18.23"/><path class="cls-7" d="M1359.71,765.46c4.32,8.89,10.52,14.88,18.2,15.17,1.53.06,2.7-1,4.16-1a9,9,0,0,1,2.46.9,3.32,3.32,0,0,0,1.28.29c7.94-.43,14.69-6,19.25-15.34,6.31-13.07,4.38-27.11-4.37-31.38a20.76,20.76,0,0,0-3.61-1.4,14.78,14.78,0,0,0-4.34-.51,32,32,0,0,0-9.93,2.25l-.42.16c-7.12-3.14-12.8-3.16-18.31-.5C1355.31,738.4,1353.36,752.42,1359.71,765.46Z"/><path class="cls-10" d="M1359.87,752.25a6.56,6.56,0,0,1-.74-2.63,14.16,14.16,0,0,1,4.44-12,6.61,6.61,0,0,1,2.28-1.52c.06.09-.81.66-2,1.81a15.39,15.39,0,0,0-4.31,11.65A26.79,26.79,0,0,1,1359.87,752.25Z"/><path class="cls-10" d="M1361.48,758.46c-.17,0-.46-.57-.65-1.37s-.19-1.48,0-1.52.45.58.64,1.38S1361.64,758.42,1361.48,758.46Z"/><path class="cls-6" d="M1401.77,712.55c0,.12-1.64.75-4.1,2.23a31.77,31.77,0,0,0-4.1,2.92,32.94,32.94,0,0,0-9.82,14.08c-1,2.71-1.24,4.51-1.37,4.51a4.82,4.82,0,0,1,.14-1.26,10.47,10.47,0,0,1,.29-1.46,17.85,17.85,0,0,1,.52-1.89,29.11,29.11,0,0,1,2-4.73,30.9,30.9,0,0,1,7.91-9.66,29.81,29.81,0,0,1,4.25-2.86,19.08,19.08,0,0,1,1.74-.9q.68-.31,1.38-.57A5.48,5.48,0,0,1,1401.77,712.55Z"/><path class="cls-7" d="M1334,740.91,1320.16,915l128.61,31.09s44.86-15.21,45.47-16.23.78-180.28.78-180.28l-46.36,12Z"/><g class="cls-14"><path d="M1334,740.91,1320.16,915l128.61,31.09s44.86-15.21,45.47-16.23.78-180.28.78-180.28l-46.36,12Z"/></g><path class="cls-12" d="M1535.67,538.15l-7.21,101.59a31.68,31.68,0,0,1-31.58,29.44h0a31.66,31.66,0,0,1-31.63-31.7c0-.68,0-1.37.06-2.05.64-9.67,1.21-17.59,1.21-17.59s-24.59-3.82-24.89-28.41c-.17-14.2,2.27-46.43,4.37-71.12a32.24,32.24,0,0,1,32.18-29.49H1493A45.52,45.52,0,0,1,1535.76,537C1535.73,537.36,1535.71,537.76,1535.67,538.15Z"/><path class="cls-15" d="M1466.51,617.85s15.5.91,32-9.46c0,0-7.92,17.89-32.48,15.67Z"/><path class="cls-6" d="M1450.61,543.69c.43.46,3.09-1.52,6.87-1.5s6.55,1.9,7,1.44c.2-.21-.24-1-1.45-1.92a9.64,9.64,0,0,0-5.57-1.71,9.19,9.19,0,0,0-5.47,1.8C1450.79,542.66,1450.39,543.48,1450.61,543.69Z"/><path class="cls-6" d="M1491.51,548.07a3.52,3.52,0,0,0,3.38,3.55,3.38,3.38,0,0,0,3.61-3.11v-.06a3.5,3.5,0,0,0-3.38-3.54,3.34,3.34,0,0,0-3.61,3.07Z"/><path class="cls-6" d="M1454,548.07a3.51,3.51,0,0,0,3.38,3.55,3.38,3.38,0,0,0,3.61-3.11v-.06a3.5,3.5,0,0,0-3.38-3.54A3.33,3.33,0,0,0,1454,548,.28.28,0,0,0,1454,548.07Z"/><path class="cls-6" d="M1487.37,543.69c.44.46,3.1-1.52,6.88-1.5s6.55,1.9,7,1.44c.19-.21-.24-1-1.46-1.92a9.59,9.59,0,0,0-5.56-1.71,9.25,9.25,0,0,0-5.48,1.8C1487.56,542.66,1487.2,543.48,1487.37,543.69Z"/><path class="cls-6" d="M1473.67,571.71c0-.21-2.33-.62-6.14-1.1-1-.1-1.87-.29-2-1a5.65,5.65,0,0,1,.64-2.86q1.36-3.49,2.85-7.34c4-10.47,6.84-19.06,6.42-19.23s-4,8.2-7.94,18.67l-2.71,7.39c-.36,1.1-1,2.34-.49,3.78a2.41,2.41,0,0,0,1.59,1.41,7.46,7.46,0,0,0,1.64.24C1471.27,571.9,1473.67,571.92,1473.67,571.71Z"/><path class="cls-6" d="M1484.78,574.32c-.61,0-.62,4.07-4.13,7s-7.88,2.46-7.91,3c-.06.27,1,.8,2.82.85a10.2,10.2,0,0,0,6.59-2.3,8.89,8.89,0,0,0,3.21-5.85C1485.52,575.31,1485.06,574.3,1484.78,574.32Z"/><path class="cls-6" d="M1486.39,531.4c.38,1,4.15.54,8.58,1.09s8,1.74,8.62.82c.26-.45-.36-1.41-1.81-2.41a15.05,15.05,0,0,0-13.09-1.45C1487.05,530.11,1486.24,530.93,1486.39,531.4Z"/><path class="cls-6" d="M1451.12,532.87c.66.91,3.26,0,6.39-.08s5.78.58,6.4-.31c.26-.44-.16-1.3-1.31-2.11a9.25,9.25,0,0,0-10.31.32C1451.21,531.57,1450.85,532.45,1451.12,532.87Z"/><path class="cls-12" d="M1527.38,556.61c.43-.18,16.9-5,16.36,11.82s-17.31,12.8-17.31,12.32S1527.38,556.61,1527.38,556.61Z"/><path class="cls-15" d="M1531.77,574.55c.07-.06.28.21.76.45a3,3,0,0,0,2.19.12c1.81-.6,3.39-3.37,3.61-6.4a9.75,9.75,0,0,0-.68-4.21,3.39,3.39,0,0,0-2.14-2.32,1.48,1.48,0,0,0-1.75.74c-.24.47-.14.8-.24.83s-.35-.29-.19-1a1.85,1.85,0,0,1,.69-1,2.19,2.19,0,0,1,1.64-.38,4.11,4.11,0,0,1,3,2.7,9.74,9.74,0,0,1,.9,4.72c-.21,3.38-2,6.5-4.51,7.13a3.14,3.14,0,0,1-2.7-.53C1531.78,575,1531.7,574.57,1531.77,574.55Z"/><path class="cls-6" d="M1536.74,556.05c-2.57-.63-7,1.74-8.12,4.15s-1.34,5.11-2.43,7.52-3.55,4.57-6.11,4a5.14,5.14,0,0,1-3.51-3.84,14.07,14.07,0,0,1,0-5.41c1-7.84,2.64-15.63,3-23.54s-.81-16.12-5-22.86-11.73-11.72-19.67-11c-5.22.42-10,3.14-15.2,3.87a20.52,20.52,0,0,1-17.06-5.69,38,38,0,0,0-3.2-2.29c0-.42.39-3.92,1.81-5.21,10.29-9.51,28.86-12.17,42.45-8.75s26.34,13,32.2,25.78,4.11,30.47.9,43.37"/><path class="cls-6" d="M1443.3,513.89c2.21,5.1,7.82,8.11,13.36,8.64s11-.91,16.41-2.39,19.7-3.9,25.26-3.73c.84,0,1.8,0,2.27-.69.59-.91-.35-2.07-1.22-2.71-7.32-5.74-25-9.26-34.34-9.65S1446,507,1440.93,514.8"/><path class="cls-7" d="M1445.7,514.54s64.51-20.75,92.42,35.05c0,0,4.16-14,4.16-21.45,0-5-3-34.78-33.63-44.16C1508.67,484,1462.51,466.37,1445.7,514.54Z"/><g class="cls-14"><path d="M1445.7,514.54a30,30,0,0,1,20.52-9.32c19-.84,54.64,9.86,71.9,44.37,0,0,4.16-14,4.16-21.45,0-5-3-34.78-33.63-44.16C1508.67,484,1462.51,466.37,1445.7,514.54Z"/></g><path class="cls-7" d="M1535.44,543.06c-9.57-14.64-22.76-26.74-37.58-36s-39.36-18.43-56.25-22.91c-5.07-1.35-10.37-2.53-15.53-1.64s-10.24,4.34-11.52,9.43c-1.61,6.38,9.69,16.24,15,20.07s16.13,9.53,16.13,9.53-.14-11.81,18.77-14.25C1490.21,504,1535.44,543.06,1535.44,543.06Z"/><path class="cls-10" d="M1482.53,494.85s-9.3-5.14-18.62-6.31a23.61,23.61,0,0,1,5.06-3,48.18,48.18,0,0,1,14.51,4.88Z"/><path class="cls-7" d="M1563.57,662.4s-17.63,20.16-15.68,48.21c.27,3.89.46,9.31.9,13.19,3,24.05,7.57,46.39,7.57,46.39H1558L1619.53,755s-9.26-53.39-11.39-60.44c-6.82-22.69-30.19-35.18-30.19-35.18Z"/><path class="cls-6" d="M1494.24,929.81v-13.9c0-9,0-22,.06-38.15.12-32.37.28-77.44.46-128.27l.39.31-23.39,6.07-23,6,.23-.31c.31,25.48.23,49.52.11,71.26s-.25,41.12-.34,57.35-.07,29.26,0,38.25c0,4.51,0,7.94,0,10.32v2.7c0-.59,0-1.51,0-2.7,0-2.38-.09-5.85-.15-10.32-.12-9-.19-22-.18-38.25s.13-35.64.2-57.35.16-45.76-.17-71.26v-.24l.24-.07,23-6,23.39-6.07.4-.1v.41c-.26,50.83-.5,95.89-.66,128.26-.11,16.18-.2,29.18-.26,38.15,0,4.47-.07,7.93-.1,10.29,0,1.17,0,2,0,2.71A2.53,2.53,0,0,1,1494.24,929.81Z"/><path class="cls-7" d="M1465.76,626.16s-2.46,23.4,5.42,27.06c8.87,4.09,17.72.09,23.16-3.38,14.51-9.26,36.08-35,36.08-35L1545,633.81s-36.79,44.2-44.2,44c-4.83-.19-12.36-4.92-17-8.18a32,32,0,0,1-6.78-6.42l-6.32-8.12c-8,3.93-14.38,9-18.83,15.4,0,0-2.12-16.38,1.69-23.82s11.41-20.24,11.41-20.24Z"/><path class="cls-6" d="M1453,647.3a1.49,1.49,0,0,1-.15.4l-.47,1.15a25.44,25.44,0,0,0-1.09,4.64,73.51,73.51,0,0,0,0,17.54l-.43-.08a32,32,0,0,1,7.89-9,58.44,58.44,0,0,1,11.67-7.4l.19-.1.15.17c2.57,3,5.28,6.1,8.12,9.25a57.6,57.6,0,0,0,9.6,8.86,23.67,23.67,0,0,0,5.47,2.89,17.4,17.4,0,0,0,2.91.79,12.16,12.16,0,0,0,2.95.11c4-.36,7.33-2.63,10.1-5h0l25.19-26.86,7.31-7.72,2-2,.53-.52.18-.16s0,.07-.15.2l-.47.55-1.9,2.11-7.21,7.82-25,27.06h0a27.27,27.27,0,0,1-4.69,3.36,14.78,14.78,0,0,1-5.73,1.8,13.5,13.5,0,0,1-3.11-.11,18.85,18.85,0,0,1-3-.82,24.88,24.88,0,0,1-5.61-3,57.64,57.64,0,0,1-9.7-9c-2.88-3.17-5.59-6.32-8.12-9.29l.35.08a59.26,59.26,0,0,0-11.57,7.28,32.06,32.06,0,0,0-7.82,8.79l-.37.63-.07-.72a70.28,70.28,0,0,1,.2-17.63,23.93,23.93,0,0,1,1.22-4.65c.22-.51.41-.9.54-1.13A3.13,3.13,0,0,1,1453,647.3Z"/><g class="cls-9"><path d="M1453.93,667c-.56.9-.07,3.08.9,3.56a3,3,0,0,0,3-.54,10.69,10.69,0,0,0,2.05-2.5,27.38,27.38,0,0,1,5.21-5.59c2-1.58,4.65-2.92,6.91-1.8,1.49.75,2.3,2.36,3,3.87,3,6.25,6.72,12.63,12.7,16.17s13.66,3.74,20.26,1.41,12.18-6.94,16.7-12.27,8.06-11.41,11.56-17.46c2.7-4.76,5.54-9.67,6.4-15.1-.77.42-2.53,3.16-3.3,3.61,0,0-28.38,31.26-31.05,32.87s-10,12.41-30.87-10.94l-6.89-7.47S1457.43,661.19,1453.93,667Z"/></g><rect class="cls-1" x="1508.84" y="721.06" width="9.53" height="31.58" transform="translate(555.8 2121.25) rotate(-81.28)"/><path class="cls-12" d="M1614.38,756.18,1565.67,768l5.63,46L1478,884c-3.73.53-7.55,1.13-9.68,1.66-5.09,1.28-14.1,14.08-16.66,15.34l-18.17,14s-1.6,6.38,6.69,5.11,17.55-7.66,18.5-7.66,3.86,2,2.49,6.06c-1.22,3.66-6.21,16.24-6.21,16.24l-6.17,11.33s26.69.9,34.16-9c5.07-6.73,20.66-25.79,20.66-25.79s109.81-54,116.36-65.33C1628.94,830.56,1614.38,756.18,1614.38,756.18Z"/><path class="cls-15" d="M1592,833.72a30.21,30.21,0,0,0-.22-5,17.51,17.51,0,0,0-16.5-14.93,31.18,31.18,0,0,0-5,.28,4.51,4.51,0,0,1,1.31-.39,15,15,0,0,1,3.72-.34,17.36,17.36,0,0,1,16.93,15.34,15.6,15.6,0,0,1,0,3.74A4.63,4.63,0,0,1,1592,833.72Z"/><path class="cls-15" d="M1470.7,928.94a13.89,13.89,0,0,1-.64,3.06,33.42,33.42,0,0,1-2.71,7.11,14.24,14.24,0,0,1-5.14,5.61,7.72,7.72,0,0,1-2.16.9,1.85,1.85,0,0,1-.84.09,22.07,22.07,0,0,0,2.77-1.34,15.29,15.29,0,0,0,4.81-5.54,42.17,42.17,0,0,0,2.83-6.93A17.18,17.18,0,0,1,1470.7,928.94Z"/><path class="cls-15" d="M1483.63,924.69a11.91,11.91,0,0,1-.9,3,58.89,58.89,0,0,1-7.21,13.13,13.48,13.48,0,0,1-2,2.38,17.1,17.1,0,0,1,1.64-2.64c1-1.6,2.44-3.84,3.85-6.38s2.53-4.93,3.33-6.67A18,18,0,0,1,1483.63,924.69Z"/><path class="cls-6" d="M1483.28,845.16a7.43,7.43,0,0,1,.22,1.56c.11,1,.2,2.45.24,4.24a82.42,82.42,0,0,1-.84,14,84.67,84.67,0,0,1-3.17,13.69c-.56,1.71-1.06,3.08-1.45,4a7.54,7.54,0,0,1-.64,1.42,7.09,7.09,0,0,1,.41-1.5c.32-1,.75-2.34,1.25-4.06a99.18,99.18,0,0,0,4-27.59v-4.25A7.39,7.39,0,0,1,1483.28,845.16Z"/><path class="cls-6" d="M1456.88,859.79a27.72,27.72,0,0,1,1.54,3.84c.9,2.38,2.16,5.66,3.61,9.26s2.88,6.82,3.92,9.15a30.88,30.88,0,0,1,1.58,3.81,24.75,24.75,0,0,1-2-3.6c-1.14-2.29-2.63-5.49-4.1-9.1s-2.7-6.93-3.46-9.36A26.31,26.31,0,0,1,1456.88,859.79Z"/><path class="cls-6" d="M1449.82,891.31a3.61,3.61,0,0,1-.77.24l-2.23.52c-1,.23-2.16.5-3.61.74s-3,.57-4.74.78-3.7.53-5.79.71-4.33.34-6.69.48a127,127,0,0,1-30.54-2.33c-2.31-.5-4.51-.9-6.53-1.49s-3.91-1.06-5.62-1.57-3.23-1.06-4.56-1.51-2.49-.9-3.41-1.26l-2.13-.9a4.69,4.69,0,0,1-.72-.33,3.29,3.29,0,0,1,.76.21l2.18.75c.9.34,2.07.75,3.43,1.16s2.86.91,4.59,1.41,3.6,1,5.61,1.49,4.22,1,6.52,1.42a140.21,140.21,0,0,0,15.13,2,144.25,144.25,0,0,0,15.28.3c2.34-.12,4.57-.21,6.65-.42s4-.4,5.78-.62,3.35-.49,4.74-.7,2.6-.43,3.61-.62l2.25-.42A4.43,4.43,0,0,1,1449.82,891.31Z"/><path class="cls-6" d="M1445.18,870.14c-.09.15-2.71-1.09-5.79-2.79s-5.56-3.19-5.48-3.34,2.71,1.09,5.79,2.78S1445.26,870,1445.18,870.14Z"/><path class="cls-6" d="M1619.57,755l-.31.1-.9.23-3.49.9-13.12,3.23-45.3,11-.32.08v-.33c-1.29-8.37-3-17.4-4.73-26.79-1.11-6.31-2.07-12.43-2.7-18.4s-1-11.77-1-17.3a93.21,93.21,0,0,1,.9-15.66,45,45,0,0,1,4-13.06,32.83,32.83,0,0,1,6.72-9,26.4,26.4,0,0,1,7-4.8,22.72,22.72,0,0,1,5.14-1.61c.6-.09,1.07-.14,1.39-.18h.46a1.8,1.8,0,0,1-.46.1l-1.38.24a24.44,24.44,0,0,0-5,1.71,27.09,27.09,0,0,0-6.89,4.83,33,33,0,0,0-6.56,9,45.39,45.39,0,0,0-3.88,12.94,94.36,94.36,0,0,0-.84,15.58c.1,5.5.41,11.28,1.07,17.23s1.62,12.1,2.71,18.36c1.68,9.38,3.42,18.42,4.7,26.81l-.37-.25,45.36-10.82,13.13-3.07,3.52-.8.9-.18A.87.87,0,0,1,1619.57,755Z"/></svg>