<svg id="Layer_1" data-name="Layer 1" xmlns="http://www.w3.org/2000/svg" viewBox="0 0 311.44 242.59"><defs><style>.cls-1{fill:#61cd61;}</style></defs><path class="cls-1" d="M376.32,284.45l5.93,6.16q1.85,1.92,3.72,3.81l8.59,8.63q5.2,5.28,10.38,10.58c2,2,3.94,4.06,5.91,6.09l9.82,10.13c-1.56,1.66-3.06,3.31-4.62,4.9-2.94,3-5.92,5.92-8.86,8.9-3.42,3.46-6.81,6.93-10.21,10.4l-9.73,10-9.92,10.14-6.65,6.79L360.85,391l-9.92,10.14-10,10.23L331,421.5l-9.74,10-9.92,10.14-10,10.23L291.4,462l-9.73,10c-3.31,3.38-6.6,6.78-9.9,10.16l-10,10.23-9.92,10.14-9.74,10c-3.3,3.38-6.62,6.75-9.92,10.14-1.43,1.47-2.84,3-4.27,4.47-3.34-3.36-6.67-6.7-10-10.06s-6.61-6.75-9.92-10.13-6.68-6.81-10-10.22l-9.74-10q-5-5.09-9.89-10.16l-10-10.23q-5-5.05-9.92-10.13l-9.75-10-9.92-10.14-10-10.23c-3.28-3.35-6.57-6.69-9.83-10.05s-6.39-6.61-9.68-10c.44-.52.86-1.07,1.35-1.57l12.13-12.26c2.05-2.07,4.06-4.17,6.1-6.26l13.56-13.84q3.1-3.16,6.18-6.35c1.67-1.73,3.32-3.47,4.58-4.78,1.5,1.17,3.08,2.25,4.47,3.52s2.49,2.7,3.77,4c1.52,1.58,3.11,3.09,4.65,4.65,3.73,3.77,7.47,7.53,11.17,11.32,3.3,3.37,6.55,6.79,9.85,10.15,4.37,4.46,8.78,8.88,13.17,13.32,2.18,2.21,4.33,4.43,6.5,6.65l6.87,7,6.49,6.64q3.3,3.38,6.58,6.74c.26.26.35.72.64.89a1.16,1.16,0,0,0,1,0c1.34-1.34,2.58-2.76,3.91-4.11,2.85-2.9,5.74-5.75,8.59-8.64q6.88-7,13.76-14c3.16-3.23,6.3-6.47,9.46-9.7l13.57-13.85q4.92-5,9.83-10.05l9.83-10.05q4.92-5,9.83-10.05l10.11-10.32L327,334.77l9.83-10.06,9.83-10,10.11-10.32q4.83-4.93,9.65-9.88c2.91-3,5.81-6,8.72-9C375.5,285.14,375.87,284.85,376.32,284.45Z" transform="translate(-109.23 -284.45)"/></svg>