<svg id="Layer_1" data-name="Layer 1" xmlns="http://www.w3.org/2000/svg" viewBox="0 0 149.69 140"><defs><style>.cls-1{fill:#ceccc8;opacity:0.72;}.cls-2{fill:#f2c364;}.cls-3{fill:#214bb5;opacity:0.87;}.cls-4{fill:#f40ba1;}.cls-5{fill:#1a1a75;opacity:0.85;}</style></defs><rect class="cls-1" width="149.69" height="140" rx="20.18"/><path class="cls-2" d="M28.41,46.28H55a0,0,0,0,1,0,0V93.73a0,0,0,0,1,0,0H28.41a9.5,9.5,0,0,1-9.5-9.5V55.78A9.5,9.5,0,0,1,28.41,46.28Z"/><path class="cls-3" d="M55.12,93.73h47.45a0,0,0,0,1,0,0v22a9.5,9.5,0,0,1-9.5,9.5H64.62a9.5,9.5,0,0,1-9.5-9.5v-22A0,0,0,0,1,55.12,93.73Z"/><rect class="cls-4" x="82.39" y="17.55" width="47.45" height="47.45" rx="9.5"/><path class="cls-5" d="M55,46.28H92.94a9.5,9.5,0,0,1,9.5,9.5V93.73a0,0,0,0,1,0,0H55a0,0,0,0,1,0,0V46.28A0,0,0,0,1,55,46.28Z"/></svg>