<svg id="Layer_1" data-name="Layer 1" xmlns="http://www.w3.org/2000/svg" viewBox="0 0 2764.55 767.09"><defs><style>.cls-1{fill:#82b378;}.cls-2{fill:#2e3552;}.cls-3{fill:#fb7c1d;}.cls-4{fill:#ffb27d;}.cls-5{fill:#233862;}.cls-6{fill:#d57912;}.cls-7{fill:#e69d43;}.cls-8{fill:#2b478b;}.cls-9{fill:#ffb07b;}.cls-10{fill:#ff9841;}.cls-11{fill:#ea8e50;}.cls-12{fill:#2c3a64;}.cls-13{fill:#ed975d;}.cls-14{fill:#cee2ff;}.cls-15{fill:#b65615;}.cls-16{fill:#d36e2a;}.cls-17{fill:#f59040;}.cls-18{fill:#dce7f9;}.cls-19{fill:#96c2fb;}.cls-20{fill:#6ca3ea;}.cls-21{fill:#a7d3ff;}.cls-22{fill:#b64c41;}</style></defs><path class="cls-1" d="M2102.36,760c-4.38-6.88-17.57-24.75-35.13-22.38-19.14,2.57,21.13,15.19,33.46,22.43a20.67,20.67,0,0,1-6.82-.79c-8.24-2.94-22.36,2.69-26.87,4.67h78.47a12.42,12.42,0,0,0-5.61-7.18c-1.29-.79-3.88-.9-7.22-.64,4.67-5.5,7.91-23.07-5.08-18.55-9.49,3.3-9.47,14-8.54,20.39-2,.32-4.06.64-6.08.93-3.91-19.92-17.73-78.27-45.74-79.83-28.39-1.58,24.08,60.52,41.55,80.38C2106.51,759.67,2104.36,759.88,2102.36,760Z" transform="translate(-0.95 -3)"/><path class="cls-2" d="M2761.5,770.09H5a4,4,0,0,1-4-4H1a4,4,0,0,1,4-4H2761.5a4,4,0,0,1,4,4h0A4,4,0,0,1,2761.5,770.09Z" transform="translate(-0.95 -3)"/><path class="cls-3" d="M1847.54,401.13c2.9-6.27,1.33-9.64,1.33-9.64s-67.07-24.87-73.58-26.54c-4.43-1.14-54.73-22.07-79.9-36.71-12.49-7.27-22.19.55-33.61,8.53l-9.4,6.58c-11.36,7.94-8.58,26.69,4.7,31.7,37.39,14.11,95.13,24.59,106.15,27.18,27.35,6.42,77.16,8.11,77.16,8.11A29.48,29.48,0,0,0,1847.54,401.13Z" transform="translate(-0.95 -3)"/><path class="cls-4" d="M2166.35,400.25l-9,.51s-15.92-6.08-24.26,10.47c0,0-2.94,7.09,2.6,7.42s3.46-.59,11.25.06,15.19-2.35,17.72-7.49l4.92-4.18Z" transform="translate(-0.95 -3)"/><path class="cls-5" d="M2159.75,406.68c-1.93-6.19-1.47-7.18-1.47-7.18s55-29.56,60-32.55,61.92-63.26,61.92-63.26l58.09,16.14s-90.11,68.3-103,75.65c-21.33,12.14-70.68,18.93-70.68,18.93A18.12,18.12,0,0,1,2159.75,406.68Z" transform="translate(-0.95 -3)"/><path class="cls-6" d="M2239.16,441l-439.27,93.51-58.14-273.12,439.31-93.51Z" transform="translate(-0.95 -3)"/><path class="cls-7" d="M2132.29,463.73l-332.4,70.76-58.14-273.12,332.4-70.77Z" transform="translate(-0.95 -3)"/><path class="cls-5" d="M1895.67,727.1s8.87,9.78,29.45,4.46c0,0,16.6-3.78,20.24,4.5,0,0-20.89,13.21-27.33,16.75a76.63,76.63,0,0,0-13.5,10.12,6.7,6.7,0,0,1-9.45-.49l-.22-.26c-1.12-1.37-2.4-3-3.8-4.91-3.93-5.32-13.07-22.5-13.07-22.5Z" transform="translate(-0.95 -3)"/><path class="cls-8" d="M1903.55,722s-8.18,18.86-27.06,15.39c0,0-38.52-31.82-65-64.87-8.58-10.74-15.89-21.6-20.19-31.55-17.52-40.57-64.82-101.09-94.9-131.76L1771.7,482s24.1,48.48,56.16,108C1851,632.92,1878.21,681.6,1903.55,722Z" transform="translate(-0.95 -3)"/><path class="cls-5" d="M1827.89,590l-16.32,82.5c-8.58-10.74-15.89-21.6-20.19-31.55-17.52-40.57-64.82-101.09-94.9-131.76L1771.73,482S1795.8,530.46,1827.89,590Z" transform="translate(-0.95 -3)"/><path class="cls-5" d="M1766.36,738s-.82,15,17.42,17.06c0,0,11,.23,11,9.8h-53.61s-1.53-3.86-1.91-12.14c-.29-6.35,6.16-23,6.16-23Z" transform="translate(-0.95 -3)"/><path class="cls-8" d="M1747,482s33.52,36.83,54.79,103.19c11.58,36.1-21.21,126.88-27.61,158.41,0,0-22,1.87-37-3.94,0,0-1.14-65.15,7.65-115.35,4.93-28.1-44.13-60.1-65.57-110.87-14.58-34.54,3.16-34,25-34.78Z" transform="translate(-0.95 -3)"/><path class="cls-9" d="M1708.32,317.65c-18.65,10.54-56.83.82-56.83.82S1667,300.75,1660,272.2l14.65,7.44,15.72,8a131.09,131.09,0,0,1,1.73,14.1c.18,2.33.34,4.94.45,7.79A48.9,48.9,0,0,1,1708.32,317.65Z" transform="translate(-0.95 -3)"/><path class="cls-10" d="M1776.71,480.08c0,3.27-3.78,4.84-4.58,5-7.52,1.38-28.53,9.55-47.45,11.42-15.93,1.67-30.72.09-47-3.18-2.15-.43-7.2-1.79-7.56-3.85-.45-2.25-62.68-126.87-14.3-180.39,1.13-1.26,10.68,1,19.42,3.08a35.84,35.84,0,0,0,22.07-1.81l8.18,4.31c10.06,5.61,29.09,25.52,31.32,41.14,1.13,8,5.67,13.83,7,20.82.49,2.58,1,5.11,1.49,7.57q1.48,7.24,3.07,13.79c2.84,11.82,5.85,22,8.79,30.78,3.14,9.33,6.22,17.09,9,23.58,3.57,8.42,6.58,14.71,8.46,19.53C1775.94,475.26,1776.71,477.92,1776.71,480.08Z" transform="translate(-0.95 -3)"/><path class="cls-3" d="M1774.61,471.87C1686.77,430.48,1656.35,351,1656.35,351s70.75,23.25,88.35,30.11c1,4.82,2.64,12.49,3.69,16.86,2.84,11.82,5.85,22,8.79,30.78,3.14,9.33,6.22,17.09,9,23.58C1769.72,460.76,1772.73,467.05,1774.61,471.87Z" transform="translate(-0.95 -3)"/><path class="cls-9" d="M1806.05,270.1l1.68-7.91s-12.8-13.53,3.16-25.38c0,0,7.07-4.47,9.49.66s.58,3.4,4.17,10.58,2.85,14.87-2.13,18.49l-3,5.64Z" transform="translate(-0.95 -3)"/><path class="cls-11" d="M1692.05,301.72c-18.34,1-30.27-14.11-30.27-14.11a143.72,143.72,0,0,0,12.82-8l15.72,8A131.27,131.27,0,0,1,1692.05,301.72Z" transform="translate(-0.95 -3)"/><path class="cls-9" d="M1699.89,282.89s-27.79,19.94-39.94,2.45-23.92-26.71-6.69-40.18,25.35-9.21,30.82-4.36S1706.78,277.25,1699.89,282.89Z" transform="translate(-0.95 -3)"/><path class="cls-5" d="M1687,225a45.19,45.19,0,0,0-3.24-11.46s-1.74,7.22-14.94,6.23-34.13,1.29-41.1,16.34a29.7,29.7,0,0,0-1.19,3,34.73,34.73,0,0,1-1.57-8.33c-2.51,6.47,0,14.57,0,14.57h0a5.52,5.52,0,0,1-.1.71c-2.92,2.47-5.36,10.12-5.36,10.12.88-2.13,3-3.53,4.93-4.38-.06,11.7,4.69,23.14,13,26.55,12.19,5,12.09,1.18,24.34,9.31,0,0,3.29-4.08,1-6.82s-10.71-6.72-6-10.71,6.48.5,8.22-2.24-7-10.71,4.23-18.18S1688,231.72,1687,225Z" transform="translate(-0.95 -3)"/><path class="cls-12" d="M2451.89,720.93s9.35,8.66,7.52,14.82S2449.15,746,2448,753.53s-5.7,11.64-9.8,11.64h-19.62s-3-5.3,4.27-6.9,10-10.44,9.59-18.65a147.53,147.53,0,0,1,.69-19.15l15.51-3.65Z" transform="translate(-0.95 -3)"/><path class="cls-12" d="M2335.31,764.85a5.15,5.15,0,0,1-1.1.32h-51.89c.42-1.82,2-5.47,8.29-6.48,8.17-1.32,22.34-6.07,25.5-16.53.1-.34.19-.68.27-1,2.51-11.17,20.75,3.42,20.75,3.42s.06.45.13,1.2C2337.69,749.85,2338.78,763.11,2335.31,764.85Z" transform="translate(-0.95 -3)"/><path class="cls-10" d="M2292.78,466s2.77,34.57,6,76.13c4.43,56.44,9.75,125.78,10.27,138.92.91,22.8,4.57,59.29,4.57,59.29s8.66,8.67,26,5c0,0,15.45-52.08,19.87-107.19.06-.9.13-1.81.2-2.72,4.1-56.1,10.49-174.23,10.49-174.23Z" transform="translate(-0.95 -3)"/><path class="cls-3" d="M2292.78,466s2.77,34.57,6,76.13l60.7,96c.06-.9.13-1.81.2-2.72,4.1-56.1,10.49-174.23,10.49-174.23Z" transform="translate(-0.95 -3)"/><path class="cls-10" d="M2305.43,470.08s50,125.19,82.78,184,43.1,75.25,43.1,75.25,18.82-7.52,20.53-12.65c0,0-12.56-113.59-34.55-141.28-12.43-15.64-27-62.59-27.71-79s-4.44-48.92-4.44-48.92Z" transform="translate(-0.95 -3)"/><path class="cls-4" d="M2310.59,268.17s-24.91,32.87-45.27,34.89c0,0,2.4-11.83,8.29-19.36-1.66-2.58-3.1-4.95-4.35-7a122.25,122.25,0,0,1-6-11.24l9.09-17.13,6.17-11.62a58.73,58.73,0,0,0,5.74,11.18C2295.26,264.43,2310.59,268.17,2310.59,268.17Z" transform="translate(-0.95 -3)"/><path class="cls-13" d="M2284.29,247.84s0,18.13-15,28.81a122.25,122.25,0,0,1-6-11.24l9.09-17.13C2279.89,247,2284.29,247.84,2284.29,247.84Z" transform="translate(-0.95 -3)"/><path class="cls-4" d="M2257.62,267.33s31.74-7.77,26.6-27.46-4.5-34-25-29.83-22.44,12.66-22.33,19.65S2249.23,268.84,2257.62,267.33Z" transform="translate(-0.95 -3)"/><path class="cls-8" d="M2390.15,464.31c-14.5,15.9-108.63,27.21-105.94,15.24a131.74,131.74,0,0,0,3.16-23.9c.11-2.63.16-5.42.12-8.38-.2-16.23-3-37.43-12.09-62.75-.68-1.9-1.4-3.81-2.15-5.76a186.41,186.41,0,0,1-8.86-30c-3.89-19.06-4.12-36.84.57-47.81l6.16-17.65c20.2-6.28,26-21.93,26-21.93s63.38,20.26,88.27,111.62C2385.39,373,2402.77,450.48,2390.15,464.31Z" transform="translate(-0.95 -3)"/><path class="cls-5" d="M2287.37,455.65c.11-2.63.16-5.42.12-8.38-.2-16.23-3-37.43-12.09-62.75,3.8-12.47,8.11-22.69,11.93-27,15.52-17.69,23.46-19.72,23.46-19.72S2319.35,422.21,2287.37,455.65Z" transform="translate(-0.95 -3)"/><path class="cls-5" d="M2293.15,205.74c.27-.39.94-.75,2.5-1a6.42,6.42,0,0,0-3-.52c-.57-2.18-2.17-6-6-6.51a4.8,4.8,0,0,1,2.67,3.19c-4.85-4-14.54-6.33-40.12-1.42-33.71,6.48-20.06,27.36-15.37,29.51s15-6.3,23.26-6.54,11.16,11.62,14.13,13,1.55-1.46,5.12-3.6,4.63,4.15,4,8.39,5.14,9.11,5.14,9.11l4.6-6.3c4.59-6.29,6.85-31.06,3.91-36Z" transform="translate(-0.95 -3)"/><path class="cls-4" d="M2200.15,436.65s-11.43.63-13.88,1.49-10.17,6.92-10.09,7.66.65,1.2,2.19.89,6.33-2.32,6.18-1.64-13.68,7.45-13,10.37,9.95,6.11,16.67,4.65,20.35-11.82,21.24-12.57S2200.15,436.65,2200.15,436.65Z" transform="translate(-0.95 -3)"/><path class="cls-8" d="M2200.89,442.49c-4.23-5.44-1.91-8.38-1.91-8.38s51-49.53,54.87-54.4,16.58-77.11,16.58-77.11,7.26-17.39,23.21-22.26c13.86-4.23,21.05-10,28.33-2.48a30.36,30.36,0,0,1,5.68,33.72c-11.65,25.46-35.22,76-42.72,85.06-14.48,17.41-60.73,45.34-72.74,52.43a4.66,4.66,0,0,1-5.51-.55A48.52,48.52,0,0,1,2200.89,442.49Z" transform="translate(-0.95 -3)"/><path class="cls-10" d="M1824.32,267.69a14,14,0,0,0-8.53-5.3l-11.11-2.54s-38.14,63.41-41.28,69.77c-.7,1.4-1.9,3.64-3.64,6.72a6,6,0,0,1-6.69,2.82c-14.75-4-31-9-43-14.59a40.45,40.45,0,0,0-41.38,4.46l-9.81,7.43a17.91,17.91,0,0,0,6.06,31.55c34.62,9.49,85.13,15,106.25,17.48,9.57,1.11,21.2-22.63,27-36h-.06C1810.4,321.65,1824.32,267.69,1824.32,267.69Z" transform="translate(-0.95 -3)"/><polygon class="cls-14" points="1469.85 0 779.9 0 779.9 584.21 1552.94 584.21 1469.85 0"/><polygon class="cls-5" points="1439.64 20 657.7 20 657.7 584.21 1520.73 584.21 1439.64 20"/><rect class="cls-7" x="1102.38" y="476.4" width="106.34" height="107.81"/><rect class="cls-6" x="1204.3" y="476.4" width="48.68" height="107.81"/><rect class="cls-7" x="1096.73" y="371.55" width="176.34" height="106.33"/><rect class="cls-6" x="1268.65" y="371.55" width="48.68" height="106.33"/><rect class="cls-15" x="117.55" y="515.38" width="247.13" height="109.62" rx="10.03"/><circle class="cls-5" cx="1044.17" cy="661.23" r="99.07"/><circle class="cls-5" cx="1423.16" cy="661.33" r="99.07"/><circle class="cls-5" cx="251.31" cy="664.2" r="99.07" transform="translate(-397 369.24) rotate(-45)"/><circle class="cls-16" cx="250.37" cy="661.19" r="50"/><circle class="cls-17" cx="250.37" cy="661.19" r="50"/><path class="cls-16" d="M284.6,626.89a50,50,0,0,1-78.9,57.77,50,50,0,1,0,78.9-57.77Z" transform="translate(-0.95 -3)"/><circle class="cls-15" cx="250.37" cy="661.19" r="15.5"/><circle class="cls-15" cx="223.99" cy="687.76" r="6"/><circle class="cls-15" cx="216.99" cy="643.19" r="6"/><circle class="cls-15" cx="282.99" cy="643.19" r="6"/><circle class="cls-15" cx="277.99" cy="687.76" r="6"/><circle class="cls-15" cx="250.37" cy="622.99" r="6"/><circle class="cls-16" cx="1042.37" cy="661.19" r="50"/><circle class="cls-16" cx="1042.37" cy="661.19" r="50"/><circle class="cls-15" cx="1042.37" cy="661.19" r="15.5"/><circle class="cls-15" cx="1015.99" cy="687.76" r="6"/><circle class="cls-15" cx="1008.99" cy="643.19" r="6"/><circle class="cls-15" cx="1074.99" cy="643.19" r="6"/><circle class="cls-15" cx="1069.99" cy="687.76" r="6"/><circle class="cls-15" cx="1042.37" cy="622.99" r="6"/><circle class="cls-5" cx="531.85" cy="661.19" r="99.07"/><path class="cls-6" d="M250.22,129.28S304,48.2,366.11,47.53l-5.54,87.73Z" transform="translate(-0.95 -3)"/><path class="cls-7" d="M566.89,499.71H136.65L172.46,209.1A94.25,94.25,0,0,1,266,126.38H566.89Z" transform="translate(-0.95 -3)"/><path class="cls-6" d="M316.79,322.06H196.15l16-114.75a47.81,47.81,0,0,1,47.35-41.22h61.05Z" transform="translate(-0.95 -3)"/><path class="cls-18" d="M307.89,313.43H228.44a19.83,19.83,0,0,1-19.83-19.85,20.36,20.36,0,0,1,.17-2.59l10.54-79.39c2.79-21,19.88-36.58,40.07-36.58H311Z" transform="translate(-0.95 -3)"/><polygon class="cls-14" points="1151.11 584.21 323.6 584.21 360.51 0 1102.21 0 1151.11 584.21"/><polygon class="cls-19" points="1118.72 562.05 353.98 562.05 388.1 22.16 1073.53 22.16 1110.16 459.78 1118.72 562.05"/><path class="cls-6" d="M399.17,499.71H136.65c-23.12,1.53-25.35,13-25.35,13L88.89,621.24c0,3.71,3.41,6.75,7.58,6.75h66c4.16,0,7.17-3,8.95-6.92,0,0,10.16-12.55,17-17,17.06-11.25,35.59-18.62,63-18.62,33.65,0,63.38,10.7,81.28,27.06h66.58c8,0,14.61-4.2,14.61-9.32V509.06C413.78,503.9,407.2,499.71,399.17,499.71Z" transform="translate(-0.95 -3)"/><path class="cls-19" d="M1178.63,712.84h-83.2A77.32,77.32,0,0,0,1085,686.05c-25.16-40.31-84-52.63-117.48-56.4A245,245,0,0,0,943,628h143c37.41,5.07,60.38,25.47,74.07,45A122.15,122.15,0,0,1,1178.63,712.84Z" transform="translate(-0.95 -3)"/><path class="cls-19" d="M1553.89,712.84h-83.2a77.38,77.38,0,0,0-12.52-30C1420.17,628,1318.28,628,1318.28,628h143c31.28,4.24,52.46,19.2,66.57,35.41A123.73,123.73,0,0,1,1553.89,712.84Z" transform="translate(-0.95 -3)"/><path class="cls-20" d="M1160.1,673s-54.75-11.55-75.09,13.06c-25.16-40.31-84-52.63-117.48-56.4l-2-1.66h120.52C1123.44,633.06,1146.41,653.46,1160.1,673Z" transform="translate(-0.95 -3)"/><path class="cls-20" d="M1527.89,663.4h0s-45.8-1-69.7,19.46c-38-54.81-139.89-54.88-139.89-54.88h143C1492.58,632.23,1513.76,647.19,1527.89,663.4Z" transform="translate(-0.95 -3)"/><rect class="cls-20" x="331.21" y="584.21" width="1242.28" height="56.66" rx="11.14"/><rect class="cls-20" x="383.77" y="598.45" width="247.13" height="125.5" rx="10.74"/><path class="cls-21" d="M1120.67,565.05H355.89L390,25.16H523.61c41.82,123.33,183.26,415.72,588.49,437.62Z" transform="translate(-0.95 -3)"/><path class="cls-22" d="M144.48,265.82s-10.76,57.8-10.22,67.22,9.43,14,16.19,14Z" transform="translate(-0.95 -3)"/><rect class="cls-6" x="143.1" y="258" width="40.04" height="86.06" rx="6.95"/><rect class="cls-18" x="147.55" y="262.82" width="32.56" height="77.06" rx="5.93"/><path class="cls-22" d="M164.06,262.6a1.46,1.46,0,0,1-1.33-1.57V236.54c0-.14,1.66-14,16.22-13.52,13.31.41,19,0,19.1,0a1.42,1.42,0,0,1,1.41,1.43v0a1.49,1.49,0,0,1-1.25,1.66c-.23,0-5.9.42-19.33,0-11.73-.36-13.35,9.56-13.49,10.68V261A1.47,1.47,0,0,1,164.06,262.6Z" transform="translate(-0.95 -3)"/><path class="cls-6" d="M305.61,359.46H281.27a6.22,6.22,0,0,1-6.2-6.2h0a6.22,6.22,0,0,1,6.2-6.2h24.34a6.22,6.22,0,0,1,6.2,6.2h0A6.22,6.22,0,0,1,305.61,359.46Z" transform="translate(-0.95 -3)"/><rect class="cls-7" x="1278.88" y="477.89" width="106.34" height="106.33"/><rect class="cls-6" x="1380.8" y="477.89" width="48.68" height="106.33"/></svg>