<svg id="Layer_1" data-name="Layer 1" xmlns="http://www.w3.org/2000/svg" viewBox="0 0 1956.8 1134.2"><defs><style>.cls-1{fill:#fff;}.cls-2{fill:#97c0f8;}.cls-3{fill:#ff9223;}.cls-4{fill:#ffc180;}.cls-5{fill:orange;opacity:0.15;isolation:isolate;}.cls-6{fill:#bad7fd;}.cls-7{fill:#dceaff;}.cls-8{fill:#b0d2f5;}.cls-9{fill:#73b471;}.cls-10{fill:#9bd399;}.cls-11{fill:#82b3f9;}.cls-12{fill:#8fc2ff;}.cls-13{fill:#214d9a;}.cls-14{fill:#bdd9ff;}.cls-15{fill:#d0e3f9;}.cls-16{fill:#93c2f7;}.cls-17{fill:#dfefff;}.cls-18{fill:#a7d3ff;}.cls-19{fill:#cee2ff;}.cls-20{fill:#a8ccff;}.cls-21{fill:#a2c8ea;}.cls-22{fill:#96c2fb;}.cls-23{fill:#81b2f2;}.cls-24{fill:#6ca3ea;}.cls-25{fill:#ffae73;}.cls-26{fill:#f9924f;}.cls-27{fill:#2a3967;}.cls-28{fill:#ff9841;}.cls-29{fill:#fb7c1d;}.cls-30{fill:#b53c37;}.cls-31{fill:#90bfe5;}.cls-32{fill:#b3d3f6;}.cls-33{fill:#c3daf6;}.cls-34{fill:#568cc5;}.cls-35{fill:#eb6c00;}.cls-36{fill:#e66a00;}.cls-37{fill:#ce5700;}.cls-38{fill:#2d3554;}</style></defs><rect class="cls-1" width="1956.8" height="1134.2"/><path class="cls-2" d="M1417.24.87V397.76c0,4.48-.47,8-1,8h-.07c-.47,0-.91-3-1-7V1Z"/><path class="cls-3" d="M1416.23,391.46c-19.56,0-35.44,16.81-35.44,37.51h70.87C1451.66,408.2,1435.79,391.46,1416.23,391.46Z"/><path class="cls-4" d="M1419,391.93a16,16,0,0,0-3.08-.34c-12.73,0-23.18,16.75-23.18,37.38H1399C1399,410,1407.72,394.41,1419,391.93Z"/><path class="cls-5" d="M1323.52,389.81s210.89-90.79,473.21-33.27a176.15,176.15,0,0,1,87.62,47.62c34.2,34.4,61.44,90.69,7.24,167.92,0,0-74.9,76.3,28.58,153.11.91.7,1.88,1.37,2.84,2,8.33,5.66,80.94,62.71-108.74,217.27H977.92s-113.25-79-41.92-186.6a180.5,180.5,0,0,1,75-64c51.89-23.9,161.72-83.16,170-159.62a123.94,123.94,0,0,1,30.06-68.19C1235,438.7,1272.72,405.46,1323.52,389.81Z"/><path class="cls-6" d="M1704.61,621.17h32a11.07,11.07,0,0,1,11.07,11.07v30.43a11.07,11.07,0,0,1-11,11.05h-32a11.07,11.07,0,0,1-11.06-11.05V632.26a11,11,0,0,1,10.88-11.09Z"/><path class="cls-7" d="M1706,623.45h29.2a10.14,10.14,0,0,1,10.11,10.11v27.73a10.14,10.14,0,0,1-10.11,10.11H1706a10.15,10.15,0,0,1-10.12-10.11V633.56a10.11,10.11,0,0,1,10.1-10.11Z"/><path class="cls-8" d="M1719.5,628.2a1.07,1.07,0,1,1,1.07,1.07h0a1.05,1.05,0,0,1-1.07-1Z"/><path class="cls-8" d="M1728.54,629.8a1.09,1.09,0,0,1,1.48-.39,1.08,1.08,0,0,1-1.07,1.87h0a1,1,0,0,1-.45-1.37A.54.54,0,0,1,1728.54,629.8Z"/><path class="cls-8" d="M1736.29,636a1.09,1.09,0,0,1,1.52.3l0,0h0a1.11,1.11,0,0,1-1.87,1.21,1.08,1.08,0,0,1,.29-1.51Z"/><path class="cls-8" d="M1740.13,645.48a1.08,1.08,0,1,1-1.07,1.08h0a1,1,0,0,1,1-1.07Z"/><path class="cls-8" d="M1738.11,656.54a1.14,1.14,0,1,1-1.48,1.74,1.85,1.85,0,0,1-.14-.14h0a1,1,0,0,1-.11-1.43l.11-.11h0a1.1,1.1,0,0,1,1.55-.12Z"/><path class="cls-8" d="M1731.09,663.57a1.07,1.07,0,0,1,.09,1.51l0,0-.06.06a1.14,1.14,0,0,1-1.61-1.6h0A1.15,1.15,0,0,1,1731.09,663.57Z"/><path class="cls-8" d="M1719.5,667.26a1.07,1.07,0,1,1,1.07,1.07h0a1.07,1.07,0,0,1-1.07-1.05Z"/><path class="cls-8" d="M1712.6,629.8a1.13,1.13,0,1,0-.4,1.55,1.13,1.13,0,0,0,.4-1.55Z"/><path class="cls-8" d="M1704.9,636a1.09,1.09,0,0,0-1.52.3l0,0v.08a1.08,1.08,0,0,0,.29,1.51l0,0h0a1.09,1.09,0,0,0,1.52-.31l0,0h0A1.26,1.26,0,0,0,1704.9,636Z"/><path class="cls-8" d="M1701,645.48a1.08,1.08,0,1,0,1.07,1.09v0h0a1,1,0,0,0-1-1.07Z"/><path class="cls-8" d="M1703,656.54a1.14,1.14,0,0,0,0,1.54,1.1,1.1,0,0,0,1.54,0,1.08,1.08,0,0,0,0-1.54A1.12,1.12,0,0,0,1703,656.54Z"/><path class="cls-8" d="M1710,663.57a1.09,1.09,0,0,0,1.61,1.47,1.14,1.14,0,0,0,0-1.54h0A1.23,1.23,0,0,0,1710,663.57Z"/><path class="cls-8" d="M1720.31,646.63a1.07,1.07,0,1,1,1.06,1.06h0a1,1,0,0,1-1.06-1Z"/><rect class="cls-8" x="1721.24" y="632.62" width="0.27" height="14"/><rect class="cls-8" x="1726.93" y="641.63" width="9.48" height="0.95" transform="translate(-26.99 1206.08) rotate(-38.13)"/><path class="cls-9" d="M1639.05,767.86s6-7,.33-11.38c0,0-4-2.49-7.43-2.28,0,0,4.69,7.91,3.21,8.71s-4.61-9.18-4.61-9.18-9.32-.9-12.26.54c0,0,8,6.5,6.29,6.89s-10.25-6-10.25-6-8.64,1.47-8.15,6.77,3.49,6.9,4.77,6.76,9-3,9.1-2-4.42,4.53-7.7,4.75c0,0,6.09,6.7,10.18,4.77s4.42-5,7-6.17,4.69-1.08,3.63,0-5.63,2.34-7,4.89-2.71,4.29,1.48,3.62,11-3.68,11.31-7.24Z"/><path class="cls-9" d="M1610.31,762.11s23.54-.91,28.67,5.82a17.17,17.17,0,0,0,4.69,6.63l.54,1.48s-4-4.29-5.5-4.53C1638.71,771.41,1641,763.11,1610.31,762.11Z"/><path class="cls-9" d="M1643.74,774.39a14.61,14.61,0,0,1,5.35,10.39l-.9.06s-1.61-6.9-4.53-9.58S1643.74,774.39,1643.74,774.39Z"/><path class="cls-10" d="M1659.88,759.16s-9.51-5.29-5-12.53c0,0,3.55-4.42,7.3-5.56,0,0-2,10.72,0,11s1.4-12.12,1.4-12.12,10-4.83,13.93-4.42c0,0-6.22,10.51-4.14,10.25s9-10.86,9-10.86,10.25-1.88,11.86,4.15-1,9-2.54,9.52-11.26.26-11.06,1.53,6.84,3.28,10.51,2.21c0,0-4,10-9.37,9.52s-7-3.82-10.25-4-5.69.67-4,1.54,7.25.26,9.85,2.54,4.82,3.62-.14,4.69-13.8.4-15.54-3.41Z"/><path class="cls-9" d="M1689.49,740.94S1663,749.51,1660,759.16a20,20,0,0,1-2.54,9.24v1.87s2.71-6.43,4.28-7.29C1661.62,763,1655.66,754.6,1689.49,740.94Z"/><path class="cls-9" d="M1657.33,768.4a17.46,17.46,0,0,0-1.73,13.8l1-.27s-1-8.31,1.07-12.53S1657.33,768.4,1657.33,768.4Z"/><path class="cls-10" d="M1644.86,751.86s12.46-7,6.62-16.55c0,0-4.68-5.83-9.64-7.3,0,0,2.72,14.13,0,14.49s-1.81-16-1.81-16-13.2-6.29-18.35-5.82c0,0,8.15,13.8,5.49,13.46s-11.85-14.34-11.85-14.34-13.47-2.47-15.68,5.5,1.34,12,3.28,12.53,14.81.33,14.49,2-9,4.35-13.8,2.81c0,0,5.36,13.19,12.32,12.52s9.18-5,13.47-5.36,7.5.91,5.29,2-9.51.41-13,3.29-6.34,4.83.2,6.17,18.11.46,20.5-4.53Z"/><path class="cls-9" d="M1605.82,727.8s35,11.33,39,24a27.12,27.12,0,0,0,3.28,12.13v2.47s-3.63-8.5-5.63-9.64C1642.53,756.81,1650.29,745.83,1605.82,727.8Z"/><path class="cls-9" d="M1648.09,764a23.29,23.29,0,0,1,2.34,18.11l-1.4-.4s1.34-11.06-1.47-16.55S1648.09,764,1648.09,764Z"/><path class="cls-11" d="M1645.21,803.83a24.44,24.44,0,0,1-24.44-24.44v-.07h49a24.53,24.53,0,0,1-24.52,24.51Z"/><path class="cls-12" d="M1652.44,803.63a21.54,21.54,0,0,1-3,.2A24.44,24.44,0,0,1,1625,779.39h6A24.49,24.49,0,0,0,1652.44,803.63Z"/><path class="cls-11" d="M1620.5,805.05h49.63a3,3,0,0,0-3-3h-43.63a3,3,0,0,0-3,3Z"/><polygon class="cls-13" points="1143.9 796.14 1147.51 814.76 1139.68 815.43 1130.77 797.27 1143.9 796.14"/><polygon class="cls-13" points="1396.36 764.25 1399.98 782.87 1392.14 783.54 1383.23 765.38 1396.36 764.25"/><rect class="cls-14" x="1119.38" y="898.02" width="55.53" height="45.75"/><rect class="cls-15" x="1147.11" y="898.02" width="55.53" height="45.75"/><polygon class="cls-16" points="1119.38 932.18 1128.22 932.18 1127.42 929.71 1128.22 927.9 1119.38 927.9 1119.38 932.18"/><polygon class="cls-17" points="1147.11 912.15 1155.88 912.15 1155.15 909.67 1155.88 907.93 1147.11 907.93 1147.11 912.15"/><polygon class="cls-16" points="1147.11 907.93 1138.34 907.93 1139.07 910.4 1138.34 912.15 1147.11 912.15 1147.11 907.93"/><polygon class="cls-17" points="1202.64 932.65 1193.87 932.65 1194.6 935.13 1193.87 936.87 1202.64 936.87 1202.64 932.65"/><rect class="cls-1" x="1183.01" y="901.1" width="15.94" height="6.23"/><rect class="cls-14" x="1208.61" y="898.02" width="55.53" height="45.75"/><rect class="cls-15" x="1236.34" y="898.02" width="55.53" height="45.75"/><polygon class="cls-16" points="1208.61 932.18 1217.44 932.18 1216.64 929.71 1217.44 927.9 1208.61 927.9 1208.61 932.18"/><polygon class="cls-17" points="1236.34 912.15 1245.11 912.15 1244.38 909.67 1245.11 907.93 1236.34 907.93 1236.34 912.15"/><polygon class="cls-16" points="1236.34 907.93 1227.56 907.93 1228.3 910.4 1227.56 912.15 1236.34 912.15 1236.34 907.93"/><polygon class="cls-17" points="1291.87 932.65 1283.09 932.65 1283.83 935.13 1283.09 936.87 1291.87 936.87 1291.87 932.65"/><rect class="cls-1" x="1272.24" y="901.1" width="15.94" height="6.23"/><rect class="cls-14" x="1167.01" y="852.74" width="55.53" height="45.75"/><rect class="cls-15" x="1194.74" y="852.74" width="55.53" height="45.75"/><polygon class="cls-16" points="1167.01 886.89 1175.78 886.89 1175.05 884.42 1175.78 882.68 1167.01 882.68 1167.01 886.89"/><polygon class="cls-17" points="1194.74 866.93 1203.51 866.93 1202.78 864.46 1203.51 862.65 1194.74 862.65 1194.74 866.93"/><polygon class="cls-16" points="1194.74 862.65 1185.96 862.65 1186.7 865.13 1185.96 866.93 1194.74 866.93 1194.74 862.65"/><polygon class="cls-17" points="1250.27 887.37 1241.49 887.37 1242.23 889.85 1241.49 891.66 1250.27 891.66 1250.27 887.37"/><rect class="cls-1" x="1230.64" y="855.82" width="15.94" height="6.23"/><path class="cls-18" d="M1375.19,691.44c-.73,2.27-10,5.36-23.78,8.63-2.47.61-5,1.21-7.69,1.75-47.08,10.45-177.38,27.53-185.59,26.86-11.39-.9-44.89-103.29-44.89-103.29s65-8.11,116.79-14.27c17.61-2.07,79.24-9.24,90.69-10.45C1338.36,598.76,1376.4,687.68,1375.19,691.44Z"/><path class="cls-19" d="M1355.7,680s-27.8-69.59-29.87-75.49a5.05,5.05,0,0,0-5-3.42c3.49-.67,6-1,6-1a16.09,16.09,0,0,1,16.48,9.17c6.34,13.58,19,39.79,30.88,65.38C1373.65,674.62,1355.7,680,1355.7,680Z"/><path class="cls-19" d="M1483.91,730.36c-1.2,18.35-20.82,32.08-42.27,34.4l-42.4,4.62-8-104.43s39.12-16.75,50.45-7c10,8.57,38.17,43.67,41.86,65.84A29.75,29.75,0,0,1,1483.91,730.36Z"/><path class="cls-20" d="M1483.91,730.36c-1.2,18.35-20.82,32.08-42.27,34.4L1420.88,767C1433.8,757.19,1443.59,730.36,1483.91,730.36Z"/><path class="cls-21" d="M1364.35,678.18s54.39-31.89,67-16.3c6.7,8.3,26.47,42.13,30,64.37,3.48,21.57-16.3,38.11-38.32,40.53l-39,4.23Z"/><path class="cls-22" d="M1448,746.33l-1.81,1.61c-7.63,6.63-18,12.32-29.94,16.48a134,134,0,0,1-29.74,6.42l-18.56,2h-.27L1280,782.37l-50.31,5.48-.74.08h0l-2.72-8.38L1200.92,695s219.91-28.53,238.8-21c8.85,3.55,15.55,21.43,20.36,41.46C1462.67,726.34,1457.86,737.12,1448,746.33Z"/><path class="cls-23" d="M1448,746.33l-1.81,1.61c-7.63,6.63-18,12.32-29.94,16.48a134,134,0,0,1-29.74,6.42l-18.56,2h-.27L1280,782.37l-50.31,5.48-.74.08-2.72-8.38c30.21-8.91,72.27-19.23,116.88-23.64C1385.51,751.76,1421.15,747.9,1448,746.33Z"/><path class="cls-19" d="M1269.23,754.6c-1.54,17.82-19.23,30.95-38.59,33.09l-39,4.22-8.31-105.33s36-15.39,46.49-5.63c9.24,8.63,35.5,43.94,39.12,66.17A28.41,28.41,0,0,1,1269.23,754.6Z"/><path class="cls-20" d="M1269.23,754.6c-1.54,17.82-19.23,30.95-38.59,33.09l-31.19,3.42C1213.16,780.73,1230.17,754.54,1269.23,754.6Z"/><path class="cls-24" d="M1247,757.75a31.65,31.65,0,0,1-9,18.49h0a42.17,42.17,0,0,1-10.31,7.84,49.81,49.81,0,0,1-15.74,5.48l-.91.14-.67.07-1.07.13-.6.07-39.06,4.22h0l-2.21.27c-4,.46-8.15,1-12.12,1.41l-2,.19-.73.08c-3.82.46-7.24.79-9.65,1.07a78.84,78.84,0,0,1-9.72.39,46.29,46.29,0,0,1-11-1.54,16.3,16.3,0,0,1-1.81-.53l-1.81-.61A34.32,34.32,0,0,1,1104,784.48a44.12,44.12,0,0,1-5.62-8.44,77.24,77.24,0,0,1-5.5-13.58l-.13-.4q-1.1-3.51-2-7.44c-.27-1.2-.54-2.41-.91-3.69-.9-4.41-1.74-9.17-2.48-14.33l-.2-1.34V735c-.53-4.08-1-8.36-1.4-12.93-.2-2-.34-4-.47-6.09-.07-.9-.14-1.87-.2-2.88q-.51-7.25-.81-15.27c-.06-2.41-.13-4.82-.26-7.31-.27-10.31-.33-21.42-.27-33.49.13-13.67.9-23.31,3.28-25.72,3.55-3.62,11.59-5.77,17.2-6.9h0c3.47-.67,6-1,6-1h3.68l.6.07.41.06h.32a16.4,16.4,0,0,1,11.53,9c6,12.73,16.61,35.57,27.73,59.48.06.14.13.2.19.34l1.88,4.15.21.4.06.21,1.4-.74h0c2-1,4.1-2.15,6.5-3.28h0c1.21-.61,2.48-1.21,3.82-1.81,3.69-1.75,7.71-3.49,11.77-5,1.81-.67,3.62-1.34,5.5-2,2.34-.8,4.69-1.47,7-2h.21l.8-.2c1.61-.4,3.21-.74,4.76-1h0c7.9-1.28,14.6-.61,18.1,3.75,1.88,2.42,3.62,5,5.23,7.5a244.29,244.29,0,0,1,14.66,27c4.76,10.31,8.85,21.1,10.25,30A29.48,29.48,0,0,1,1247,757.75Z"/><path class="cls-19" d="M1139.27,703.42s-27.79-69.6-29.94-75.49a5.05,5.05,0,0,0-5-3.41c3.48-.67,6-1,6-1a16.2,16.2,0,0,1,16.54,9.18C1133.22,646.27,1145,671.4,1157,697,1156.43,697.06,1139.27,703.42,1139.27,703.42Z"/><path class="cls-25" d="M1428.05,769.34c-.2-.14-6.9,1.6-8.85,1.6-1.6,0-7.77-1.34-8.5-2.88-.07-.2,7.1-.67,8.24-1.34.6-.33,2.94-1.87,5-1.73a26.54,26.54,0,0,0,3.09,0Z"/><path class="cls-25" d="M1078.72,691.7s6.49,10.58,17.15,8.15c0,0,2.94-4.89,3.55-8.77.06-.47.13-.91.2-1.42.74-4.35,1.2-6.76,1.2-6.76h0c-.4-.27-14.39-8.64-14.48-8.15C1084.88,686.68,1078.72,691.7,1078.72,691.7Z"/><path class="cls-26" d="M1087.42,677.9c1,2.88,5.16,8.85,12.2,11.86.74-4.35,1.2-6.77,1.2-6.77h0C1100.49,682.86,1087.19,677,1087.42,677.9Z"/><path class="cls-25" d="M1103.91,683.06s-17.36,1.41-18.11-9.45-3.41-17.94,7.63-19.28,13.47,2.61,14.61,6.23S1108.39,682.39,1103.91,683.06Z"/><path class="cls-13" d="M1086.09,676.56c-.27.14-4,.67-8.84-14a11.88,11.88,0,0,1,2.34-10.72c3.15-3.69,12.46-5.56,20-5.83s8.71,4.15,9.85,8.57c1.06,4.63,5.89,9,5.89,9-6.9,2.62-13.8-3.62-16.55-3.21s-4.42,4.42-4.75,5.76-.91,2.42-4,.67-2.21,4.53-1.88,5.69C1088.23,672.54,1088.23,675.62,1086.09,676.56Z"/><path class="cls-27" d="M1095.8,944.77h-27.16a2,2,0,0,1-.6-.13c-1.81-.91-1.28-7.91-1-10a2.08,2.08,0,0,1,.07-.61s9.58-7.71,10.92-1.81a1.22,1.22,0,0,0,.13.53h0c1.68,5.5,9.06,8,13.4,8.65C1094.73,941.87,1095.6,943.77,1095.8,944.77Z"/><path class="cls-27" d="M1024.33,944.77h-10.26c-2.2,0-4.52-2.14-5.15-6.09s-5-6-5.93-9.32,4-7.7,4-7.7l.81-1,.9-1.06,8.15,1.87s.2,1.95.33,4.43c.07,1.87.07,3.74,0,5.62-.27,4.29,1.21,9,5,9.78S1024.33,944.77,1024.33,944.77Z"/><path class="cls-28" d="M1090.37,787.69s-1.47,18.11-3.15,39.92c-2.34,29.62-5.08,66-5.36,72.88-.46,12-2.4,31.09-2.4,31.09s-4.53,4.53-13.67,2.61c0,0-8-27.33-10.45-56.2a9.6,9.6,0,0,0-.13-1.41c-2.22-29.47-5.49-91.43-5.49-91.43Z"/><path class="cls-29" d="M1083,791.31s2.88,6.57-2.34,27.73c-3.82,15.61-25.35,59-25.35,59a9.48,9.48,0,0,0-.13-1.41c-2.21-29.47-5.49-91.44-5.49-91.44Z"/><path class="cls-28" d="M1084.88,786.49s-27.46,69.06-44.68,99.94-22.63,39.46-22.63,39.46-10-4-10.78-6.64c0,0,6.62-59.61,18.15-74.15,6.5-8.24,14.2-32.82,14.54-41.47s2.33-25.62,2.33-25.62Z"/><path class="cls-13" d="M1086.35,789.64c-3.68-1-41.46-15.81-40.73-18,2.55-7.43,5.23-20,8.37-35.3.61-2.81,1.28-5.62,2-8.37a130,130,0,0,1,6.74-19.76c4.89-10.92,12.8-18.29,19.16-20.82.81-.34,2.54,2.27,6,5.28,3.15,2.72,6.33,2.72,10,3l2.87,5.16a40.73,40.73,0,0,1,4.62,15.87S1086.63,789.7,1086.35,789.64Z"/><path class="cls-28" d="M1105.45,716.69l-11.33-1.21-27.93,34a15.07,15.07,0,0,1-16.61,4.63h0L1041.92,778l47.39,15.39Z"/><path class="cls-29" d="M1087.19,700.41c-1.68-3.08-7.3-12.12-7.3-12.12s.73-.4.91-.47l1-.4c1.08.13,7,9.05,8.91,12.32,2.22,4,7.58,16.14,7.58,16.14l-4.3-.46C1094.12,715.35,1089.17,704.09,1087.19,700.41Z"/><path class="cls-25" d="M1103.17,786.88s2.81,1.48,4.52,1.42a17.62,17.62,0,0,1,5.3.73c2.47.53,2.61,1.41.73,1.81s-4-.4-3,.61,9.77,1.87,9.71,3-8.15,4.42-11.05,3.34-9.85-7-9.85-7Z"/><path class="cls-13" d="M1102.77,790.51c2.54-2,1.87-3.63,1.87-3.63s-17.45-28.46-18.68-31.14,1.4-37,1.4-37,1.61-13.74-5.09-17.76c-5.83-3.54-7.7-6.42-11.92-3.81-5,3.08-9.32,14.53-8.24,20.3,2.34,12.93,5.36,37.51,7.7,42.47,5.29,11,28.67,32.48,28.67,32.48A10.19,10.19,0,0,0,1102.77,790.51Z"/><path class="cls-25" d="M1502.72,694.18s-9.57,7.84-18.88,2c0,0-1.21-5.63-.47-9.44.06-.47.13-.91.2-1.34.73-4.36,1.07-6.77,1.07-6.77h0c.47-.13,16.48-3.42,16.35-2.88C1498.58,687.35,1502.72,694.18,1502.72,694.18Z"/><path class="cls-26" d="M1499.05,678.24c-1.94,2.41-7.77,6.63-15.39,7.17.74-4.36,1.08-6.77,1.08-6.77h0C1485.12,678.64,1499.58,677.57,1499.05,678.24Z"/><path class="cls-25" d="M1481.7,677.63s16,7,20.16-2.94,9.18-15.81-.9-20.77-13.58-1.94-15.81,1S1477.61,675.56,1481.7,677.63Z"/><path class="cls-30" d="M1500.72,677.37c.2.2,3.55,1.94,12.93-10.32a12,12,0,0,0,1.34-10.92c-1.74-4.53-10-9.38-17-12.12s-9.58,1-12.12,4.82c-2.62,4-8.51,6.63-8.51,6.63,5.62,4.69,14.19,1.08,16.67,2.42s2.62,5.62,2.62,7,0,2.55,3.55,2,.61,5-.14,6C1500.05,672.88,1499.05,675.83,1500.72,677.37Z"/><path class="cls-27" d="M1525.1,943.57h10.26c2.21,0,4.53-2.21,5.15-6.1s5-6.1,6-9.31-4-7.77-4-7.77l-.8-1-.91-1.07-8.1,1.87s-.2,1.94-.34,4.42a40.69,40.69,0,0,0,0,5.63c.27,4.28-1.2,8.91-5,9.78S1525.1,943.57,1525.1,943.57Z"/><path class="cls-27" d="M1453.64,943.57h27.16a1.81,1.81,0,0,0,.6-.14c1.81-.9,1.27-7.9,1-10a2,2,0,0,0-.06-.6s-9.58-7.64-10.92-1.81a1.66,1.66,0,0,1-.14.54h0c-1.67,5.49-9,8-13.4,8.64C1454.74,940.75,1453.84,942.63,1453.64,943.57Z"/><path class="cls-28" d="M1459.12,786.55s1.48,18.16,3.16,39.92c2.34,29.62,5.08,66,5.43,72.89.47,12,2.41,31.14,2.41,31.14s4.53,4.53,13.67,2.62c0,0,8.14-27.33,10.44-56.2,0-.47.07-.91.07-1.41,2.21-29.47,5.5-91.5,5.5-91.5Z"/><path class="cls-29" d="M1464.56,785.35s-.91,11.32,4.28,32.59c3.82,15.6,25.35,59,25.35,59,0-.47.07-.9.07-1.41,2.21-29.47,5.49-91.5,5.49-91.5Z"/><path class="cls-28" d="M1464.56,785.35s27.45,69.06,44.67,99.94,22.64,39.52,22.64,39.52,10-3.95,10.78-6.63c0,0-6.64-59.61-18.11-74.15-6.5-8.24-14.2-32.83-14.54-41.47s-2.34-25.65-2.34-25.65Z"/><path class="cls-13" d="M1463.14,784.08c3.82.26,44.36-1.28,44.36-3.55,0-7.91,1.68-20.57,3.76-36,.4-2.88.67-5.77.91-8.57a136.64,136.64,0,0,0,0-20.83c-1-11.92-6-21.51-11.26-26-.67-.6-3.15,1.34-7.37,3-3.88,1.54-6.89.46-10.38-.55l-4.42,3.9a43,43,0,0,0-9.58,13.39S1462.81,784,1463.14,784.08Z"/><path class="cls-28" d="M1469.11,708.85l11.05,2.61,15.32,41.27a15.12,15.12,0,0,0,14.09,9.89h0L1508.23,783l-49.11,3.69Z"/><path class="cls-13" d="M1425.64,766.72c-.81-3.14.73-3.94.73-3.94s31.29-11.66,33.9-13,21.72-30,21.72-30,7.17-11.77,15-10.87c6.77.81,10.18,5.36,11.85,10a14.31,14.31,0,0,1-3.94,15.61c-9.85,8.71-29.54,26-34.51,28.47-11.05,5.49-42.66,7.9-42.66,7.9A11.67,11.67,0,0,1,1425.64,766.72Z"/><path class="cls-29" d="M1491.68,699.54c2.54-2.41,10.86-9,10.86-9s-.67-.73-.9-.91a7.59,7.59,0,0,1-.67-.6c-1.08-.2-9.65,6.16-12.46,8.71-3.42,3-12.6,12.67-12.6,12.67l4.43,1C1480.23,711.46,1488.6,702.36,1491.68,699.54Z"/><path class="cls-31" d="M1430.12,815.36v3.28c0,1.07-.4,2.08-.8,2.08h-119c-.47,0-.8-.91-.8-2.08v-3.28c0-1.07.4-2.08.8-2.08h118.9C1429.72,813.32,1430.12,814.23,1430.12,815.36Z"/><path class="cls-32" d="M1430.12,815.36v3.28c0,1.07-.34,2.08-.73,2.08h-94.46c-.39,0-.73-.91-.73-2.08v-3.28c0-1.07.34-2.08.73-2.08h94.46C1429.72,813.32,1430.12,814.23,1430.12,815.36Z"/><rect class="cls-33" x="1315.52" y="820.72" width="84.47" height="123.05"/><rect class="cls-7" x="1339.23" y="820.72" width="84.47" height="123.05"/><path class="cls-8" d="M1419.14,937h-75.42V824.13h75.35V937Zm-74.63-.8h73.76V825h-73.76Z"/><rect class="cls-8" x="1344.18" y="861.51" width="74.55" height="0.81"/><rect class="cls-8" x="1344.18" y="899.56" width="74.55" height="0.81"/><path class="cls-8" d="M1389.06,831.43h-13.87a1.19,1.19,0,0,1-1.2-1.19v0h0a1.2,1.2,0,0,1,1.19-1.21h13.88a1.21,1.21,0,0,1,1.21,1.2h0a1.21,1.21,0,0,1-1.19,1.21Z"/><path class="cls-8" d="M1389.06,868.61h-13.87a1.19,1.19,0,0,1-1.2-1.19v0h0a1.19,1.19,0,0,1,1.19-1.2h13.88a1.2,1.2,0,0,1,1.21,1.19h0a1.21,1.21,0,0,1-1.19,1.21Z"/><path class="cls-8" d="M1389.06,907.39h-13.87a1.19,1.19,0,0,1-1.2-1.19h0a1.2,1.2,0,0,1,1.19-1.21h13.88a1.21,1.21,0,0,1,1.21,1.19v0h0a1.19,1.19,0,0,1-1.19,1.2Z"/><rect class="cls-14" x="1570.32" y="856.01" width="106.44" height="87.75"/><rect class="cls-15" x="1623.51" y="856.01" width="106.44" height="87.75"/><polygon class="cls-13" points="1570.39 921.53 1587.2 921.53 1585.73 916.77 1587.2 913.36 1570.39 913.36 1570.39 921.53"/><polygon class="cls-34" points="1623.51 883.15 1640.39 883.15 1638.92 878.39 1640.39 875.04 1623.51 875.04 1623.51 883.15"/><polygon class="cls-13" points="1623.51 875.04 1606.63 875.04 1608.1 879.8 1606.63 883.15 1623.51 883.15 1623.51 875.04"/><polygon class="cls-34" points="1729.95 922.46 1713.06 922.46 1714.54 927.23 1713.06 930.58 1729.95 930.58 1729.95 922.46"/><rect class="cls-1" x="1692.37" y="861.98" width="30.61" height="11.92"/><rect class="cls-29" x="1628.06" y="805.11" width="61.7" height="50.84"/><rect class="cls-28" x="1597.25" y="805.11" width="61.7" height="50.84"/><polygon class="cls-35" points="1689.76 843.09 1679.97 843.09 1680.78 840.28 1679.97 838.33 1689.76 838.33 1689.76 843.09"/><polygon class="cls-25" points="1658.94 820.85 1649.17 820.85 1650.04 818.11 1649.17 816.1 1658.94 816.1 1658.94 820.85"/><polygon class="cls-35" points="1658.94 816.1 1668.72 816.1 1667.85 818.91 1668.72 820.85 1658.94 820.85 1658.94 816.1"/><polygon class="cls-25" points="1597.25 843.63 1607.03 843.63 1606.16 846.37 1607.03 848.32 1597.25 848.32 1597.25 843.63"/><rect class="cls-29" x="1682.85" y="883.15" width="73.48" height="60.62"/><rect class="cls-28" x="1646.08" y="883.15" width="73.48" height="60.62"/><polygon class="cls-35" points="1756.28 928.43 1744.61 928.43 1745.69 925.14 1744.61 922.8 1756.28 922.8 1756.28 928.43"/><polygon class="cls-25" points="1719.56 901.9 1707.98 901.9 1708.98 898.62 1707.98 896.27 1719.56 896.27 1719.56 901.9"/><polygon class="cls-35" points="1719.56 896.27 1731.22 896.27 1730.22 899.56 1731.22 901.9 1719.56 901.9 1719.56 896.27"/><polygon class="cls-25" points="1646.08 929.04 1657.74 929.04 1656.74 932.31 1657.74 934.66 1646.08 934.66 1646.08 929.04"/><rect class="cls-36" x="1861.1" y="706.51" width="61.43" height="50.64"/><rect class="cls-28" x="1891.85" y="706.51" width="61.43" height="50.64"/><polygon class="cls-37" points="1861.17 744.29 1870.89 744.29 1870.02 741.61 1870.89 739.6 1861.17 739.6 1861.17 744.29"/><polygon class="cls-25" points="1891.85 722.18 1901.57 722.18 1900.69 719.44 1901.57 717.49 1891.85 717.49 1891.85 722.18"/><polygon class="cls-37" points="1891.85 717.49 1882.07 717.49 1882.95 720.24 1882.07 722.18 1891.85 722.18 1891.85 717.49"/><polygon class="cls-25" points="1953.28 744.82 1943.57 744.82 1944.43 747.57 1943.57 749.58 1953.28 749.58 1953.28 744.82"/><rect class="cls-1" x="1931.57" y="709.92" width="17.68" height="6.9"/><path class="cls-25" d="M1924.27,755c1.48-1,4.89-3.08,5-2.61a2,2,0,0,1-.54,1.6c2-.66,4-1.06,8.84,0a3.46,3.46,0,0,1,2.28,1.68,1.6,1.6,0,0,1-.27,2.22h0c-.14.06-.26.2-.4.2-2.48,1.4-1.75.53-5.22,2.6s-7.64,2.48-10,.91l-3.29-.67-.2-5.5S1922.33,755.21,1924.27,755Z"/><path class="cls-25" d="M1838.2,698.47s9.44,7.7,18.56,2c0,0,1.06-5.49.46-9.31a7.4,7.4,0,0,0-.27-1.34c-.74-4.29-1-6.63-1-6.63h0c-.47-.07-16.21-3.29-16.14-2.89C1842.22,691.77,1838.2,698.47,1838.2,698.47Z"/><path class="cls-26" d="M1841.82,682.79c1.87,2.35,7.69,6.5,15.13,7-.74-4.29-1-6.63-1-6.63h0C1855.48,683.13,1841.21,682.05,1841.82,682.79Z"/><path class="cls-25" d="M1858.89,682.19s-15.67,7-19.82-2.88-9-15.54.9-20.36,13.4-1.94,15.54,1S1862.85,680.11,1858.89,682.19Z"/><path class="cls-13" d="M1840.07,681.92c-.2.2-3.55,2-12.73-10a11.78,11.78,0,0,1-1.27-10.71c1.68-4.42,9.78-9.25,16.75-11.93a14.15,14.15,0,0,1,8.77-.4,5.44,5.44,0,0,1,3.84,6.66v.11c-1.34,4.52-4.53,7.43-8.71,7.3-2.72-.07-2.62,5.49-2.56,6.9s0,2.48-3.55,1.94c-3-.46-1.26,3.48-.26,5.22a4.88,4.88,0,0,1,.67,2.89A2.83,2.83,0,0,1,1840.07,681.92Z"/><path class="cls-27" d="M1816.16,943.77h-10.05c-2.14,0-4.43-2.15-5-6s-5-6-5.9-9.17,3.89-7.71,3.89-7.71l.8-1,.91-1.08,8,1.87s.2,1.89.33,4.36c.07,1.81.07,3.68,0,5.49-.2,4.22,1.21,8.85,5,9.65S1816.16,943.77,1816.16,943.77Z"/><path class="cls-27" d="M1886.42,943.77h-26.79a.79.79,0,0,1-.53-.2c-1.81-.91-1.21-7.71-1-9.85a2,2,0,0,1,.07-.6s9.44-7.57,10.72-1.75a1.52,1.52,0,0,0,.13.55h0c1.61,5.43,8.91,7.83,13.13,8.5C1885.42,941,1886.22,942.83,1886.42,943.77Z"/><path class="cls-28" d="M1881.06,789.3s-1.4,17.82-3.14,39.32c-2.28,29.14-5,64.91-5.29,71.67-.48,11.73-2.35,30.62-2.35,30.62s-4.42,4.53-13.4,2.61c0,0-8-26.86-10.25-55.33,0-.47-.06-.91-.06-1.41-2.15-29-5.43-90-5.43-90Z"/><path class="cls-29" d="M1875.71,788.16s.91,11.06-4.22,32c-3.74,15.39-24.85,58-24.85,58,0-.47-.06-.9-.06-1.4-2.15-29-5.43-89.9-5.43-89.9Z"/><path class="cls-28" d="M1875.71,788.16s-27,67.9-43.93,98.27-22.25,38.85-22.25,38.85-9.71-3.88-10.58-6.56c0,0,6.5-58.61,17.82-73,6.43-8,13.93-32.29,14.34-40.8s2.27-25.25,2.27-25.25Z"/><path class="cls-13" d="M1877.12,786.88c-3.75.21-43.61-1.26-43.61-3.47,0-7.71-1.68-20.3-3.69-35.51-.33-2.81-.67-5.62-.9-8.44a129.78,129.78,0,0,1,0-20.49c1-11.73,5.95-21.17,11-25.52.67-.55,3.15,1.34,7.24,3,3.82,1.54,6.84.46,10.25-.54l4.42,3.82a42.63,42.63,0,0,1,9.45,13.26C1871.29,713.07,1877.45,786.88,1877.12,786.88Z"/><path class="cls-28" d="M1871.19,712.94l-10.87,2.54-14.94,40.6a14.85,14.85,0,0,1-13.93,9.71h0l1.34,20,48.3,3.62Z"/><path class="cls-13" d="M1923.4,758.1c.34-3.15-1.27-3.76-1.27-3.76s-32.09-7.11-34.83-8S1862,720.07,1862,720.07s-8.63-10.52-16.08-8.57c-6.49,1.67-9.17,6.64-10.17,11.32a13.92,13.92,0,0,0,6,14.6c10.79,7.17,32.3,21.37,37.52,23.11,11.45,3.82,42.6,2,42.6,2A11.42,11.42,0,0,0,1923.4,758.1Z"/><path class="cls-29" d="M1849.05,703.7c-2.55-2.35-10.65-8.85-10.65-8.85l1.53-1.47c1.08-.2,9.52,6,12.26,8.57,3.29,3,12.73,12.39,12.73,12.39l-4.53,1.08C1860.37,715.48,1852,706.49,1849.05,703.7Z"/><polygon class="cls-13" points="1211.29 789.97 1214.9 808.59 1207.06 809.26 1198.15 791.11 1211.29 789.97"/><path class="cls-38" d="M963.16,943.77h988.47a1.27,1.27,0,0,1,1.28,1.27h0a1.27,1.27,0,0,1-1.28,1.27H963.16a1.27,1.27,0,0,1-1.27-1.27h0a1.26,1.26,0,0,1,1.26-1.27Z"/><path class="cls-2" d="M1534.89,1.59V438.21c0,5-.47,8.88-1,8.88h-.08c-.47,0-.9-3.36-1-7.84V1.71Z"/><path class="cls-3" d="M1533.89,431.19c-19.57,0-35.45,18.73-35.45,41.81h70.88C1569.32,449.85,1553.44,431.19,1533.89,431.19Z"/><path class="cls-4" d="M1536.69,431.71a14.49,14.49,0,0,0-3.08-.37c-12.73,0-23.17,18.67-23.17,41.66h6.16C1516.67,451.87,1525.38,434.48,1536.69,431.71Z"/></svg>