<svg id="Layer_1" data-name="Layer 1" xmlns="http://www.w3.org/2000/svg" viewBox="0 0 1957.26 1134.2"><defs><style>.cls-1{fill:#fff;}.cls-2{fill:orange;opacity:0.3;}.cls-3{fill:#82b378;}.cls-4{fill:#2e3552;}.cls-5{fill:#db6161;}.cls-6{fill:#233862;}.cls-7{fill:#e69d43;}.cls-8{fill:#d57912;}.cls-9{fill:#b65615;}.cls-10{fill:#d36e2a;}.cls-11{fill:#f59040;}.cls-12{fill:#dce7f9;}.cls-13{fill:#d15050;}.cls-14{fill:#b64c41;}.cls-15{fill:#a03c37;}.cls-16{fill:#c44943;}.cls-17{fill:#ffb27d;}.cls-18{fill:#2b478b;}.cls-19{fill:#ffb07b;}.cls-20{fill:#ea8e50;}.cls-21{fill:#2c3a64;}.cls-22{fill:#ed975d;}.cls-23{fill:#ed985f;}</style></defs><rect class="cls-1" width="1956.83" height="1134.2"/><path class="cls-2" d="M1906.44,995.1c-76.76-7.65-147.58,31-220.18,59.15-46.13,17.89-96.4,30.64-144.87,20.77-72-14.65-127.22-76.16-198.87-92.31-46.8-10.55-98,.3-136.49,28.92s-63.63,74.53-67,122.38l815.94-.11.28-127.48A195.79,195.79,0,0,0,1906.44,995.1Z" transform="translate(2.01 0.19)"/><path class="cls-2" d="M1290.87,37.42c2.1,37.65,14.14,74.9,37.74,104.64A174.51,174.51,0,0,0,1374,182c18.12,11.14,38.08,18.38,58.67,23.45,41.58,10.24,84.71,12.25,126.24,22.71,20,5,39.59,12.14,57.09,23.1,18.89,11.82,34.14,28,46.46,46.47,25.92,38.83,35.7,85,45.49,129.91,5,22.88,9.81,46.13,17.6,68.26a285.77,285.77,0,0,0,29.84,60.56A235.18,235.18,0,0,0,1864.52,646a238.65,238.65,0,0,0,90.3,17.18V-.19H1291.76A243.46,243.46,0,0,0,1290.87,37.42Z" transform="translate(2.01 0.19)"/><path class="cls-3" d="M1816.81,945.79c-1.45-2.26-5.76-8.14-11.53-7.41-6.3.83,7,5,11,7.41a6.58,6.58,0,0,1-2.25-.25c-2.71-1-7.36.88-8.84,1.53H1831a4.09,4.09,0,0,0-1.84-2.36,4.59,4.59,0,0,0-2.38-.21c1.54-1.81,2.6-7.6-1.65-6.11-3.12,1.09-3.11,4.62-2.81,6.71-.66.11-1.34.22-2,.31-1.28-6.59-5.83-25.77-15-26.28s7.93,19.93,13.68,26.47C1818.18,945.7,1817.46,945.77,1816.81,945.79Z" transform="translate(2.01 0.19)"/><path class="cls-4" d="M1947.23,949.13h-907.5a1.3,1.3,0,0,1-1.3-1.3h0a1.3,1.3,0,0,1,1.3-1.3h907.55a1.3,1.3,0,0,1,1.3,1.3h0a1.3,1.3,0,0,1-1.3,1.3Z" transform="translate(2.01 0.19)"/><polygon class="cls-5" points="1524.31 696.76 1297.15 696.76 1297.15 889.11 1551.66 889.11 1524.31 696.76"/><polygon class="cls-6" points="1514.36 703.35 1256.92 703.35 1256.92 889.11 1541.06 889.11 1514.36 703.35"/><rect class="cls-7" x="1403.33" y="853.61" width="35.01" height="35.49"/><rect class="cls-8" x="1436.88" y="853.61" width="16.03" height="35.49"/><rect class="cls-7" x="1401.47" y="819.09" width="58.05" height="35.01"/><rect class="cls-8" x="1458.06" y="819.09" width="16.03" height="35.01"/><rect class="cls-9" x="1079.1" y="866.44" width="81.37" height="36.09" rx="8.26"/><circle class="cls-6" cx="1384.15" cy="914.48" r="32.61"/><circle class="cls-6" cx="1508.91" cy="914.56" r="32.61"/><circle class="cls-6" cx="1122.82" cy="914.44" r="32.61"/><circle class="cls-10" cx="1122.82" cy="914.45" r="16.46"/><circle class="cls-11" cx="1122.82" cy="914.45" r="16.46"/><path class="cls-10" d="M1131.77,902a16.47,16.47,0,0,1-26,19,16.47,16.47,0,1,0,26-19Z" transform="translate(2.01 0.19)"/><circle class="cls-9" cx="1122.82" cy="914.45" r="5.11"/><circle class="cls-9" cx="1114.14" cy="923.19" r="1.98"/><circle class="cls-9" cx="1111.83" cy="908.52" r="1.98"/><circle class="cls-9" cx="1133.56" cy="908.52" r="1.98"/><circle class="cls-9" cx="1131.91" cy="923.19" r="1.98"/><circle class="cls-9" cx="1122.82" cy="901.87" r="1.98"/><circle class="cls-10" cx="1383.57" cy="914.45" r="16.46"/><circle class="cls-10" cx="1383.57" cy="914.45" r="16.46"/><circle class="cls-9" cx="1383.57" cy="914.45" r="5.11"/><circle class="cls-9" cx="1374.88" cy="923.19" r="1.98"/><circle class="cls-9" cx="1372.58" cy="908.52" r="1.98"/><circle class="cls-9" cx="1394.31" cy="908.52" r="1.98"/><circle class="cls-9" cx="1392.66" cy="923.19" r="1.98"/><circle class="cls-9" cx="1383.57" cy="901.87" r="1.98"/><circle class="cls-6" cx="1215.48" cy="914.45" r="32.61"/><path class="cls-8" d="M1120.43,738.15s17.7-26.69,38.16-26.91l-1.82,28.88Z" transform="translate(2.01 0.19)"/><path class="cls-7" d="M1224.7,860.11H1083.05l11.8-95.65a31,31,0,0,1,30.79-27.24h99.06Z" transform="translate(2.01 0.19)"/><path class="cls-8" d="M1142.37,801.62h-39.72l5.26-37.77a15.72,15.72,0,0,1,15.59-13.57h20.09Z" transform="translate(2.01 0.19)"/><path class="cls-12" d="M1139.43,798.78h-26.15a6.53,6.53,0,0,1-6.54-6.51,6.8,6.8,0,0,1,.06-.9l3.47-26.09a13.58,13.58,0,0,1,13.18-12h17Z" transform="translate(2.01 0.19)"/><polygon class="cls-13" points="1419.37 889.11 1146.93 889.11 1159.08 696.76 1403.27 696.76 1419.37 889.11"/><polygon class="cls-14" points="1408.7 881.81 1156.93 881.81 1168.16 704.06 1393.82 704.06 1405.89 848.14 1408.7 881.81"/><path class="cls-8" d="M1169.49,860.11h-86.44c-7.61.5-8.34,4.27-8.34,4.27l-7.41,35.75a2.37,2.37,0,0,0,2.47,2.21h21.73a3.37,3.37,0,0,0,3-2.27s3.35-4.12,5.59-5.62a35.21,35.21,0,0,1,20.72-6.12c11.08,0,20.87,3.52,26.76,8.91h21.92c2.65,0,4.81-1.39,4.81-3.07v-31C1174.29,861.49,1172.13,860.11,1169.49,860.11Z" transform="translate(2.01 0.19)"/><path class="cls-13" d="M1426.1,930.28h-27.39a25.5,25.5,0,0,0-3.43-8.82c-8.24-13.27-27.65-17.3-38.71-18.56-4.83-.55-8.07-.56-8.07-.56h47.08a34.62,34.62,0,0,1,24.4,14.83A40.22,40.22,0,0,1,1426.1,930.28Z" transform="translate(2.01 0.19)"/><path class="cls-13" d="M1549.64,930.28h-27.38a25.43,25.43,0,0,0-4.12-9.88c-12.51-18-46.05-18.07-46.05-18.07h47.08A34.42,34.42,0,0,1,1541.1,914,40.61,40.61,0,0,1,1549.64,930.28Z" transform="translate(2.01 0.19)"/><path class="cls-15" d="M1420,917.16s-18-3.81-24.71,4.3c-8.23-13.27-27.64-17.3-38.7-18.56l-.67-.56h39.68A34.6,34.6,0,0,1,1420,917.16Z" transform="translate(2.01 0.19)"/><path class="cls-15" d="M1541.09,914h0s-15.08-.34-22.95,6.4c-12.51-18-46.06-18.07-46.06-18.07h47.08A34.45,34.45,0,0,1,1541.09,914Z" transform="translate(2.01 0.19)"/><rect class="cls-15" x="1149.43" y="889.11" width="408.99" height="18.65" rx="9.17"/><rect class="cls-15" x="1166.74" y="893.79" width="81.37" height="41.32" rx="8.84"/><path class="cls-16" d="M1407,881.62H1155.25l11.23-177.74h44c13.76,40.6,60.33,136.86,193.75,144.08Z" transform="translate(2.01 0.19)"/><path class="cls-14" d="M1085.63,783.11s-3.54,19-3.36,22.13,3.11,4.62,5.33,4.62Z" transform="translate(2.01 0.19)"/><rect class="cls-8" x="1087.5" y="781.71" width="13.19" height="28.34" rx="5.72"/><rect class="cls-12" x="1088.97" y="783.3" width="10.72" height="25.37" rx="4.88"/><path class="cls-14" d="M1092.08,782a.49.49,0,0,1-.44-.52v-8.06A5.06,5.06,0,0,1,1097,769c4.39.13,6.28,0,6.29,0a.47.47,0,0,1,.47.47h0a.51.51,0,0,1-.41.55c-.08,0-1.94.14-6.37,0a4,4,0,0,0-4.44,3.52v8a.48.48,0,0,1-.44.52Z" transform="translate(2.01 0.19)"/><path class="cls-8" d="M1138.68,813.94h-8a2,2,0,0,1-2-2.05h0a2,2,0,0,1,2-2h8a2,2,0,0,1,2,2h0a2.06,2.06,0,0,1-2.06,2.05Z" transform="translate(2.01 0.19)"/><rect class="cls-7" x="1461.43" y="854.1" width="35.01" height="35.01"/><rect class="cls-8" x="1494.99" y="854.1" width="16.03" height="35.01"/><path class="cls-1" d="M1216.13,781.8a12.19,12.19,0,0,1,4,.61,7.79,7.79,0,0,1,2.84,1.74,7.64,7.64,0,0,1,1.76,2.72,12.47,12.47,0,0,1,.73,3.57,44.69,44.69,0,0,1,0,4.63,12.33,12.33,0,0,1-.73,3.56,7.87,7.87,0,0,1-1.74,2.72,7.63,7.63,0,0,1-2.8,1.74,11.7,11.7,0,0,1-3.93.61h-7.88a.83.83,0,0,1-.83-.82V782.65a.82.82,0,0,1,.25-.59.8.8,0,0,1,.59-.26Zm5.12,8.64a6.22,6.22,0,0,0-.38-1.86,4.33,4.33,0,0,0-1-1.51,4.25,4.25,0,0,0-1.64-1,6.79,6.79,0,0,0-2.32-.37h-4.19v14.08h4.35a6,6,0,0,0,2.22-.37,4.34,4.34,0,0,0,1.56-1,4.2,4.2,0,0,0,1-1.49,6.42,6.42,0,0,0,.38-1.88,42.07,42.07,0,0,0,0-4.63Z" transform="translate(2.01 0.19)"/><path class="cls-1" d="M1244.15,799.79a.82.82,0,0,1,.82.82v2.22a.87.87,0,0,1-.82.82h-13.73a.79.79,0,0,1-.59-.26.82.82,0,0,1-.25-.59V782.65a.82.82,0,0,1,.82-.82h13.48a.82.82,0,0,1,.83.82v2.22a.84.84,0,0,1-.25.6.85.85,0,0,1-.59.24h-10.11v4.94h9.42a.83.83,0,0,1,.82.83v2.22a.82.82,0,0,1-.82.82h-9.42v5.19Z" transform="translate(2.01 0.19)"/><path class="cls-1" d="M1263.42,799.79a.85.85,0,0,1,.59.24.86.86,0,0,1,.25.61v2.21a.82.82,0,0,1-.25.59.79.79,0,0,1-.59.26h-13.69a.79.79,0,0,1-.59-.26.82.82,0,0,1-.25-.59v-20.2a.82.82,0,0,1,.83-.82h2.53a.82.82,0,0,1,.83.82v17.14Z" transform="translate(2.01 0.19)"/><path class="cls-1" d="M1268.11,803.7a.81.81,0,0,1-.6-.26.77.77,0,0,1-.24-.59v-20.2a.81.81,0,0,1,.82-.82h2.54a.87.87,0,0,1,.82.82v20.2a.77.77,0,0,1-.26.59.79.79,0,0,1-.59.26Z" transform="translate(2.01 0.19)"/><path class="cls-1" d="M1284.32,797.51l5.26-14.93a1.52,1.52,0,0,1,.32-.51.88.88,0,0,1,.7-.27H1293a.81.81,0,0,1,.6.26.77.77,0,0,1,.24.59v.11a.47.47,0,0,1-.06.2l-7,19.68a2.33,2.33,0,0,1-.44.82,1,1,0,0,1-.76.26h-2.47a1,1,0,0,1-.75-.26,2.33,2.33,0,0,1-.44-.82l-7-19.68a1.18,1.18,0,0,1-.07-.2v-.11a.82.82,0,0,1,.25-.59.83.83,0,0,1,.6-.26h2.37a.89.89,0,0,1,.71.27,1.72,1.72,0,0,1,.33.51Z" transform="translate(2.01 0.19)"/><path class="cls-1" d="M1311.7,799.79a.83.83,0,0,1,.83.82v2.22a.88.88,0,0,1-.83.82H1298a.81.81,0,0,1-.6-.26.77.77,0,0,1-.24-.59V782.65a.81.81,0,0,1,.82-.82h13.54a.82.82,0,0,1,.82.82v2.22a.84.84,0,0,1-.25.6.85.85,0,0,1-.59.24h-10.1v4.94h9.41a.83.83,0,0,1,.82.83v2.22a.82.82,0,0,1-.82.82h-9.41v5.19Z" transform="translate(2.01 0.19)"/><path class="cls-1" d="M1325.34,781.8a8.68,8.68,0,0,1,6,1.82,6.41,6.41,0,0,1,2,5,7,7,0,0,1-1,3.9,6.19,6.19,0,0,1-3.08,2.39l4.31,7.73a.67.67,0,0,1,.1.34.66.66,0,0,1-.2.48.67.67,0,0,1-.49.21h-2.66a1.24,1.24,0,0,1-.92-.3,2.06,2.06,0,0,1-.42-.55l-4.12-7.29h-4.17v7.29a.85.85,0,0,1-.84.85h-2.52a.79.79,0,0,1-.59-.26.82.82,0,0,1-.25-.59v-20.2a.82.82,0,0,1,.83-.82Zm-4.69,9.88h4.54a5.66,5.66,0,0,0,2.85-.62,2.55,2.55,0,0,0,1.06-2.38,2.49,2.49,0,0,0-1.06-2.35,5.87,5.87,0,0,0-2.85-.59h-4.54Z" transform="translate(2.01 0.19)"/><path class="cls-1" d="M1353.21,781.8a.87.87,0,0,1,.82.82.52.52,0,0,1-.06.28L1346.56,796v6.88a.88.88,0,0,1-.83.82h-2.47a.82.82,0,0,1-.82-.82V796L1335,782.9a.53.53,0,0,1-.07-.28.8.8,0,0,1,.26-.59.82.82,0,0,1,.59-.25h2.35a1.29,1.29,0,0,1,.94.31,2.13,2.13,0,0,1,.37.47l5.06,8.85,5.07-8.85a2.13,2.13,0,0,1,.37-.47,1.25,1.25,0,0,1,.94-.31Z" transform="translate(2.01 0.19)"/><path class="cls-15" d="M1718.1,827.66c1-2.07.44-3.17.44-3.17s-22.08-8.2-24.22-8.74c-1.47-.38-18-7.27-26.32-12.09-4.11-2.39-7.3.18-11.06,2.81l-3.09,2.16c-3.74,2.62-2.83,8.79,1.55,10.44,12.35,4.64,31.29,8.1,34.94,8.95,9,2.12,25.41,2.67,25.41,2.67A10.05,10.05,0,0,0,1718.1,827.66Z" transform="translate(2.01 0.19)"/><path class="cls-17" d="M1823.06,827.37l-3,.16a6.37,6.37,0,0,0-8,3.45s-1,2.33.82,2.47,1.14-.19,3.71,0,5-.77,5.83-2.47l1.65-1.38Z" transform="translate(2.01 0.19)"/><path class="cls-6" d="M1820.89,829.52c-.64-2-.49-2.37-.49-2.37s18.12-9.73,19.77-10.7,20.39-20.83,20.39-20.83l19.12,5.31s-29.65,22.49-33.91,24.91c-7,4-23.28,6.23-23.28,6.23A6,6,0,0,1,1820.89,829.52Z" transform="translate(2.01 0.19)"/><path class="cls-8" d="M1847,840.78,1702.4,871.57l-19.14-89.93,144.6-30.78Z" transform="translate(2.01 0.19)"/><path class="cls-7" d="M1811.85,848.27l-109.45,23.3-19.14-89.93,109.45-23.29Z" transform="translate(2.01 0.19)"/><path class="cls-6" d="M1734,935s2.91,3.22,9.69,1.48c0,0,5.47-1.25,6.67,1.47,0,0-6.88,4.36-9,5.52a25.6,25.6,0,0,0-4.45,3.29,2.18,2.18,0,0,1-3.09-.15l-.08-.09c-.37-.46-.83-1-1.26-1.65-1.29-1.75-4.3-7.41-4.3-7.41Z" transform="translate(2.01 0.19)"/><path class="cls-18" d="M1736.54,933.28s-2.69,6.21-8.91,5.07c0,0-12.68-10.48-21.41-21.36a47.75,47.75,0,0,1-6.65-10.38c-5.76-13.36-21.34-33.28-31.24-43.38l24.77-9s7.93,16,18.49,35.56C1719.23,904,1728.21,920,1736.54,933.28Z" transform="translate(2.01 0.19)"/><path class="cls-6" d="M1711.62,889.84,1706.25,917a48,48,0,0,1-6.65-10.39c-5.76-13.35-21.34-33.27-31.24-43.38l24.77-9S1701,870.23,1711.62,889.84Z" transform="translate(2.01 0.19)"/><path class="cls-6" d="M1691.37,938.58s-.26,4.94,5.76,5.62c0,0,3.63.07,3.64,3.23h-17.65a13.66,13.66,0,0,1-.63-4c-.1-2.09,2-7.56,2-7.56Z" transform="translate(2.01 0.19)"/><path class="cls-18" d="M1685,854.27s11,12.13,18,34c3.81,11.9-7,41.78-9.06,52.16,0,0-7.25.62-12.2-1.3,0,0-.38-21.41,2.52-38,1.65-9.25-14.53-19.77-21.58-36.5-4.81-11.38,1-11.18,8.23-11.45Z" transform="translate(2.01 0.19)"/><path class="cls-19" d="M1672.26,800.17c-6.13,3.47-18.71.28-18.71.28s5.11-5.84,2.79-15.24l4.82,2.47,5.18,2.64a45,45,0,0,1,.57,4.63c.06.77.11,1.65.15,2.56A16.12,16.12,0,0,1,1672.26,800.17Z" transform="translate(2.01 0.19)"/><path class="cls-14" d="M1694.78,853.65c0,1.08-1.25,1.6-1.51,1.64-2.47.46-9.39,3.15-15.65,3.77a50.14,50.14,0,0,1-15.45-1c-.71-.15-2.38-.59-2.47-1.27S1639.11,815,1655,797.35c.37-.41,3.52.33,6.39,1a11.76,11.76,0,0,0,7.27-.59l2.69,1.42c3.29,1.84,9.58,8.4,10.31,13.54.38,2.62,1.87,4.56,2.31,6.86.15.82.32,1.64.48,2.47.33,1.59.67,3.09,1,4.53.93,3.9,1.92,7.24,2.89,10.14,1,3.07,2.05,5.63,3,7.76,1.18,2.77,2.17,4.84,2.79,6.43A8,8,0,0,1,1694.78,853.65Z" transform="translate(2.01 0.19)"/><path class="cls-15" d="M1694.09,850.93c-28.92-13.63-38.94-39.79-38.94-39.79s23.3,7.65,29.1,9.88c.32,1.59.86,4.12,1.21,5.55.93,3.89,1.92,7.24,2.89,10.14,1,3.06,2.05,5.62,3,7.75C1692.48,847.29,1693.47,849.36,1694.09,850.93Z" transform="translate(2.01 0.19)"/><path class="cls-19" d="M1704.44,784.52l.55-2.6s-4.21-4.46,1-8.36c0,0,2.32-1.47,3.12.22s.19,1.11,1.37,3.47.94,5-.7,6.09l-1,1.86Z" transform="translate(2.01 0.19)"/><path class="cls-20" d="M1666.91,794.93c-6,.34-10-4.65-10-4.65a49.45,49.45,0,0,0,4.22-2.62l5.18,2.63A45.21,45.21,0,0,1,1666.91,794.93Z" transform="translate(2.01 0.19)"/><path class="cls-19" d="M1669.48,788.73s-9.15,6.59-13.18.82-7.87-8.79-2.2-13.23,8.35-3,10.15-1.43S1671.76,786.87,1669.48,788.73Z" transform="translate(2.01 0.19)"/><path class="cls-6" d="M1665.24,769.67a14.49,14.49,0,0,0-1.06-3.77s-.58,2.38-5,2.05-11.24.43-13.53,5.38a8.18,8.18,0,0,0-.39,1,11.64,11.64,0,0,1-.52-2.74,8.52,8.52,0,0,0,0,4.8h0v.23a9.63,9.63,0,0,0-1.76,3.29,3,3,0,0,1,1.64-1.45c0,3.86,1.55,7.63,4.29,8.75,4,1.65,4,.39,8,3.06,0,0,1.08-1.34.34-2.25s-3.53-2.2-2-3.52,2.14.16,2.71-.73-2.3-3.54,1.39-6S1665.57,771.87,1665.24,769.67Z" transform="translate(2.01 0.19)"/><path class="cls-21" d="M1917.05,932.94s3.08,2.86,2.48,4.88-3.38,3.38-3.75,5.86-1.88,3.83-3.23,3.83h-6.45s-1-1.75,1.41-2.28,3.29-3.43,3.16-6.13a49.23,49.23,0,0,1,.22-6.31l5.11-1.2Z" transform="translate(2.01 0.19)"/><path class="cls-21" d="M1878.69,947.4a1.58,1.58,0,0,1-.37.11h-17.08c.14-.6.67-1.8,2.73-2.14,2.69-.43,7.36-2,8.4-5.44a1.56,1.56,0,0,1,.09-.34c.82-3.68,6.83,1.13,6.83,1.13v.4C1879.47,942.47,1879.83,946.83,1878.69,947.4Z" transform="translate(2.01 0.19)"/><path class="cls-14" d="M1864.68,849s.92,11.38,2,25.06c1.46,18.59,3.21,41.42,3.38,45.74.3,7.51,1.5,19.52,1.5,19.52s2.85,2.86,8.56,1.65a196.75,196.75,0,0,0,6.54-35.29l.07-.9c1.35-18.47,3.45-57.36,3.45-57.36Z" transform="translate(2.01 0.19)"/><path class="cls-15" d="M1864.68,849s.92,11.38,2,25.06l20,31.63.07-.9c1.35-18.47,3.45-57.36,3.45-57.36Z" transform="translate(2.01 0.19)"/><path class="cls-14" d="M1868.85,850.35s16.47,41.22,27.25,60.59,14.19,24.82,14.19,24.82,6.2-2.48,6.76-4.17c0,0-4.11-37.4-11.38-46.52-4.11-5.14-8.89-20.58-9.11-26s-1.47-16.1-1.47-16.1Z" transform="translate(2.01 0.19)"/><path class="cls-17" d="M1870.55,783.88s-8.24,10.83-14.91,11.49a17.89,17.89,0,0,1,2.74-6.37c-.56-.82-1-1.65-1.44-2.32a39.78,39.78,0,0,1-2-3.71l3-5.63,2-3.82a19.72,19.72,0,0,0,1.9,3.68A16,16,0,0,0,1870.55,783.88Z" transform="translate(2.01 0.19)"/><path class="cls-22" d="M1861.89,777.19a12.54,12.54,0,0,1-4.94,9.49,39.86,39.86,0,0,1-2-3.71l3-5.63A12.29,12.29,0,0,1,1861.89,777.19Z" transform="translate(2.01 0.19)"/><path class="cls-17" d="M1853.11,783.6s10.45-2.55,8.76-9.05-1.48-11.18-8.24-9.82-7.41,4.17-7.35,6.47S1850.35,784.11,1853.11,783.6Z" transform="translate(2.01 0.19)"/><path class="cls-18" d="M1896.75,848.46c-4.78,5.23-35.77,9-34.89,5a43.31,43.31,0,0,0,1.05-7.86c0-.82,0-1.79,0-2.77a63.35,63.35,0,0,0-4-20.65c-.22-.63-.46-1.25-.71-1.9a61.54,61.54,0,0,1-2.91-9.88c-1.29-6.27-1.36-12.12.19-15.74l2-5.81a13.32,13.32,0,0,0,8.57-7.22s20.86,6.68,29.05,36.75C1895.17,818.38,1900.9,843.9,1896.75,848.46Z" transform="translate(2.01 0.19)"/><path class="cls-6" d="M1862.91,845.61c0-.82,0-1.79,0-2.77a63.35,63.35,0,0,0-4-20.65c1.25-4.12,2.67-7.47,3.93-8.9,5.1-5.83,7.72-6.49,7.72-6.49S1873.43,834.6,1862.91,845.61Z" transform="translate(2.01 0.19)"/><path class="cls-6" d="M1864.81,763.33c.09-.12.3-.25.82-.33a2,2,0,0,0-1-.17,2.65,2.65,0,0,0-2-2.14,1.52,1.52,0,0,1,.87,1c-1.59-1.33-4.77-2.08-13.17-.47-11.1,2.13-6.59,9-5.07,9.72s4.94-2.08,7.66-2.15,3.67,3.82,4.65,4.27.51-.48,1.65-1.19,1.52,1.37,1.32,2.77,1.65,3,1.65,3l1.51-2.07c1.52-2.08,2.26-10.23,1.29-11.83Z" transform="translate(2.01 0.19)"/><path class="cls-17" d="M1834.19,839.35a35.07,35.07,0,0,0-4.57.49,11.34,11.34,0,0,0-3.3,2.52c0,.25.22.4.72.29s2.08-.75,2-.53-4.5,2.47-4.29,3.42,3.3,2,5.49,1.52,6.7-3.89,7-4.12S1834.19,839.35,1834.19,839.35Z" transform="translate(2.01 0.19)"/><path class="cls-18" d="M1834.45,841.28c-1.39-1.8-.63-2.76-.63-2.76s16.78-16.31,18.07-17.91,5.46-25.39,5.46-25.39,2.39-5.77,7.63-7.33c4.57-1.39,6.94-3.3,9.33-.83a10,10,0,0,1,1.87,11.1c-3.83,8.39-11.59,25-14.06,28-4.76,5.76-20,14.92-23.95,17.29a1.57,1.57,0,0,1-1.82-.18A17.14,17.14,0,0,1,1834.45,841.28Z" transform="translate(2.01 0.19)"/><path class="cls-14" d="M1710.46,783.72a4.65,4.65,0,0,0-2.82-1.74l-3.65-.82s-12.56,20.88-13.59,23c-.23.46-.63,1.2-1.21,2.21a1.93,1.93,0,0,1-2.15.94,94.56,94.56,0,0,1-14.17-4.81,13.33,13.33,0,0,0-13.63,1.48l-3.23,2.47a5.89,5.89,0,0,0,2,10.38c11.39,3.13,28,4.94,35,5.77,3.16.36,7-7.42,8.88-11.86h0C1705.87,801.52,1710.46,783.72,1710.46,783.72Z" transform="translate(2.01 0.19)"/><path class="cls-6" d="M1570.83,946.69h-18.22a3.13,3.13,0,0,1,2.82-2.1c2.81-.46,7.68-2.09,8.77-5.69l.1-.35c.82-3.84,7.13,1.17,7.13,1.17a2.47,2.47,0,0,0,0,.42C1571.62,941.52,1572,946.05,1570.83,946.69Z" transform="translate(2.01 0.19)"/><path class="cls-18" d="M1556.17,843.91s1,11.9,2.08,26.18c1.52,19.42,3.35,43.26,3.53,47.77.32,7.84,1.58,20.39,1.58,20.39s3,3,8.93,1.72a205.11,205.11,0,0,0,6.84-36.86,5,5,0,0,1,.06-.94c1.42-19.29,3.61-59.92,3.61-59.92Z" transform="translate(2.01 0.19)"/><path class="cls-6" d="M1556.17,843.91s1,11.9,2.08,26.18l20.9,33a4.21,4.21,0,0,1,.07-.94c1.41-19.29,3.6-59.92,3.6-59.92Z" transform="translate(2.01 0.19)"/><path class="cls-18" d="M1560.53,845.33s17.17,43,28.47,63.29,14.83,25.88,14.83,25.88,6.46-2.58,7.05-4.35c0,0-4.32-39.06-11.88-48.59-4.27-5.39-9.3-21.54-9.53-27.18s-1.53-16.82-1.53-16.82Z" transform="translate(2.01 0.19)"/><path class="cls-17" d="M1583.13,779s-11.62,5.69-18.32,3.57a15.77,15.77,0,0,1,4.53-3.68c-.23-1.37-.41-2.55-.52-3.56-.15-1.2-.25-2.42-.28-3.63l4.48-3.58,4.25-3.43C1576.94,774.34,1583.13,779,1583.13,779Z" transform="translate(2.01 0.19)"/><path class="cls-14" d="M1589.25,839.77c0,.72-1.49,1.55-2.16,1.85a46.84,46.84,0,0,1-14.87,4.28c-6.21.65-13.56-.77-16.08-.72a1,1,0,0,1-.7-.29c-.18-.12-.3-7.72-.18-17.29v-1.29c.06-3.74.18-7.66.36-11.53.37-8.61,1-16.9,2.17-21.49a23.44,23.44,0,0,1,7.26-11.6l2.33-2.05a11,11,0,0,0,7.21-.89c2.68-1.31,5.62-2.78,6.08-2.47,3.5,2.61,5.83,8.52,7.09,16a84,84,0,0,1,1,14.17c0,1.85,0,3.77-.15,5.64a181,181,0,0,0,.36,24.2C1589.15,837.75,1589.22,839,1589.25,839.77Z" transform="translate(2.01 0.19)"/><path class="cls-15" d="M1589,836.29c-56.29-.08-10.38-42-10.38-42l9.12-2a83.13,83.13,0,0,1,1.06,14.18c0,1.85,0,3.76-.15,5.64A183,183,0,0,0,1589,836.29Z" transform="translate(2.01 0.19)"/><rect class="cls-7" x="1521.79" y="801.19" width="35.01" height="35.01"/><rect class="cls-8" x="1555.35" y="801.19" width="16.03" height="35.01"/><path class="cls-17" d="M1549.5,819l-2.08-.67a4.39,4.39,0,0,0-6.39-2.66s-2,1-1.12,2.31.72.6,1.93,2.41,3.11,2.67,4.63,2l1.73.05Z" transform="translate(2.01 0.19)"/><path class="cls-14" d="M1583.13,779a43.88,43.88,0,0,1-.82,43.71c-4.25,7.32-36.24.37-36.24.37s-1.25-2.26,2.09-4.64c0,0,21.32-3.61,23.88-4.21,2.26-.53.76-21.26,3.3-27.27A15.15,15.15,0,0,1,1583.13,779Z" transform="translate(2.01 0.19)"/><path class="cls-23" d="M1577.36,768.35s-2.94,5.45-8.54,7c-.15-1.2-.25-2.42-.28-3.63l4.48-3.58Z" transform="translate(2.01 0.19)"/><path class="cls-17" d="M1566.49,771.52s11.1,1.85,12.13-5.08,3.18-11.35-3.86-12.81-8.81,1-9.72,3.19S1563.64,770.86,1566.49,771.52Z" transform="translate(2.01 0.19)"/><path class="cls-6" d="M1578.55,766.93a11.47,11.47,0,0,0-10.33-10.76c-6.91-1-6.34-6-5.55-6.95,0,0,8.95.08,14.32,1.43C1585.12,752.69,1579.75,765.54,1578.55,766.93Z" transform="translate(2.01 0.19)"/><path class="cls-6" d="M1610.88,931.64l-.54-.69-6.1,3.41c-.06,1.24-.06,2.47,0,3.7a9.74,9.74,0,0,1-.15,2.41c-.12.6-.78,3.18-2.66,3.86-2.15.77-2.32,2.42,1.34,2.4h1.91a5.12,5.12,0,0,0,4.87-3.77,8.71,8.71,0,0,1,1.48-2.87c1-1.12,2.09-2.12,2.47-3.35C1614.1,934.58,1610.88,931.64,1610.88,931.64Z" transform="translate(2.01 0.19)"/></svg>