<svg id="Layer_1" data-name="Layer 1" xmlns="http://www.w3.org/2000/svg" viewBox="0 0 225 225"><defs><style>.cls-1{fill:#fdfdfd;}.cls-2{fill:#010101;opacity:0.08;}</style></defs><path class="cls-1" d="M402.8,343.78h-225v-225h225Zm-216.34-112a103.91,103.91,0,0,0,104,104.31C348.59,336.17,395.05,290,395.13,232a104.34,104.34,0,1,0-208.67-.2Z" transform="translate(-177.8 -118.78)"/><path class="cls-2" d="M186.46,231.8a104.34,104.34,0,1,1,208.67.2c-.08,58-46.54,104.17-104.69,104.11A103.91,103.91,0,0,1,186.46,231.8Zm100.47,93.35c26.69.16,50.69-9.14,66.79-24.31,2.12-2,2.68-3.55,1.25-6.28-13.49-25.62-34.51-40-63.55-40.18-29.44-.22-50.89,14-64.68,39.94-1.5,2.83-1.11,4.56,1.3,6.68C245.91,316.68,266.61,324.89,286.93,325.15Zm3.66-156.89a37.44,37.44,0,1,0,37.55,36.92A37.28,37.28,0,0,0,290.59,168.26Z" transform="translate(-177.8 -118.78)"/></svg>